{"glyphs":{"0":{"ha":788,"x_min":0,"x_max":0,"o":"m 622 707 b 174 878 601 878 425 1089 b 132 513 50 774 181 628 b 18 292 101 443 39 356 b 439 32 -26 163 53 -85 b 622 707 936 183 636 599 z m 513 324 b 357 49 525 272 551 94 b 232 314 164 3 104 106 b 346 581 319 458 357 514 b 296 906 332 657 218 825 b 564 646 386 999 540 833 b 513 324 585 483 468 501 z "},"1":{"ha":486,"x_min":0,"x_max":0,"o":"m 318 104 b 347 478 260 151 271 275 b 411 886 401 622 494 781 b 188 936 344 971 249 983 b 183 933 186 935 185 933 b 169 918 179 928 174 924 b 165 914 168 917 167 915 b 160 906 164 911 161 908 l 160 904 b 125 753 138 871 124 819 b 49 549 126 622 49 549 l 176 517 b 181 824 303 629 207 710 b 215 908 169 871 193 894 b 313 879 244 926 286 931 b 221 507 389 735 238 535 b 68 214 193 460 82 264 b 150 18 60 178 51 68 b 386 151 250 -32 414 35 b 318 104 386 151 357 74 z "},"2":{"ha":769,"x_min":0,"x_max":0,"o":"m 650 190 b 636 454 572 288 553 339 b 453 289 593 469 429 429 b 633 96 471 176 651 207 b 439 50 626 46 558 32 b 317 58 386 58 339 56 b 226 182 264 64 228 124 b 385 388 225 249 281 325 b 672 779 625 529 669 669 b 250 917 675 907 438 1040 b 175 557 63 792 135 582 b 407 686 249 513 414 665 b 232 783 407 686 250 669 b 464 854 214 897 388 988 b 215 447 528 743 460 599 b 133 0 -39 290 -96 4 b 314 14 214 -1 257 1 b 490 4 379 29 440 13 b 650 192 617 -15 738 85 z "},"3":{"ha":821,"x_min":0,"x_max":0,"o":"m 625 518 b 471 554 578 556 522 563 b 557 579 496 564 524 572 b 565 940 738 621 774 836 b 163 600 346 1049 -35 796 l 304 665 b 265 865 304 665 201 768 b 515 775 319 949 506 886 b 304 531 528 636 393 571 b 203 292 189 478 126 385 b 515 349 285 192 436 224 b 353 393 515 349 378 307 b 351 464 344 419 344 443 b 353 468 353 465 353 467 b 376 503 358 481 367 492 b 379 506 378 504 379 504 b 385 510 381 507 383 508 b 565 438 440 549 539 526 b 261 92 599 326 538 65 b 104 396 39 114 104 396 b 14 283 75 382 1 357 b 478 6 50 82 251 -22 b 625 518 714 36 874 324 z "},"4":{"ha":1049,"x_min":0,"x_max":0,"o":"m 983 338 b 813 569 972 463 896 519 b 760 868 722 622 626 742 b 936 929 856 960 936 929 l 944 938 l 772 1015 b 674 667 772 1015 585 933 b 735 518 693 611 715 564 b 443 271 686 432 581 263 b 189 499 261 283 231 428 b 293 454 224 478 261 461 b 513 663 401 429 597 479 b 647 958 436 831 494 882 l 647 965 l 492 965 b 422 750 492 965 436 819 b 75 592 403 642 263 460 b 69 582 75 592 72 588 b 169 508 88 564 126 535 b 197 443 181 494 192 472 b 249 276 208 392 215 324 b 550 247 308 186 450 179 b 753 478 626 300 710 397 b 790 356 769 436 785 397 b 700 1 819 132 692 22 b 713 1 700 1 704 0 b 846 106 732 21 775 79 b 983 338 982 160 989 272 z "},"5":{"ha":863,"x_min":0,"x_max":0,"o":"m 218 540 b 217 774 308 586 300 674 b 115 904 182 815 138 881 b 103 896 107 900 103 896 b 89 636 103 896 181 779 b 131 426 -22 467 131 426 b 218 540 131 426 74 465 z m 344 536 b 339 535 343 536 340 535 b 399 701 382 572 421 626 b 210 899 375 781 203 796 b 383 881 214 965 317 975 b 671 710 442 800 503 682 b 796 861 786 729 800 792 b 790 924 794 896 790 924 b 522 861 790 924 706 789 b 336 961 469 882 410 940 b 175 899 256 982 179 965 b 365 692 168 792 331 774 b 267 508 394 622 300 536 b 156 447 225 492 185 471 b 160 410 142 436 157 417 b 535 485 160 410 414 575 b 538 161 664 388 569 214 b 168 168 485 72 233 -42 b 144 167 158 169 150 168 b 215 39 144 167 139 88 b 432 6 258 11 319 -10 b 760 425 738 47 854 235 b 344 536 664 617 417 560 z "},"6":{"ha":789,"x_min":0,"x_max":0,"o":"m 603 558 b 365 563 519 610 433 596 b 301 667 364 593 340 622 b 424 900 261 710 315 861 b 510 822 532 939 558 867 b 432 738 482 796 449 763 b 432 679 403 694 432 679 b 565 721 472 693 565 721 b 486 960 635 833 589 928 b 235 729 357 999 146 926 b 114 456 308 565 207 507 b 71 108 50 419 -79 267 b 264 6 132 42 201 14 b 599 90 331 -7 469 -15 b 603 558 749 213 794 442 z m 524 129 b 299 42 468 49 401 21 b 256 67 285 49 271 57 b 289 440 136 151 183 333 b 344 504 314 465 332 486 b 465 517 374 532 419 556 b 524 129 529 464 583 217 z "},"7":{"ha":790,"x_min":0,"x_max":0,"o":"m 303 700 b 183 719 303 700 228 699 b 335 836 36 789 193 925 b 558 728 436 772 479 726 b 800 843 646 729 746 792 b 592 851 800 843 686 808 b 285 963 500 893 419 996 b 69 739 154 932 69 819 b 189 621 69 683 99 614 z m 600 639 b 782 789 658 685 749 758 b 771 804 779 792 771 804 b 501 625 703 750 567 658 b 189 313 418 583 231 483 b 315 13 140 114 263 39 b 644 61 360 -11 575 -32 b 638 360 746 194 672 254 b 682 482 614 428 682 482 b 513 274 568 464 457 372 b 622 188 535 233 592 228 b 463 57 669 124 582 -11 b 368 271 393 96 372 156 b 600 639 364 385 483 547 z "},"8":{"ha":736,"x_min":0,"x_max":0,"o":"m 593 463 b 281 779 494 593 317 656 b 468 874 235 936 399 967 b 419 675 533 785 419 675 b 429 660 422 667 421 657 b 575 725 496 678 551 707 b 588 853 608 750 610 813 b 433 951 569 885 519 926 b 165 921 356 972 240 976 b 197 590 24 817 103 685 b 229 558 207 581 218 569 b 106 357 193 506 138 424 b 103 71 46 235 35 142 b 593 463 288 -118 872 94 z m 453 135 b 203 172 389 -3 274 72 b 258 529 107 306 186 439 b 453 135 364 419 508 251 z "},"9":{"ha":928,"x_min":0,"x_max":0,"o":"m 772 561 b 597 860 686 650 563 710 b 472 804 597 860 532 810 l 472 803 b 354 631 388 785 339 704 b 465 493 371 543 413 542 b 422 372 511 451 465 392 b 254 564 353 342 254 442 b 386 914 254 706 292 858 b 585 888 475 965 538 915 b 721 896 631 860 681 860 b 746 985 761 933 746 985 b 507 964 675 943 611 940 b 213 904 403 989 264 942 b 69 569 163 865 42 743 b 472 349 97 394 307 281 b 601 510 572 390 613 453 b 500 639 594 554 553 590 b 483 771 417 714 450 756 b 578 665 497 743 525 703 b 646 250 685 589 708 388 b 365 39 586 121 497 39 b 189 136 249 40 192 93 b 253 304 185 182 210 258 l 132 346 b 219 36 132 346 31 111 b 732 100 386 -32 564 -7 b 772 561 913 217 900 428 z "},"\u0000":{"ha":0,"x_min":0,"x_max":0,"o":""},"\n":{"ha":0,"x_min":0,"x_max":0,"o":""}," ":{"ha":494,"x_min":0,"x_max":0,"o":""},"!":{"ha":482,"x_min":0,"x_max":0,"o":"m 231 8 b 139 -36 197 24 156 0 b 174 -122 124 -72 140 -108 b 269 -81 207 -137 253 -117 b 231 8 285 -44 264 -6 z m 415 319 b 179 588 390 456 210 456 b 263 767 160 674 222 742 b 360 840 325 807 360 840 b 150 840 303 839 150 840 b 71 560 69 774 47 640 b 189 326 101 457 110 438 b 179 64 268 214 179 64 l 217 44 b 415 319 347 150 435 218 z "},"\"":{"ha":1085,"x_min":0,"x_max":0,"o":"m 311 936 l 311 865 l 363 865 l 363 833 l 311 833 l 311 596 l 250 596 l 250 968 l 392 968 l 392 936 z m 474 844 l 461 844 l 461 596 l 400 596 l 400 968 l 494 968 b 565 907 535 968 565 951 b 521 847 565 872 549 854 l 574 596 l 503 596 z m 461 864 b 494 901 485 864 494 875 b 461 938 494 926 485 938 z m 650 936 l 650 865 l 703 865 l 703 833 l 650 833 l 650 628 l 731 628 l 731 596 l 589 596 l 589 968 l 731 968 l 731 936 z m 804 936 l 804 865 l 857 865 l 857 833 l 804 833 l 804 628 l 886 628 l 886 596 l 744 596 l 744 968 l 886 968 l 886 936 z m 390 483 l 343 483 l 343 143 l 283 143 l 283 483 l 236 483 l 236 515 l 390 515 z m 475 392 l 463 392 l 463 143 l 401 143 l 401 515 l 496 515 b 567 454 536 515 567 499 b 522 396 567 419 549 401 l 575 143 l 504 143 z m 463 411 b 496 449 486 411 496 422 b 463 485 496 474 486 485 z m 590 143 l 590 515 l 651 515 l 651 143 z m 776 288 l 750 288 l 739 143 l 668 143 l 707 515 l 818 515 l 857 143 l 786 143 z m 775 313 l 765 454 l 761 454 l 751 313 z m 1015 175 l 1015 143 l 874 143 l 874 515 l 935 515 l 935 175 z m 271 7 b 271 4 271 6 271 4 b 276 -1 271 0 274 -1 b 283 0 279 -1 282 -1 l 286 -12 b 272 -15 282 -15 276 -15 b 254 1 261 -15 254 -10 b 256 7 254 3 254 4 l 260 31 l 251 31 l 253 44 l 263 44 l 265 60 l 281 60 l 278 44 l 292 44 l 290 31 l 276 31 z m 360 46 l 322 -19 b 297 -37 314 -33 308 -37 b 282 -32 292 -37 285 -36 l 289 -19 b 299 -24 292 -22 294 -24 b 308 -17 303 -24 306 -21 l 310 -15 l 296 46 l 313 46 l 321 4 l 344 46 z m 422 19 b 392 -15 422 -1 408 -15 b 374 -7 383 -15 376 -12 l 368 -37 l 351 -37 l 367 46 l 382 46 l 381 40 b 397 47 385 44 392 47 b 422 19 411 47 422 36 z m 406 18 b 393 32 406 26 401 32 b 376 13 383 32 376 24 b 389 -1 376 4 381 -1 b 406 18 399 -1 406 7 z m 486 11 l 444 11 b 458 -1 444 3 449 -1 b 474 4 464 -1 469 0 l 481 -8 b 457 -15 474 -14 465 -15 b 428 11 439 -15 428 -6 b 461 47 428 32 442 47 b 488 19 478 47 488 36 b 486 11 488 17 488 14 z m 444 21 l 472 21 b 460 33 472 29 468 33 b 444 21 453 33 447 28 z m 521 47 l 521 44 l 535 44 l 532 31 l 519 31 l 510 -15 l 494 -15 l 503 31 l 494 31 l 496 44 l 506 44 l 506 47 b 531 69 508 61 517 69 b 543 67 535 69 540 68 l 536 54 b 531 56 535 56 532 56 b 521 47 525 56 522 53 z m 600 46 l 589 -15 l 574 -15 l 574 -10 b 557 -15 569 -14 564 -15 b 533 11 544 -15 533 -6 b 564 47 533 32 546 47 b 582 38 572 47 578 43 l 583 46 z m 578 18 b 565 32 578 26 574 32 b 549 13 556 32 549 24 b 563 -1 549 4 554 -1 b 578 18 571 -1 578 7 z m 604 11 b 639 47 604 32 618 47 b 664 31 650 47 660 42 l 650 24 b 638 32 647 29 643 32 b 621 13 628 32 621 24 b 633 -1 621 4 625 -1 b 647 7 639 -1 644 1 l 660 -1 b 633 -15 654 -11 644 -15 b 604 11 615 -15 604 -6 z m 688 7 b 688 4 688 6 688 4 b 693 -1 688 0 689 -1 b 700 0 696 -1 697 -1 l 701 -12 b 688 -15 699 -15 693 -15 b 671 1 678 -15 671 -10 b 671 7 671 3 671 4 l 675 31 l 667 31 l 669 44 l 678 44 l 681 60 l 697 60 l 694 44 l 708 44 l 706 31 l 692 31 z m 710 11 b 743 47 710 32 724 47 b 772 19 761 47 772 36 b 738 -15 772 -1 758 -15 b 710 11 721 -15 710 -6 z m 756 18 b 743 32 756 26 750 32 b 726 13 733 32 726 24 b 739 -1 726 4 731 -1 b 756 18 749 -1 756 7 z m 822 47 l 819 31 b 815 31 818 31 817 31 b 799 14 807 31 800 26 l 793 -15 l 776 -15 l 788 46 l 803 46 l 801 39 b 822 47 807 44 814 47 z m 889 46 l 853 -19 b 826 -37 844 -33 838 -37 b 811 -32 821 -37 815 -36 l 819 -19 b 828 -24 821 -22 825 -24 b 838 -17 832 -24 835 -21 l 839 -15 l 826 46 l 842 46 l 850 4 l 874 46 z m 879 -6 b 890 6 879 1 885 6 b 900 -4 896 6 900 1 b 889 -15 900 -11 894 -15 b 879 -6 883 -15 879 -11 z m 910 11 b 943 47 910 32 924 47 b 968 31 956 47 964 42 l 954 24 b 942 32 953 29 947 32 b 925 13 932 32 925 24 b 939 -1 925 4 931 -1 b 953 7 944 -1 949 1 l 964 -1 b 938 -15 958 -11 949 -15 b 910 11 921 -15 910 -6 z m 969 11 b 1003 47 969 32 983 47 b 1032 19 1021 47 1032 36 b 997 -15 1032 -1 1018 -15 b 969 11 981 -15 969 -6 z m 1015 18 b 1003 32 1015 26 1011 32 b 986 13 993 32 986 24 b 999 -1 986 4 990 -1 b 1015 18 1008 -1 1015 7 z m 88 -64 l 143 -64 l 143 1019 l 88 1019 z "},"#":{"ha":1085,"x_min":0,"x_max":0,"o":"m 311 936 l 311 865 l 363 865 l 363 833 l 311 833 l 311 596 l 250 596 l 250 968 l 392 968 l 392 936 z m 474 844 l 461 844 l 461 596 l 400 596 l 400 968 l 494 968 b 565 907 535 968 565 951 b 521 847 565 872 549 854 l 574 596 l 503 596 z m 461 864 b 494 901 485 864 494 875 b 461 938 494 926 485 938 z m 650 936 l 650 865 l 703 865 l 703 833 l 650 833 l 650 628 l 731 628 l 731 596 l 589 596 l 589 968 l 731 968 l 731 936 z m 804 936 l 804 865 l 857 865 l 857 833 l 804 833 l 804 628 l 886 628 l 886 596 l 744 596 l 744 968 l 886 968 l 886 936 z m 390 483 l 343 483 l 343 143 l 283 143 l 283 483 l 236 483 l 236 515 l 390 515 z m 475 392 l 463 392 l 463 143 l 401 143 l 401 515 l 496 515 b 567 454 536 515 567 499 b 522 396 567 419 549 401 l 575 143 l 504 143 z m 463 411 b 496 449 486 411 496 422 b 463 485 496 474 486 485 z m 590 143 l 590 515 l 651 515 l 651 143 z m 776 288 l 750 288 l 739 143 l 668 143 l 707 515 l 818 515 l 857 143 l 786 143 z m 775 313 l 765 454 l 761 454 l 751 313 z m 1015 175 l 1015 143 l 874 143 l 874 515 l 935 515 l 935 175 z m 271 7 b 271 4 271 6 271 4 b 276 -1 271 0 274 -1 b 283 0 279 -1 282 -1 l 286 -12 b 272 -15 282 -15 276 -15 b 254 1 261 -15 254 -10 b 256 7 254 3 254 4 l 260 31 l 251 31 l 253 44 l 263 44 l 265 60 l 281 60 l 278 44 l 292 44 l 290 31 l 276 31 z m 360 46 l 322 -19 b 297 -37 314 -33 308 -37 b 282 -32 292 -37 285 -36 l 289 -19 b 299 -24 292 -22 294 -24 b 308 -17 303 -24 306 -21 l 310 -15 l 296 46 l 313 46 l 321 4 l 344 46 z m 422 19 b 392 -15 422 -1 408 -15 b 374 -7 383 -15 376 -12 l 368 -37 l 351 -37 l 367 46 l 382 46 l 381 40 b 397 47 385 44 392 47 b 422 19 411 47 422 36 z m 406 18 b 393 32 406 26 401 32 b 376 13 383 32 376 24 b 389 -1 376 4 381 -1 b 406 18 399 -1 406 7 z m 486 11 l 444 11 b 458 -1 444 3 449 -1 b 474 4 464 -1 469 0 l 481 -8 b 457 -15 474 -14 465 -15 b 428 11 439 -15 428 -6 b 461 47 428 32 442 47 b 488 19 478 47 488 36 b 486 11 488 17 488 14 z m 444 21 l 472 21 b 460 33 472 29 468 33 b 444 21 453 33 447 28 z m 521 47 l 521 44 l 535 44 l 532 31 l 519 31 l 510 -15 l 494 -15 l 503 31 l 494 31 l 496 44 l 506 44 l 506 47 b 531 69 508 61 517 69 b 543 67 535 69 540 68 l 536 54 b 531 56 535 56 532 56 b 521 47 525 56 522 53 z m 600 46 l 589 -15 l 574 -15 l 574 -10 b 557 -15 569 -14 564 -15 b 533 11 544 -15 533 -6 b 564 47 533 32 546 47 b 582 38 572 47 578 43 l 583 46 z m 578 18 b 565 32 578 26 574 32 b 549 13 556 32 549 24 b 563 -1 549 4 554 -1 b 578 18 571 -1 578 7 z m 604 11 b 639 47 604 32 618 47 b 664 31 650 47 660 42 l 650 24 b 638 32 647 29 643 32 b 621 13 628 32 621 24 b 633 -1 621 4 625 -1 b 647 7 639 -1 644 1 l 660 -1 b 633 -15 654 -11 644 -15 b 604 11 615 -15 604 -6 z m 688 7 b 688 4 688 6 688 4 b 693 -1 688 0 689 -1 b 700 0 696 -1 697 -1 l 701 -12 b 688 -15 699 -15 693 -15 b 671 1 678 -15 671 -10 b 671 7 671 3 671 4 l 675 31 l 667 31 l 669 44 l 678 44 l 681 60 l 697 60 l 694 44 l 708 44 l 706 31 l 692 31 z m 710 11 b 743 47 710 32 724 47 b 772 19 761 47 772 36 b 738 -15 772 -1 758 -15 b 710 11 721 -15 710 -6 z m 756 18 b 743 32 756 26 750 32 b 726 13 733 32 726 24 b 739 -1 726 4 731 -1 b 756 18 749 -1 756 7 z m 822 47 l 819 31 b 815 31 818 31 817 31 b 799 14 807 31 800 26 l 793 -15 l 776 -15 l 788 46 l 803 46 l 801 39 b 822 47 807 44 814 47 z m 889 46 l 853 -19 b 826 -37 844 -33 838 -37 b 811 -32 821 -37 815 -36 l 819 -19 b 828 -24 821 -22 825 -24 b 838 -17 832 -24 835 -21 l 839 -15 l 826 46 l 842 46 l 850 4 l 874 46 z m 879 -6 b 890 6 879 1 885 6 b 900 -4 896 6 900 1 b 889 -15 900 -11 894 -15 b 879 -6 883 -15 879 -11 z m 910 11 b 943 47 910 32 924 47 b 968 31 956 47 964 42 l 954 24 b 942 32 953 29 947 32 b 925 13 932 32 925 24 b 939 -1 925 4 931 -1 b 953 7 944 -1 949 1 l 964 -1 b 938 -15 958 -11 949 -15 b 910 11 921 -15 910 -6 z m 969 11 b 1003 47 969 32 983 47 b 1032 19 1021 47 1032 36 b 997 -15 1032 -1 1018 -15 b 969 11 981 -15 969 -6 z m 1015 18 b 1003 32 1015 26 1011 32 b 986 13 993 32 986 24 b 999 -1 986 4 990 -1 b 1015 18 1008 -1 1015 7 z m 88 -64 l 143 -64 l 143 1019 l 88 1019 z "},"$":{"ha":1085,"x_min":0,"x_max":0,"o":"m 311 936 l 311 865 l 363 865 l 363 833 l 311 833 l 311 596 l 250 596 l 250 968 l 392 968 l 392 936 z m 474 844 l 461 844 l 461 596 l 400 596 l 400 968 l 494 968 b 565 907 535 968 565 951 b 521 847 565 872 549 854 l 574 596 l 503 596 z m 461 864 b 494 901 485 864 494 875 b 461 938 494 926 485 938 z m 650 936 l 650 865 l 703 865 l 703 833 l 650 833 l 650 628 l 731 628 l 731 596 l 589 596 l 589 968 l 731 968 l 731 936 z m 804 936 l 804 865 l 857 865 l 857 833 l 804 833 l 804 628 l 886 628 l 886 596 l 744 596 l 744 968 l 886 968 l 886 936 z m 390 483 l 343 483 l 343 143 l 283 143 l 283 483 l 236 483 l 236 515 l 390 515 z m 475 392 l 463 392 l 463 143 l 401 143 l 401 515 l 496 515 b 567 454 536 515 567 499 b 522 396 567 419 549 401 l 575 143 l 504 143 z m 463 411 b 496 449 486 411 496 422 b 463 485 496 474 486 485 z m 590 143 l 590 515 l 651 515 l 651 143 z m 776 288 l 750 288 l 739 143 l 668 143 l 707 515 l 818 515 l 857 143 l 786 143 z m 775 313 l 765 454 l 761 454 l 751 313 z m 1015 175 l 1015 143 l 874 143 l 874 515 l 935 515 l 935 175 z m 271 7 b 271 4 271 6 271 4 b 276 -1 271 0 274 -1 b 283 0 279 -1 282 -1 l 286 -12 b 272 -15 282 -15 276 -15 b 254 1 261 -15 254 -10 b 256 7 254 3 254 4 l 260 31 l 251 31 l 253 44 l 263 44 l 265 60 l 281 60 l 278 44 l 292 44 l 290 31 l 276 31 z m 360 46 l 322 -19 b 297 -37 314 -33 308 -37 b 282 -32 292 -37 285 -36 l 289 -19 b 299 -24 292 -22 294 -24 b 308 -17 303 -24 306 -21 l 310 -15 l 296 46 l 313 46 l 321 4 l 344 46 z m 422 19 b 392 -15 422 -1 408 -15 b 374 -7 383 -15 376 -12 l 368 -37 l 351 -37 l 367 46 l 382 46 l 381 40 b 397 47 385 44 392 47 b 422 19 411 47 422 36 z m 406 18 b 393 32 406 26 401 32 b 376 13 383 32 376 24 b 389 -1 376 4 381 -1 b 406 18 399 -1 406 7 z m 486 11 l 444 11 b 458 -1 444 3 449 -1 b 474 4 464 -1 469 0 l 481 -8 b 457 -15 474 -14 465 -15 b 428 11 439 -15 428 -6 b 461 47 428 32 442 47 b 488 19 478 47 488 36 b 486 11 488 17 488 14 z m 444 21 l 472 21 b 460 33 472 29 468 33 b 444 21 453 33 447 28 z m 521 47 l 521 44 l 535 44 l 532 31 l 519 31 l 510 -15 l 494 -15 l 503 31 l 494 31 l 496 44 l 506 44 l 506 47 b 531 69 508 61 517 69 b 543 67 535 69 540 68 l 536 54 b 531 56 535 56 532 56 b 521 47 525 56 522 53 z m 600 46 l 589 -15 l 574 -15 l 574 -10 b 557 -15 569 -14 564 -15 b 533 11 544 -15 533 -6 b 564 47 533 32 546 47 b 582 38 572 47 578 43 l 583 46 z m 578 18 b 565 32 578 26 574 32 b 549 13 556 32 549 24 b 563 -1 549 4 554 -1 b 578 18 571 -1 578 7 z m 604 11 b 639 47 604 32 618 47 b 664 31 650 47 660 42 l 650 24 b 638 32 647 29 643 32 b 621 13 628 32 621 24 b 633 -1 621 4 625 -1 b 647 7 639 -1 644 1 l 660 -1 b 633 -15 654 -11 644 -15 b 604 11 615 -15 604 -6 z m 688 7 b 688 4 688 6 688 4 b 693 -1 688 0 689 -1 b 700 0 696 -1 697 -1 l 701 -12 b 688 -15 699 -15 693 -15 b 671 1 678 -15 671 -10 b 671 7 671 3 671 4 l 675 31 l 667 31 l 669 44 l 678 44 l 681 60 l 697 60 l 694 44 l 708 44 l 706 31 l 692 31 z m 710 11 b 743 47 710 32 724 47 b 772 19 761 47 772 36 b 738 -15 772 -1 758 -15 b 710 11 721 -15 710 -6 z m 756 18 b 743 32 756 26 750 32 b 726 13 733 32 726 24 b 739 -1 726 4 731 -1 b 756 18 749 -1 756 7 z m 822 47 l 819 31 b 815 31 818 31 817 31 b 799 14 807 31 800 26 l 793 -15 l 776 -15 l 788 46 l 803 46 l 801 39 b 822 47 807 44 814 47 z m 889 46 l 853 -19 b 826 -37 844 -33 838 -37 b 811 -32 821 -37 815 -36 l 819 -19 b 828 -24 821 -22 825 -24 b 838 -17 832 -24 835 -21 l 839 -15 l 826 46 l 842 46 l 850 4 l 874 46 z m 879 -6 b 890 6 879 1 885 6 b 900 -4 896 6 900 1 b 889 -15 900 -11 894 -15 b 879 -6 883 -15 879 -11 z m 910 11 b 943 47 910 32 924 47 b 968 31 956 47 964 42 l 954 24 b 942 32 953 29 947 32 b 925 13 932 32 925 24 b 939 -1 925 4 931 -1 b 953 7 944 -1 949 1 l 964 -1 b 938 -15 958 -11 949 -15 b 910 11 921 -15 910 -6 z m 969 11 b 1003 47 969 32 983 47 b 1032 19 1021 47 1032 36 b 997 -15 1032 -1 1018 -15 b 969 11 981 -15 969 -6 z m 1015 18 b 1003 32 1015 26 1011 32 b 986 13 993 32 986 24 b 999 -1 986 4 990 -1 b 1015 18 1008 -1 1015 7 z m 88 -64 l 143 -64 l 143 1019 l 88 1019 z "},"%":{"ha":1085,"x_min":0,"x_max":0,"o":"m 311 936 l 311 865 l 363 865 l 363 833 l 311 833 l 311 596 l 250 596 l 250 968 l 392 968 l 392 936 z m 474 844 l 461 844 l 461 596 l 400 596 l 400 968 l 494 968 b 565 907 535 968 565 951 b 521 847 565 872 549 854 l 574 596 l 503 596 z m 461 864 b 494 901 485 864 494 875 b 461 938 494 926 485 938 z m 650 936 l 650 865 l 703 865 l 703 833 l 650 833 l 650 628 l 731 628 l 731 596 l 589 596 l 589 968 l 731 968 l 731 936 z m 804 936 l 804 865 l 857 865 l 857 833 l 804 833 l 804 628 l 886 628 l 886 596 l 744 596 l 744 968 l 886 968 l 886 936 z m 390 483 l 343 483 l 343 143 l 283 143 l 283 483 l 236 483 l 236 515 l 390 515 z m 475 392 l 463 392 l 463 143 l 401 143 l 401 515 l 496 515 b 567 454 536 515 567 499 b 522 396 567 419 549 401 l 575 143 l 504 143 z m 463 411 b 496 449 486 411 496 422 b 463 485 496 474 486 485 z m 590 143 l 590 515 l 651 515 l 651 143 z m 776 288 l 750 288 l 739 143 l 668 143 l 707 515 l 818 515 l 857 143 l 786 143 z m 775 313 l 765 454 l 761 454 l 751 313 z m 1015 175 l 1015 143 l 874 143 l 874 515 l 935 515 l 935 175 z m 271 7 b 271 4 271 6 271 4 b 276 -1 271 0 274 -1 b 283 0 279 -1 282 -1 l 286 -12 b 272 -15 282 -15 276 -15 b 254 1 261 -15 254 -10 b 256 7 254 3 254 4 l 260 31 l 251 31 l 253 44 l 263 44 l 265 60 l 281 60 l 278 44 l 292 44 l 290 31 l 276 31 z m 360 46 l 322 -19 b 297 -37 314 -33 308 -37 b 282 -32 292 -37 285 -36 l 289 -19 b 299 -24 292 -22 294 -24 b 308 -17 303 -24 306 -21 l 310 -15 l 296 46 l 313 46 l 321 4 l 344 46 z m 422 19 b 392 -15 422 -1 408 -15 b 374 -7 383 -15 376 -12 l 368 -37 l 351 -37 l 367 46 l 382 46 l 381 40 b 397 47 385 44 392 47 b 422 19 411 47 422 36 z m 406 18 b 393 32 406 26 401 32 b 376 13 383 32 376 24 b 389 -1 376 4 381 -1 b 406 18 399 -1 406 7 z m 486 11 l 444 11 b 458 -1 444 3 449 -1 b 474 4 464 -1 469 0 l 481 -8 b 457 -15 474 -14 465 -15 b 428 11 439 -15 428 -6 b 461 47 428 32 442 47 b 488 19 478 47 488 36 b 486 11 488 17 488 14 z m 444 21 l 472 21 b 460 33 472 29 468 33 b 444 21 453 33 447 28 z m 521 47 l 521 44 l 535 44 l 532 31 l 519 31 l 510 -15 l 494 -15 l 503 31 l 494 31 l 496 44 l 506 44 l 506 47 b 531 69 508 61 517 69 b 543 67 535 69 540 68 l 536 54 b 531 56 535 56 532 56 b 521 47 525 56 522 53 z m 600 46 l 589 -15 l 574 -15 l 574 -10 b 557 -15 569 -14 564 -15 b 533 11 544 -15 533 -6 b 564 47 533 32 546 47 b 582 38 572 47 578 43 l 583 46 z m 578 18 b 565 32 578 26 574 32 b 549 13 556 32 549 24 b 563 -1 549 4 554 -1 b 578 18 571 -1 578 7 z m 604 11 b 639 47 604 32 618 47 b 664 31 650 47 660 42 l 650 24 b 638 32 647 29 643 32 b 621 13 628 32 621 24 b 633 -1 621 4 625 -1 b 647 7 639 -1 644 1 l 660 -1 b 633 -15 654 -11 644 -15 b 604 11 615 -15 604 -6 z m 688 7 b 688 4 688 6 688 4 b 693 -1 688 0 689 -1 b 700 0 696 -1 697 -1 l 701 -12 b 688 -15 699 -15 693 -15 b 671 1 678 -15 671 -10 b 671 7 671 3 671 4 l 675 31 l 667 31 l 669 44 l 678 44 l 681 60 l 697 60 l 694 44 l 708 44 l 706 31 l 692 31 z m 710 11 b 743 47 710 32 724 47 b 772 19 761 47 772 36 b 738 -15 772 -1 758 -15 b 710 11 721 -15 710 -6 z m 756 18 b 743 32 756 26 750 32 b 726 13 733 32 726 24 b 739 -1 726 4 731 -1 b 756 18 749 -1 756 7 z m 822 47 l 819 31 b 815 31 818 31 817 31 b 799 14 807 31 800 26 l 793 -15 l 776 -15 l 788 46 l 803 46 l 801 39 b 822 47 807 44 814 47 z m 889 46 l 853 -19 b 826 -37 844 -33 838 -37 b 811 -32 821 -37 815 -36 l 819 -19 b 828 -24 821 -22 825 -24 b 838 -17 832 -24 835 -21 l 839 -15 l 826 46 l 842 46 l 850 4 l 874 46 z m 879 -6 b 890 6 879 1 885 6 b 900 -4 896 6 900 1 b 889 -15 900 -11 894 -15 b 879 -6 883 -15 879 -11 z m 910 11 b 943 47 910 32 924 47 b 968 31 956 47 964 42 l 954 24 b 942 32 953 29 947 32 b 925 13 932 32 925 24 b 939 -1 925 4 931 -1 b 953 7 944 -1 949 1 l 964 -1 b 938 -15 958 -11 949 -15 b 910 11 921 -15 910 -6 z m 969 11 b 1003 47 969 32 983 47 b 1032 19 1021 47 1032 36 b 997 -15 1032 -1 1018 -15 b 969 11 981 -15 969 -6 z m 1015 18 b 1003 32 1015 26 1011 32 b 986 13 993 32 986 24 b 999 -1 986 4 990 -1 b 1015 18 1008 -1 1015 7 z m 88 -64 l 143 -64 l 143 1019 l 88 1019 z "},"&":{"ha":1085,"x_min":0,"x_max":0,"o":"m 311 936 l 311 865 l 363 865 l 363 833 l 311 833 l 311 596 l 250 596 l 250 968 l 392 968 l 392 936 z m 474 844 l 461 844 l 461 596 l 400 596 l 400 968 l 494 968 b 565 907 535 968 565 951 b 521 847 565 872 549 854 l 574 596 l 503 596 z m 461 864 b 494 901 485 864 494 875 b 461 938 494 926 485 938 z m 650 936 l 650 865 l 703 865 l 703 833 l 650 833 l 650 628 l 731 628 l 731 596 l 589 596 l 589 968 l 731 968 l 731 936 z m 804 936 l 804 865 l 857 865 l 857 833 l 804 833 l 804 628 l 886 628 l 886 596 l 744 596 l 744 968 l 886 968 l 886 936 z m 390 483 l 343 483 l 343 143 l 283 143 l 283 483 l 236 483 l 236 515 l 390 515 z m 475 392 l 463 392 l 463 143 l 401 143 l 401 515 l 496 515 b 567 454 536 515 567 499 b 522 396 567 419 549 401 l 575 143 l 504 143 z m 463 411 b 496 449 486 411 496 422 b 463 485 496 474 486 485 z m 590 143 l 590 515 l 651 515 l 651 143 z m 776 288 l 750 288 l 739 143 l 668 143 l 707 515 l 818 515 l 857 143 l 786 143 z m 775 313 l 765 454 l 761 454 l 751 313 z m 1015 175 l 1015 143 l 874 143 l 874 515 l 935 515 l 935 175 z m 271 7 b 271 4 271 6 271 4 b 276 -1 271 0 274 -1 b 283 0 279 -1 282 -1 l 286 -12 b 272 -15 282 -15 276 -15 b 254 1 261 -15 254 -10 b 256 7 254 3 254 4 l 260 31 l 251 31 l 253 44 l 263 44 l 265 60 l 281 60 l 278 44 l 292 44 l 290 31 l 276 31 z m 360 46 l 322 -19 b 297 -37 314 -33 308 -37 b 282 -32 292 -37 285 -36 l 289 -19 b 299 -24 292 -22 294 -24 b 308 -17 303 -24 306 -21 l 310 -15 l 296 46 l 313 46 l 321 4 l 344 46 z m 422 19 b 392 -15 422 -1 408 -15 b 374 -7 383 -15 376 -12 l 368 -37 l 351 -37 l 367 46 l 382 46 l 381 40 b 397 47 385 44 392 47 b 422 19 411 47 422 36 z m 406 18 b 393 32 406 26 401 32 b 376 13 383 32 376 24 b 389 -1 376 4 381 -1 b 406 18 399 -1 406 7 z m 486 11 l 444 11 b 458 -1 444 3 449 -1 b 474 4 464 -1 469 0 l 481 -8 b 457 -15 474 -14 465 -15 b 428 11 439 -15 428 -6 b 461 47 428 32 442 47 b 488 19 478 47 488 36 b 486 11 488 17 488 14 z m 444 21 l 472 21 b 460 33 472 29 468 33 b 444 21 453 33 447 28 z m 521 47 l 521 44 l 535 44 l 532 31 l 519 31 l 510 -15 l 494 -15 l 503 31 l 494 31 l 496 44 l 506 44 l 506 47 b 531 69 508 61 517 69 b 543 67 535 69 540 68 l 536 54 b 531 56 535 56 532 56 b 521 47 525 56 522 53 z m 600 46 l 589 -15 l 574 -15 l 574 -10 b 557 -15 569 -14 564 -15 b 533 11 544 -15 533 -6 b 564 47 533 32 546 47 b 582 38 572 47 578 43 l 583 46 z m 578 18 b 565 32 578 26 574 32 b 549 13 556 32 549 24 b 563 -1 549 4 554 -1 b 578 18 571 -1 578 7 z m 604 11 b 639 47 604 32 618 47 b 664 31 650 47 660 42 l 650 24 b 638 32 647 29 643 32 b 621 13 628 32 621 24 b 633 -1 621 4 625 -1 b 647 7 639 -1 644 1 l 660 -1 b 633 -15 654 -11 644 -15 b 604 11 615 -15 604 -6 z m 688 7 b 688 4 688 6 688 4 b 693 -1 688 0 689 -1 b 700 0 696 -1 697 -1 l 701 -12 b 688 -15 699 -15 693 -15 b 671 1 678 -15 671 -10 b 671 7 671 3 671 4 l 675 31 l 667 31 l 669 44 l 678 44 l 681 60 l 697 60 l 694 44 l 708 44 l 706 31 l 692 31 z m 710 11 b 743 47 710 32 724 47 b 772 19 761 47 772 36 b 738 -15 772 -1 758 -15 b 710 11 721 -15 710 -6 z m 756 18 b 743 32 756 26 750 32 b 726 13 733 32 726 24 b 739 -1 726 4 731 -1 b 756 18 749 -1 756 7 z m 822 47 l 819 31 b 815 31 818 31 817 31 b 799 14 807 31 800 26 l 793 -15 l 776 -15 l 788 46 l 803 46 l 801 39 b 822 47 807 44 814 47 z m 889 46 l 853 -19 b 826 -37 844 -33 838 -37 b 811 -32 821 -37 815 -36 l 819 -19 b 828 -24 821 -22 825 -24 b 838 -17 832 -24 835 -21 l 839 -15 l 826 46 l 842 46 l 850 4 l 874 46 z m 879 -6 b 890 6 879 1 885 6 b 900 -4 896 6 900 1 b 889 -15 900 -11 894 -15 b 879 -6 883 -15 879 -11 z m 910 11 b 943 47 910 32 924 47 b 968 31 956 47 964 42 l 954 24 b 942 32 953 29 947 32 b 925 13 932 32 925 24 b 939 -1 925 4 931 -1 b 953 7 944 -1 949 1 l 964 -1 b 938 -15 958 -11 949 -15 b 910 11 921 -15 910 -6 z m 969 11 b 1003 47 969 32 983 47 b 1032 19 1021 47 1032 36 b 997 -15 1032 -1 1018 -15 b 969 11 981 -15 969 -6 z m 1015 18 b 1003 32 1015 26 1011 32 b 986 13 993 32 986 24 b 999 -1 986 4 990 -1 b 1015 18 1008 -1 1015 7 z m 88 -64 l 143 -64 l 143 1019 l 88 1019 z "},"'":{"ha":1085,"x_min":0,"x_max":0,"o":"m 311 936 l 311 865 l 363 865 l 363 833 l 311 833 l 311 596 l 250 596 l 250 968 l 392 968 l 392 936 z m 474 844 l 461 844 l 461 596 l 400 596 l 400 968 l 494 968 b 565 907 535 968 565 951 b 521 847 565 872 549 854 l 574 596 l 503 596 z m 461 864 b 494 901 485 864 494 875 b 461 938 494 926 485 938 z m 650 936 l 650 865 l 703 865 l 703 833 l 650 833 l 650 628 l 731 628 l 731 596 l 589 596 l 589 968 l 731 968 l 731 936 z m 804 936 l 804 865 l 857 865 l 857 833 l 804 833 l 804 628 l 886 628 l 886 596 l 744 596 l 744 968 l 886 968 l 886 936 z m 390 483 l 343 483 l 343 143 l 283 143 l 283 483 l 236 483 l 236 515 l 390 515 z m 475 392 l 463 392 l 463 143 l 401 143 l 401 515 l 496 515 b 567 454 536 515 567 499 b 522 396 567 419 549 401 l 575 143 l 504 143 z m 463 411 b 496 449 486 411 496 422 b 463 485 496 474 486 485 z m 590 143 l 590 515 l 651 515 l 651 143 z m 776 288 l 750 288 l 739 143 l 668 143 l 707 515 l 818 515 l 857 143 l 786 143 z m 775 313 l 765 454 l 761 454 l 751 313 z m 1015 175 l 1015 143 l 874 143 l 874 515 l 935 515 l 935 175 z m 271 7 b 271 4 271 6 271 4 b 276 -1 271 0 274 -1 b 283 0 279 -1 282 -1 l 286 -12 b 272 -15 282 -15 276 -15 b 254 1 261 -15 254 -10 b 256 7 254 3 254 4 l 260 31 l 251 31 l 253 44 l 263 44 l 265 60 l 281 60 l 278 44 l 292 44 l 290 31 l 276 31 z m 360 46 l 322 -19 b 297 -37 314 -33 308 -37 b 282 -32 292 -37 285 -36 l 289 -19 b 299 -24 292 -22 294 -24 b 308 -17 303 -24 306 -21 l 310 -15 l 296 46 l 313 46 l 321 4 l 344 46 z m 422 19 b 392 -15 422 -1 408 -15 b 374 -7 383 -15 376 -12 l 368 -37 l 351 -37 l 367 46 l 382 46 l 381 40 b 397 47 385 44 392 47 b 422 19 411 47 422 36 z m 406 18 b 393 32 406 26 401 32 b 376 13 383 32 376 24 b 389 -1 376 4 381 -1 b 406 18 399 -1 406 7 z m 486 11 l 444 11 b 458 -1 444 3 449 -1 b 474 4 464 -1 469 0 l 481 -8 b 457 -15 474 -14 465 -15 b 428 11 439 -15 428 -6 b 461 47 428 32 442 47 b 488 19 478 47 488 36 b 486 11 488 17 488 14 z m 444 21 l 472 21 b 460 33 472 29 468 33 b 444 21 453 33 447 28 z m 521 47 l 521 44 l 535 44 l 532 31 l 519 31 l 510 -15 l 494 -15 l 503 31 l 494 31 l 496 44 l 506 44 l 506 47 b 531 69 508 61 517 69 b 543 67 535 69 540 68 l 536 54 b 531 56 535 56 532 56 b 521 47 525 56 522 53 z m 600 46 l 589 -15 l 574 -15 l 574 -10 b 557 -15 569 -14 564 -15 b 533 11 544 -15 533 -6 b 564 47 533 32 546 47 b 582 38 572 47 578 43 l 583 46 z m 578 18 b 565 32 578 26 574 32 b 549 13 556 32 549 24 b 563 -1 549 4 554 -1 b 578 18 571 -1 578 7 z m 604 11 b 639 47 604 32 618 47 b 664 31 650 47 660 42 l 650 24 b 638 32 647 29 643 32 b 621 13 628 32 621 24 b 633 -1 621 4 625 -1 b 647 7 639 -1 644 1 l 660 -1 b 633 -15 654 -11 644 -15 b 604 11 615 -15 604 -6 z m 688 7 b 688 4 688 6 688 4 b 693 -1 688 0 689 -1 b 700 0 696 -1 697 -1 l 701 -12 b 688 -15 699 -15 693 -15 b 671 1 678 -15 671 -10 b 671 7 671 3 671 4 l 675 31 l 667 31 l 669 44 l 678 44 l 681 60 l 697 60 l 694 44 l 708 44 l 706 31 l 692 31 z m 710 11 b 743 47 710 32 724 47 b 772 19 761 47 772 36 b 738 -15 772 -1 758 -15 b 710 11 721 -15 710 -6 z m 756 18 b 743 32 756 26 750 32 b 726 13 733 32 726 24 b 739 -1 726 4 731 -1 b 756 18 749 -1 756 7 z m 822 47 l 819 31 b 815 31 818 31 817 31 b 799 14 807 31 800 26 l 793 -15 l 776 -15 l 788 46 l 803 46 l 801 39 b 822 47 807 44 814 47 z m 889 46 l 853 -19 b 826 -37 844 -33 838 -37 b 811 -32 821 -37 815 -36 l 819 -19 b 828 -24 821 -22 825 -24 b 838 -17 832 -24 835 -21 l 839 -15 l 826 46 l 842 46 l 850 4 l 874 46 z m 879 -6 b 890 6 879 1 885 6 b 900 -4 896 6 900 1 b 889 -15 900 -11 894 -15 b 879 -6 883 -15 879 -11 z m 910 11 b 943 47 910 32 924 47 b 968 31 956 47 964 42 l 954 24 b 942 32 953 29 947 32 b 925 13 932 32 925 24 b 939 -1 925 4 931 -1 b 953 7 944 -1 949 1 l 964 -1 b 938 -15 958 -11 949 -15 b 910 11 921 -15 910 -6 z m 969 11 b 1003 47 969 32 983 47 b 1032 19 1021 47 1032 36 b 997 -15 1032 -1 1018 -15 b 969 11 981 -15 969 -6 z m 1015 18 b 1003 32 1015 26 1011 32 b 986 13 993 32 986 24 b 999 -1 986 4 990 -1 b 1015 18 1008 -1 1015 7 z m 88 -64 l 143 -64 l 143 1019 l 88 1019 z "},"(":{"ha":1085,"x_min":0,"x_max":0,"o":"m 311 936 l 311 865 l 363 865 l 363 833 l 311 833 l 311 596 l 250 596 l 250 968 l 392 968 l 392 936 z m 474 844 l 461 844 l 461 596 l 400 596 l 400 968 l 494 968 b 565 907 535 968 565 951 b 521 847 565 872 549 854 l 574 596 l 503 596 z m 461 864 b 494 901 485 864 494 875 b 461 938 494 926 485 938 z m 650 936 l 650 865 l 703 865 l 703 833 l 650 833 l 650 628 l 731 628 l 731 596 l 589 596 l 589 968 l 731 968 l 731 936 z m 804 936 l 804 865 l 857 865 l 857 833 l 804 833 l 804 628 l 886 628 l 886 596 l 744 596 l 744 968 l 886 968 l 886 936 z m 390 483 l 343 483 l 343 143 l 283 143 l 283 483 l 236 483 l 236 515 l 390 515 z m 475 392 l 463 392 l 463 143 l 401 143 l 401 515 l 496 515 b 567 454 536 515 567 499 b 522 396 567 419 549 401 l 575 143 l 504 143 z m 463 411 b 496 449 486 411 496 422 b 463 485 496 474 486 485 z m 590 143 l 590 515 l 651 515 l 651 143 z m 776 288 l 750 288 l 739 143 l 668 143 l 707 515 l 818 515 l 857 143 l 786 143 z m 775 313 l 765 454 l 761 454 l 751 313 z m 1015 175 l 1015 143 l 874 143 l 874 515 l 935 515 l 935 175 z m 271 7 b 271 4 271 6 271 4 b 276 -1 271 0 274 -1 b 283 0 279 -1 282 -1 l 286 -12 b 272 -15 282 -15 276 -15 b 254 1 261 -15 254 -10 b 256 7 254 3 254 4 l 260 31 l 251 31 l 253 44 l 263 44 l 265 60 l 281 60 l 278 44 l 292 44 l 290 31 l 276 31 z m 360 46 l 322 -19 b 297 -37 314 -33 308 -37 b 282 -32 292 -37 285 -36 l 289 -19 b 299 -24 292 -22 294 -24 b 308 -17 303 -24 306 -21 l 310 -15 l 296 46 l 313 46 l 321 4 l 344 46 z m 422 19 b 392 -15 422 -1 408 -15 b 374 -7 383 -15 376 -12 l 368 -37 l 351 -37 l 367 46 l 382 46 l 381 40 b 397 47 385 44 392 47 b 422 19 411 47 422 36 z m 406 18 b 393 32 406 26 401 32 b 376 13 383 32 376 24 b 389 -1 376 4 381 -1 b 406 18 399 -1 406 7 z m 486 11 l 444 11 b 458 -1 444 3 449 -1 b 474 4 464 -1 469 0 l 481 -8 b 457 -15 474 -14 465 -15 b 428 11 439 -15 428 -6 b 461 47 428 32 442 47 b 488 19 478 47 488 36 b 486 11 488 17 488 14 z m 444 21 l 472 21 b 460 33 472 29 468 33 b 444 21 453 33 447 28 z m 521 47 l 521 44 l 535 44 l 532 31 l 519 31 l 510 -15 l 494 -15 l 503 31 l 494 31 l 496 44 l 506 44 l 506 47 b 531 69 508 61 517 69 b 543 67 535 69 540 68 l 536 54 b 531 56 535 56 532 56 b 521 47 525 56 522 53 z m 600 46 l 589 -15 l 574 -15 l 574 -10 b 557 -15 569 -14 564 -15 b 533 11 544 -15 533 -6 b 564 47 533 32 546 47 b 582 38 572 47 578 43 l 583 46 z m 578 18 b 565 32 578 26 574 32 b 549 13 556 32 549 24 b 563 -1 549 4 554 -1 b 578 18 571 -1 578 7 z m 604 11 b 639 47 604 32 618 47 b 664 31 650 47 660 42 l 650 24 b 638 32 647 29 643 32 b 621 13 628 32 621 24 b 633 -1 621 4 625 -1 b 647 7 639 -1 644 1 l 660 -1 b 633 -15 654 -11 644 -15 b 604 11 615 -15 604 -6 z m 688 7 b 688 4 688 6 688 4 b 693 -1 688 0 689 -1 b 700 0 696 -1 697 -1 l 701 -12 b 688 -15 699 -15 693 -15 b 671 1 678 -15 671 -10 b 671 7 671 3 671 4 l 675 31 l 667 31 l 669 44 l 678 44 l 681 60 l 697 60 l 694 44 l 708 44 l 706 31 l 692 31 z m 710 11 b 743 47 710 32 724 47 b 772 19 761 47 772 36 b 738 -15 772 -1 758 -15 b 710 11 721 -15 710 -6 z m 756 18 b 743 32 756 26 750 32 b 726 13 733 32 726 24 b 739 -1 726 4 731 -1 b 756 18 749 -1 756 7 z m 822 47 l 819 31 b 815 31 818 31 817 31 b 799 14 807 31 800 26 l 793 -15 l 776 -15 l 788 46 l 803 46 l 801 39 b 822 47 807 44 814 47 z m 889 46 l 853 -19 b 826 -37 844 -33 838 -37 b 811 -32 821 -37 815 -36 l 819 -19 b 828 -24 821 -22 825 -24 b 838 -17 832 -24 835 -21 l 839 -15 l 826 46 l 842 46 l 850 4 l 874 46 z m 879 -6 b 890 6 879 1 885 6 b 900 -4 896 6 900 1 b 889 -15 900 -11 894 -15 b 879 -6 883 -15 879 -11 z m 910 11 b 943 47 910 32 924 47 b 968 31 956 47 964 42 l 954 24 b 942 32 953 29 947 32 b 925 13 932 32 925 24 b 939 -1 925 4 931 -1 b 953 7 944 -1 949 1 l 964 -1 b 938 -15 958 -11 949 -15 b 910 11 921 -15 910 -6 z m 969 11 b 1003 47 969 32 983 47 b 1032 19 1021 47 1032 36 b 997 -15 1032 -1 1018 -15 b 969 11 981 -15 969 -6 z m 1015 18 b 1003 32 1015 26 1011 32 b 986 13 993 32 986 24 b 999 -1 986 4 990 -1 b 1015 18 1008 -1 1015 7 z m 88 -64 l 143 -64 l 143 1019 l 88 1019 z "},")":{"ha":1085,"x_min":0,"x_max":0,"o":"m 311 936 l 311 865 l 363 865 l 363 833 l 311 833 l 311 596 l 250 596 l 250 968 l 392 968 l 392 936 z m 474 844 l 461 844 l 461 596 l 400 596 l 400 968 l 494 968 b 565 907 535 968 565 951 b 521 847 565 872 549 854 l 574 596 l 503 596 z m 461 864 b 494 901 485 864 494 875 b 461 938 494 926 485 938 z m 650 936 l 650 865 l 703 865 l 703 833 l 650 833 l 650 628 l 731 628 l 731 596 l 589 596 l 589 968 l 731 968 l 731 936 z m 804 936 l 804 865 l 857 865 l 857 833 l 804 833 l 804 628 l 886 628 l 886 596 l 744 596 l 744 968 l 886 968 l 886 936 z m 390 483 l 343 483 l 343 143 l 283 143 l 283 483 l 236 483 l 236 515 l 390 515 z m 475 392 l 463 392 l 463 143 l 401 143 l 401 515 l 496 515 b 567 454 536 515 567 499 b 522 396 567 419 549 401 l 575 143 l 504 143 z m 463 411 b 496 449 486 411 496 422 b 463 485 496 474 486 485 z m 590 143 l 590 515 l 651 515 l 651 143 z m 776 288 l 750 288 l 739 143 l 668 143 l 707 515 l 818 515 l 857 143 l 786 143 z m 775 313 l 765 454 l 761 454 l 751 313 z m 1015 175 l 1015 143 l 874 143 l 874 515 l 935 515 l 935 175 z m 271 7 b 271 4 271 6 271 4 b 276 -1 271 0 274 -1 b 283 0 279 -1 282 -1 l 286 -12 b 272 -15 282 -15 276 -15 b 254 1 261 -15 254 -10 b 256 7 254 3 254 4 l 260 31 l 251 31 l 253 44 l 263 44 l 265 60 l 281 60 l 278 44 l 292 44 l 290 31 l 276 31 z m 360 46 l 322 -19 b 297 -37 314 -33 308 -37 b 282 -32 292 -37 285 -36 l 289 -19 b 299 -24 292 -22 294 -24 b 308 -17 303 -24 306 -21 l 310 -15 l 296 46 l 313 46 l 321 4 l 344 46 z m 422 19 b 392 -15 422 -1 408 -15 b 374 -7 383 -15 376 -12 l 368 -37 l 351 -37 l 367 46 l 382 46 l 381 40 b 397 47 385 44 392 47 b 422 19 411 47 422 36 z m 406 18 b 393 32 406 26 401 32 b 376 13 383 32 376 24 b 389 -1 376 4 381 -1 b 406 18 399 -1 406 7 z m 486 11 l 444 11 b 458 -1 444 3 449 -1 b 474 4 464 -1 469 0 l 481 -8 b 457 -15 474 -14 465 -15 b 428 11 439 -15 428 -6 b 461 47 428 32 442 47 b 488 19 478 47 488 36 b 486 11 488 17 488 14 z m 444 21 l 472 21 b 460 33 472 29 468 33 b 444 21 453 33 447 28 z m 521 47 l 521 44 l 535 44 l 532 31 l 519 31 l 510 -15 l 494 -15 l 503 31 l 494 31 l 496 44 l 506 44 l 506 47 b 531 69 508 61 517 69 b 543 67 535 69 540 68 l 536 54 b 531 56 535 56 532 56 b 521 47 525 56 522 53 z m 600 46 l 589 -15 l 574 -15 l 574 -10 b 557 -15 569 -14 564 -15 b 533 11 544 -15 533 -6 b 564 47 533 32 546 47 b 582 38 572 47 578 43 l 583 46 z m 578 18 b 565 32 578 26 574 32 b 549 13 556 32 549 24 b 563 -1 549 4 554 -1 b 578 18 571 -1 578 7 z m 604 11 b 639 47 604 32 618 47 b 664 31 650 47 660 42 l 650 24 b 638 32 647 29 643 32 b 621 13 628 32 621 24 b 633 -1 621 4 625 -1 b 647 7 639 -1 644 1 l 660 -1 b 633 -15 654 -11 644 -15 b 604 11 615 -15 604 -6 z m 688 7 b 688 4 688 6 688 4 b 693 -1 688 0 689 -1 b 700 0 696 -1 697 -1 l 701 -12 b 688 -15 699 -15 693 -15 b 671 1 678 -15 671 -10 b 671 7 671 3 671 4 l 675 31 l 667 31 l 669 44 l 678 44 l 681 60 l 697 60 l 694 44 l 708 44 l 706 31 l 692 31 z m 710 11 b 743 47 710 32 724 47 b 772 19 761 47 772 36 b 738 -15 772 -1 758 -15 b 710 11 721 -15 710 -6 z m 756 18 b 743 32 756 26 750 32 b 726 13 733 32 726 24 b 739 -1 726 4 731 -1 b 756 18 749 -1 756 7 z m 822 47 l 819 31 b 815 31 818 31 817 31 b 799 14 807 31 800 26 l 793 -15 l 776 -15 l 788 46 l 803 46 l 801 39 b 822 47 807 44 814 47 z m 889 46 l 853 -19 b 826 -37 844 -33 838 -37 b 811 -32 821 -37 815 -36 l 819 -19 b 828 -24 821 -22 825 -24 b 838 -17 832 -24 835 -21 l 839 -15 l 826 46 l 842 46 l 850 4 l 874 46 z m 879 -6 b 890 6 879 1 885 6 b 900 -4 896 6 900 1 b 889 -15 900 -11 894 -15 b 879 -6 883 -15 879 -11 z m 910 11 b 943 47 910 32 924 47 b 968 31 956 47 964 42 l 954 24 b 942 32 953 29 947 32 b 925 13 932 32 925 24 b 939 -1 925 4 931 -1 b 953 7 944 -1 949 1 l 964 -1 b 938 -15 958 -11 949 -15 b 910 11 921 -15 910 -6 z m 969 11 b 1003 47 969 32 983 47 b 1032 19 1021 47 1032 36 b 997 -15 1032 -1 1018 -15 b 969 11 981 -15 969 -6 z m 1015 18 b 1003 32 1015 26 1011 32 b 986 13 993 32 986 24 b 999 -1 986 4 990 -1 b 1015 18 1008 -1 1015 7 z m 88 -64 l 143 -64 l 143 1019 l 88 1019 z "},"*":{"ha":1085,"x_min":0,"x_max":0,"o":"m 311 936 l 311 865 l 363 865 l 363 833 l 311 833 l 311 596 l 250 596 l 250 968 l 392 968 l 392 936 z m 474 844 l 461 844 l 461 596 l 400 596 l 400 968 l 494 968 b 565 907 535 968 565 951 b 521 847 565 872 549 854 l 574 596 l 503 596 z m 461 864 b 494 901 485 864 494 875 b 461 938 494 926 485 938 z m 650 936 l 650 865 l 703 865 l 703 833 l 650 833 l 650 628 l 731 628 l 731 596 l 589 596 l 589 968 l 731 968 l 731 936 z m 804 936 l 804 865 l 857 865 l 857 833 l 804 833 l 804 628 l 886 628 l 886 596 l 744 596 l 744 968 l 886 968 l 886 936 z m 390 483 l 343 483 l 343 143 l 283 143 l 283 483 l 236 483 l 236 515 l 390 515 z m 475 392 l 463 392 l 463 143 l 401 143 l 401 515 l 496 515 b 567 454 536 515 567 499 b 522 396 567 419 549 401 l 575 143 l 504 143 z m 463 411 b 496 449 486 411 496 422 b 463 485 496 474 486 485 z m 590 143 l 590 515 l 651 515 l 651 143 z m 776 288 l 750 288 l 739 143 l 668 143 l 707 515 l 818 515 l 857 143 l 786 143 z m 775 313 l 765 454 l 761 454 l 751 313 z m 1015 175 l 1015 143 l 874 143 l 874 515 l 935 515 l 935 175 z m 271 7 b 271 4 271 6 271 4 b 276 -1 271 0 274 -1 b 283 0 279 -1 282 -1 l 286 -12 b 272 -15 282 -15 276 -15 b 254 1 261 -15 254 -10 b 256 7 254 3 254 4 l 260 31 l 251 31 l 253 44 l 263 44 l 265 60 l 281 60 l 278 44 l 292 44 l 290 31 l 276 31 z m 360 46 l 322 -19 b 297 -37 314 -33 308 -37 b 282 -32 292 -37 285 -36 l 289 -19 b 299 -24 292 -22 294 -24 b 308 -17 303 -24 306 -21 l 310 -15 l 296 46 l 313 46 l 321 4 l 344 46 z m 422 19 b 392 -15 422 -1 408 -15 b 374 -7 383 -15 376 -12 l 368 -37 l 351 -37 l 367 46 l 382 46 l 381 40 b 397 47 385 44 392 47 b 422 19 411 47 422 36 z m 406 18 b 393 32 406 26 401 32 b 376 13 383 32 376 24 b 389 -1 376 4 381 -1 b 406 18 399 -1 406 7 z m 486 11 l 444 11 b 458 -1 444 3 449 -1 b 474 4 464 -1 469 0 l 481 -8 b 457 -15 474 -14 465 -15 b 428 11 439 -15 428 -6 b 461 47 428 32 442 47 b 488 19 478 47 488 36 b 486 11 488 17 488 14 z m 444 21 l 472 21 b 460 33 472 29 468 33 b 444 21 453 33 447 28 z m 521 47 l 521 44 l 535 44 l 532 31 l 519 31 l 510 -15 l 494 -15 l 503 31 l 494 31 l 496 44 l 506 44 l 506 47 b 531 69 508 61 517 69 b 543 67 535 69 540 68 l 536 54 b 531 56 535 56 532 56 b 521 47 525 56 522 53 z m 600 46 l 589 -15 l 574 -15 l 574 -10 b 557 -15 569 -14 564 -15 b 533 11 544 -15 533 -6 b 564 47 533 32 546 47 b 582 38 572 47 578 43 l 583 46 z m 578 18 b 565 32 578 26 574 32 b 549 13 556 32 549 24 b 563 -1 549 4 554 -1 b 578 18 571 -1 578 7 z m 604 11 b 639 47 604 32 618 47 b 664 31 650 47 660 42 l 650 24 b 638 32 647 29 643 32 b 621 13 628 32 621 24 b 633 -1 621 4 625 -1 b 647 7 639 -1 644 1 l 660 -1 b 633 -15 654 -11 644 -15 b 604 11 615 -15 604 -6 z m 688 7 b 688 4 688 6 688 4 b 693 -1 688 0 689 -1 b 700 0 696 -1 697 -1 l 701 -12 b 688 -15 699 -15 693 -15 b 671 1 678 -15 671 -10 b 671 7 671 3 671 4 l 675 31 l 667 31 l 669 44 l 678 44 l 681 60 l 697 60 l 694 44 l 708 44 l 706 31 l 692 31 z m 710 11 b 743 47 710 32 724 47 b 772 19 761 47 772 36 b 738 -15 772 -1 758 -15 b 710 11 721 -15 710 -6 z m 756 18 b 743 32 756 26 750 32 b 726 13 733 32 726 24 b 739 -1 726 4 731 -1 b 756 18 749 -1 756 7 z m 822 47 l 819 31 b 815 31 818 31 817 31 b 799 14 807 31 800 26 l 793 -15 l 776 -15 l 788 46 l 803 46 l 801 39 b 822 47 807 44 814 47 z m 889 46 l 853 -19 b 826 -37 844 -33 838 -37 b 811 -32 821 -37 815 -36 l 819 -19 b 828 -24 821 -22 825 -24 b 838 -17 832 -24 835 -21 l 839 -15 l 826 46 l 842 46 l 850 4 l 874 46 z m 879 -6 b 890 6 879 1 885 6 b 900 -4 896 6 900 1 b 889 -15 900 -11 894 -15 b 879 -6 883 -15 879 -11 z m 910 11 b 943 47 910 32 924 47 b 968 31 956 47 964 42 l 954 24 b 942 32 953 29 947 32 b 925 13 932 32 925 24 b 939 -1 925 4 931 -1 b 953 7 944 -1 949 1 l 964 -1 b 938 -15 958 -11 949 -15 b 910 11 921 -15 910 -6 z m 969 11 b 1003 47 969 32 983 47 b 1032 19 1021 47 1032 36 b 997 -15 1032 -1 1018 -15 b 969 11 981 -15 969 -6 z m 1015 18 b 1003 32 1015 26 1011 32 b 986 13 993 32 986 24 b 999 -1 986 4 990 -1 b 1015 18 1008 -1 1015 7 z m 88 -64 l 143 -64 l 143 1019 l 88 1019 z "},"+":{"ha":1085,"x_min":0,"x_max":0,"o":"m 311 936 l 311 865 l 363 865 l 363 833 l 311 833 l 311 596 l 250 596 l 250 968 l 392 968 l 392 936 z m 474 844 l 461 844 l 461 596 l 400 596 l 400 968 l 494 968 b 565 907 535 968 565 951 b 521 847 565 872 549 854 l 574 596 l 503 596 z m 461 864 b 494 901 485 864 494 875 b 461 938 494 926 485 938 z m 650 936 l 650 865 l 703 865 l 703 833 l 650 833 l 650 628 l 731 628 l 731 596 l 589 596 l 589 968 l 731 968 l 731 936 z m 804 936 l 804 865 l 857 865 l 857 833 l 804 833 l 804 628 l 886 628 l 886 596 l 744 596 l 744 968 l 886 968 l 886 936 z m 390 483 l 343 483 l 343 143 l 283 143 l 283 483 l 236 483 l 236 515 l 390 515 z m 475 392 l 463 392 l 463 143 l 401 143 l 401 515 l 496 515 b 567 454 536 515 567 499 b 522 396 567 419 549 401 l 575 143 l 504 143 z m 463 411 b 496 449 486 411 496 422 b 463 485 496 474 486 485 z m 590 143 l 590 515 l 651 515 l 651 143 z m 776 288 l 750 288 l 739 143 l 668 143 l 707 515 l 818 515 l 857 143 l 786 143 z m 775 313 l 765 454 l 761 454 l 751 313 z m 1015 175 l 1015 143 l 874 143 l 874 515 l 935 515 l 935 175 z m 271 7 b 271 4 271 6 271 4 b 276 -1 271 0 274 -1 b 283 0 279 -1 282 -1 l 286 -12 b 272 -15 282 -15 276 -15 b 254 1 261 -15 254 -10 b 256 7 254 3 254 4 l 260 31 l 251 31 l 253 44 l 263 44 l 265 60 l 281 60 l 278 44 l 292 44 l 290 31 l 276 31 z m 360 46 l 322 -19 b 297 -37 314 -33 308 -37 b 282 -32 292 -37 285 -36 l 289 -19 b 299 -24 292 -22 294 -24 b 308 -17 303 -24 306 -21 l 310 -15 l 296 46 l 313 46 l 321 4 l 344 46 z m 422 19 b 392 -15 422 -1 408 -15 b 374 -7 383 -15 376 -12 l 368 -37 l 351 -37 l 367 46 l 382 46 l 381 40 b 397 47 385 44 392 47 b 422 19 411 47 422 36 z m 406 18 b 393 32 406 26 401 32 b 376 13 383 32 376 24 b 389 -1 376 4 381 -1 b 406 18 399 -1 406 7 z m 486 11 l 444 11 b 458 -1 444 3 449 -1 b 474 4 464 -1 469 0 l 481 -8 b 457 -15 474 -14 465 -15 b 428 11 439 -15 428 -6 b 461 47 428 32 442 47 b 488 19 478 47 488 36 b 486 11 488 17 488 14 z m 444 21 l 472 21 b 460 33 472 29 468 33 b 444 21 453 33 447 28 z m 521 47 l 521 44 l 535 44 l 532 31 l 519 31 l 510 -15 l 494 -15 l 503 31 l 494 31 l 496 44 l 506 44 l 506 47 b 531 69 508 61 517 69 b 543 67 535 69 540 68 l 536 54 b 531 56 535 56 532 56 b 521 47 525 56 522 53 z m 600 46 l 589 -15 l 574 -15 l 574 -10 b 557 -15 569 -14 564 -15 b 533 11 544 -15 533 -6 b 564 47 533 32 546 47 b 582 38 572 47 578 43 l 583 46 z m 578 18 b 565 32 578 26 574 32 b 549 13 556 32 549 24 b 563 -1 549 4 554 -1 b 578 18 571 -1 578 7 z m 604 11 b 639 47 604 32 618 47 b 664 31 650 47 660 42 l 650 24 b 638 32 647 29 643 32 b 621 13 628 32 621 24 b 633 -1 621 4 625 -1 b 647 7 639 -1 644 1 l 660 -1 b 633 -15 654 -11 644 -15 b 604 11 615 -15 604 -6 z m 688 7 b 688 4 688 6 688 4 b 693 -1 688 0 689 -1 b 700 0 696 -1 697 -1 l 701 -12 b 688 -15 699 -15 693 -15 b 671 1 678 -15 671 -10 b 671 7 671 3 671 4 l 675 31 l 667 31 l 669 44 l 678 44 l 681 60 l 697 60 l 694 44 l 708 44 l 706 31 l 692 31 z m 710 11 b 743 47 710 32 724 47 b 772 19 761 47 772 36 b 738 -15 772 -1 758 -15 b 710 11 721 -15 710 -6 z m 756 18 b 743 32 756 26 750 32 b 726 13 733 32 726 24 b 739 -1 726 4 731 -1 b 756 18 749 -1 756 7 z m 822 47 l 819 31 b 815 31 818 31 817 31 b 799 14 807 31 800 26 l 793 -15 l 776 -15 l 788 46 l 803 46 l 801 39 b 822 47 807 44 814 47 z m 889 46 l 853 -19 b 826 -37 844 -33 838 -37 b 811 -32 821 -37 815 -36 l 819 -19 b 828 -24 821 -22 825 -24 b 838 -17 832 -24 835 -21 l 839 -15 l 826 46 l 842 46 l 850 4 l 874 46 z m 879 -6 b 890 6 879 1 885 6 b 900 -4 896 6 900 1 b 889 -15 900 -11 894 -15 b 879 -6 883 -15 879 -11 z m 910 11 b 943 47 910 32 924 47 b 968 31 956 47 964 42 l 954 24 b 942 32 953 29 947 32 b 925 13 932 32 925 24 b 939 -1 925 4 931 -1 b 953 7 944 -1 949 1 l 964 -1 b 938 -15 958 -11 949 -15 b 910 11 921 -15 910 -6 z m 969 11 b 1003 47 969 32 983 47 b 1032 19 1021 47 1032 36 b 997 -15 1032 -1 1018 -15 b 969 11 981 -15 969 -6 z m 1015 18 b 1003 32 1015 26 1011 32 b 986 13 993 32 986 24 b 999 -1 986 4 990 -1 b 1015 18 1008 -1 1015 7 z m 88 -64 l 143 -64 l 143 1019 l 88 1019 z "},",":{"ha":115,"x_min":0,"x_max":0,"o":"m 40 -200 b 13 -132 18 -185 8 -150 b 25 -106 15 -118 21 -110 b 28 -101 25 -104 26 -103 l 29 -100 l 28 -100 b 42 -81 33 -94 39 -87 b 4 8 58 -44 38 -6 b -87 -36 -29 24 -71 0 b -53 -122 -104 -72 -86 -108 b -44 -125 -50 -124 -47 -125 b 19 -232 -76 -214 7 -181 b -42 -271 29 -276 -14 -290 b -72 -169 -82 -243 -72 -169 b -135 -258 -121 -208 -135 -258 b 33 -297 -115 -289 -15 -332 b 40 -200 83 -262 65 -215 z "},"-":{"ha":1085,"x_min":0,"x_max":0,"o":"m 311 936 l 311 865 l 363 865 l 363 833 l 311 833 l 311 596 l 250 596 l 250 968 l 392 968 l 392 936 z m 474 844 l 461 844 l 461 596 l 400 596 l 400 968 l 494 968 b 565 907 535 968 565 951 b 521 847 565 872 549 854 l 574 596 l 503 596 z m 461 864 b 494 901 485 864 494 875 b 461 938 494 926 485 938 z m 650 936 l 650 865 l 703 865 l 703 833 l 650 833 l 650 628 l 731 628 l 731 596 l 589 596 l 589 968 l 731 968 l 731 936 z m 804 936 l 804 865 l 857 865 l 857 833 l 804 833 l 804 628 l 886 628 l 886 596 l 744 596 l 744 968 l 886 968 l 886 936 z m 390 483 l 343 483 l 343 143 l 283 143 l 283 483 l 236 483 l 236 515 l 390 515 z m 475 392 l 463 392 l 463 143 l 401 143 l 401 515 l 496 515 b 567 454 536 515 567 499 b 522 396 567 419 549 401 l 575 143 l 504 143 z m 463 411 b 496 449 486 411 496 422 b 463 485 496 474 486 485 z m 590 143 l 590 515 l 651 515 l 651 143 z m 776 288 l 750 288 l 739 143 l 668 143 l 707 515 l 818 515 l 857 143 l 786 143 z m 775 313 l 765 454 l 761 454 l 751 313 z m 1015 175 l 1015 143 l 874 143 l 874 515 l 935 515 l 935 175 z m 271 7 b 271 4 271 6 271 4 b 276 -1 271 0 274 -1 b 283 0 279 -1 282 -1 l 286 -12 b 272 -15 282 -15 276 -15 b 254 1 261 -15 254 -10 b 256 7 254 3 254 4 l 260 31 l 251 31 l 253 44 l 263 44 l 265 60 l 281 60 l 278 44 l 292 44 l 290 31 l 276 31 z m 360 46 l 322 -19 b 297 -37 314 -33 308 -37 b 282 -32 292 -37 285 -36 l 289 -19 b 299 -24 292 -22 294 -24 b 308 -17 303 -24 306 -21 l 310 -15 l 296 46 l 313 46 l 321 4 l 344 46 z m 422 19 b 392 -15 422 -1 408 -15 b 374 -7 383 -15 376 -12 l 368 -37 l 351 -37 l 367 46 l 382 46 l 381 40 b 397 47 385 44 392 47 b 422 19 411 47 422 36 z m 406 18 b 393 32 406 26 401 32 b 376 13 383 32 376 24 b 389 -1 376 4 381 -1 b 406 18 399 -1 406 7 z m 486 11 l 444 11 b 458 -1 444 3 449 -1 b 474 4 464 -1 469 0 l 481 -8 b 457 -15 474 -14 465 -15 b 428 11 439 -15 428 -6 b 461 47 428 32 442 47 b 488 19 478 47 488 36 b 486 11 488 17 488 14 z m 444 21 l 472 21 b 460 33 472 29 468 33 b 444 21 453 33 447 28 z m 521 47 l 521 44 l 535 44 l 532 31 l 519 31 l 510 -15 l 494 -15 l 503 31 l 494 31 l 496 44 l 506 44 l 506 47 b 531 69 508 61 517 69 b 543 67 535 69 540 68 l 536 54 b 531 56 535 56 532 56 b 521 47 525 56 522 53 z m 600 46 l 589 -15 l 574 -15 l 574 -10 b 557 -15 569 -14 564 -15 b 533 11 544 -15 533 -6 b 564 47 533 32 546 47 b 582 38 572 47 578 43 l 583 46 z m 578 18 b 565 32 578 26 574 32 b 549 13 556 32 549 24 b 563 -1 549 4 554 -1 b 578 18 571 -1 578 7 z m 604 11 b 639 47 604 32 618 47 b 664 31 650 47 660 42 l 650 24 b 638 32 647 29 643 32 b 621 13 628 32 621 24 b 633 -1 621 4 625 -1 b 647 7 639 -1 644 1 l 660 -1 b 633 -15 654 -11 644 -15 b 604 11 615 -15 604 -6 z m 688 7 b 688 4 688 6 688 4 b 693 -1 688 0 689 -1 b 700 0 696 -1 697 -1 l 701 -12 b 688 -15 699 -15 693 -15 b 671 1 678 -15 671 -10 b 671 7 671 3 671 4 l 675 31 l 667 31 l 669 44 l 678 44 l 681 60 l 697 60 l 694 44 l 708 44 l 706 31 l 692 31 z m 710 11 b 743 47 710 32 724 47 b 772 19 761 47 772 36 b 738 -15 772 -1 758 -15 b 710 11 721 -15 710 -6 z m 756 18 b 743 32 756 26 750 32 b 726 13 733 32 726 24 b 739 -1 726 4 731 -1 b 756 18 749 -1 756 7 z m 822 47 l 819 31 b 815 31 818 31 817 31 b 799 14 807 31 800 26 l 793 -15 l 776 -15 l 788 46 l 803 46 l 801 39 b 822 47 807 44 814 47 z m 889 46 l 853 -19 b 826 -37 844 -33 838 -37 b 811 -32 821 -37 815 -36 l 819 -19 b 828 -24 821 -22 825 -24 b 838 -17 832 -24 835 -21 l 839 -15 l 826 46 l 842 46 l 850 4 l 874 46 z m 879 -6 b 890 6 879 1 885 6 b 900 -4 896 6 900 1 b 889 -15 900 -11 894 -15 b 879 -6 883 -15 879 -11 z m 910 11 b 943 47 910 32 924 47 b 968 31 956 47 964 42 l 954 24 b 942 32 953 29 947 32 b 925 13 932 32 925 24 b 939 -1 925 4 931 -1 b 953 7 944 -1 949 1 l 964 -1 b 938 -15 958 -11 949 -15 b 910 11 921 -15 910 -6 z m 969 11 b 1003 47 969 32 983 47 b 1032 19 1021 47 1032 36 b 997 -15 1032 -1 1018 -15 b 969 11 981 -15 969 -6 z m 1015 18 b 1003 32 1015 26 1011 32 b 986 13 993 32 986 24 b 999 -1 986 4 990 -1 b 1015 18 1008 -1 1015 7 z m 88 -64 l 143 -64 l 143 1019 l 88 1019 z "},".":{"ha":115,"x_min":0,"x_max":0,"o":"m 4 8 b -87 -36 -29 24 -72 0 b -53 -124 -104 -72 -86 -108 b 42 -81 -19 -137 26 -117 b 4 8 58 -44 38 -6 z "},"/":{"ha":1085,"x_min":0,"x_max":0,"o":"m 311 936 l 311 865 l 363 865 l 363 833 l 311 833 l 311 596 l 250 596 l 250 968 l 392 968 l 392 936 z m 474 844 l 461 844 l 461 596 l 400 596 l 400 968 l 494 968 b 565 907 535 968 565 951 b 521 847 565 872 549 854 l 574 596 l 503 596 z m 461 864 b 494 901 485 864 494 875 b 461 938 494 926 485 938 z m 650 936 l 650 865 l 703 865 l 703 833 l 650 833 l 650 628 l 731 628 l 731 596 l 589 596 l 589 968 l 731 968 l 731 936 z m 804 936 l 804 865 l 857 865 l 857 833 l 804 833 l 804 628 l 886 628 l 886 596 l 744 596 l 744 968 l 886 968 l 886 936 z m 390 483 l 343 483 l 343 143 l 283 143 l 283 483 l 236 483 l 236 515 l 390 515 z m 475 392 l 463 392 l 463 143 l 401 143 l 401 515 l 496 515 b 567 454 536 515 567 499 b 522 396 567 419 549 401 l 575 143 l 504 143 z m 463 411 b 496 449 486 411 496 422 b 463 485 496 474 486 485 z m 590 143 l 590 515 l 651 515 l 651 143 z m 776 288 l 750 288 l 739 143 l 668 143 l 707 515 l 818 515 l 857 143 l 786 143 z m 775 313 l 765 454 l 761 454 l 751 313 z m 1015 175 l 1015 143 l 874 143 l 874 515 l 935 515 l 935 175 z m 271 7 b 271 4 271 6 271 4 b 276 -1 271 0 274 -1 b 283 0 279 -1 282 -1 l 286 -12 b 272 -15 282 -15 276 -15 b 254 1 261 -15 254 -10 b 256 7 254 3 254 4 l 260 31 l 251 31 l 253 44 l 263 44 l 265 60 l 281 60 l 278 44 l 292 44 l 290 31 l 276 31 z m 360 46 l 322 -19 b 297 -37 314 -33 308 -37 b 282 -32 292 -37 285 -36 l 289 -19 b 299 -24 292 -22 294 -24 b 308 -17 303 -24 306 -21 l 310 -15 l 296 46 l 313 46 l 321 4 l 344 46 z m 422 19 b 392 -15 422 -1 408 -15 b 374 -7 383 -15 376 -12 l 368 -37 l 351 -37 l 367 46 l 382 46 l 381 40 b 397 47 385 44 392 47 b 422 19 411 47 422 36 z m 406 18 b 393 32 406 26 401 32 b 376 13 383 32 376 24 b 389 -1 376 4 381 -1 b 406 18 399 -1 406 7 z m 486 11 l 444 11 b 458 -1 444 3 449 -1 b 474 4 464 -1 469 0 l 481 -8 b 457 -15 474 -14 465 -15 b 428 11 439 -15 428 -6 b 461 47 428 32 442 47 b 488 19 478 47 488 36 b 486 11 488 17 488 14 z m 444 21 l 472 21 b 460 33 472 29 468 33 b 444 21 453 33 447 28 z m 521 47 l 521 44 l 535 44 l 532 31 l 519 31 l 510 -15 l 494 -15 l 503 31 l 494 31 l 496 44 l 506 44 l 506 47 b 531 69 508 61 517 69 b 543 67 535 69 540 68 l 536 54 b 531 56 535 56 532 56 b 521 47 525 56 522 53 z m 600 46 l 589 -15 l 574 -15 l 574 -10 b 557 -15 569 -14 564 -15 b 533 11 544 -15 533 -6 b 564 47 533 32 546 47 b 582 38 572 47 578 43 l 583 46 z m 578 18 b 565 32 578 26 574 32 b 549 13 556 32 549 24 b 563 -1 549 4 554 -1 b 578 18 571 -1 578 7 z m 604 11 b 639 47 604 32 618 47 b 664 31 650 47 660 42 l 650 24 b 638 32 647 29 643 32 b 621 13 628 32 621 24 b 633 -1 621 4 625 -1 b 647 7 639 -1 644 1 l 660 -1 b 633 -15 654 -11 644 -15 b 604 11 615 -15 604 -6 z m 688 7 b 688 4 688 6 688 4 b 693 -1 688 0 689 -1 b 700 0 696 -1 697 -1 l 701 -12 b 688 -15 699 -15 693 -15 b 671 1 678 -15 671 -10 b 671 7 671 3 671 4 l 675 31 l 667 31 l 669 44 l 678 44 l 681 60 l 697 60 l 694 44 l 708 44 l 706 31 l 692 31 z m 710 11 b 743 47 710 32 724 47 b 772 19 761 47 772 36 b 738 -15 772 -1 758 -15 b 710 11 721 -15 710 -6 z m 756 18 b 743 32 756 26 750 32 b 726 13 733 32 726 24 b 739 -1 726 4 731 -1 b 756 18 749 -1 756 7 z m 822 47 l 819 31 b 815 31 818 31 817 31 b 799 14 807 31 800 26 l 793 -15 l 776 -15 l 788 46 l 803 46 l 801 39 b 822 47 807 44 814 47 z m 889 46 l 853 -19 b 826 -37 844 -33 838 -37 b 811 -32 821 -37 815 -36 l 819 -19 b 828 -24 821 -22 825 -24 b 838 -17 832 -24 835 -21 l 839 -15 l 826 46 l 842 46 l 850 4 l 874 46 z m 879 -6 b 890 6 879 1 885 6 b 900 -4 896 6 900 1 b 889 -15 900 -11 894 -15 b 879 -6 883 -15 879 -11 z m 910 11 b 943 47 910 32 924 47 b 968 31 956 47 964 42 l 954 24 b 942 32 953 29 947 32 b 925 13 932 32 925 24 b 939 -1 925 4 931 -1 b 953 7 944 -1 949 1 l 964 -1 b 938 -15 958 -11 949 -15 b 910 11 921 -15 910 -6 z m 969 11 b 1003 47 969 32 983 47 b 1032 19 1021 47 1032 36 b 997 -15 1032 -1 1018 -15 b 969 11 981 -15 969 -6 z m 1015 18 b 1003 32 1015 26 1011 32 b 986 13 993 32 986 24 b 999 -1 986 4 990 -1 b 1015 18 1008 -1 1015 7 z m 88 -64 l 143 -64 l 143 1019 l 88 1019 z "},":":{"ha":1085,"x_min":0,"x_max":0,"o":"m 311 936 l 311 865 l 363 865 l 363 833 l 311 833 l 311 596 l 250 596 l 250 968 l 392 968 l 392 936 z m 474 844 l 461 844 l 461 596 l 400 596 l 400 968 l 494 968 b 565 907 535 968 565 951 b 521 847 565 872 549 854 l 574 596 l 503 596 z m 461 864 b 494 901 485 864 494 875 b 461 938 494 926 485 938 z m 650 936 l 650 865 l 703 865 l 703 833 l 650 833 l 650 628 l 731 628 l 731 596 l 589 596 l 589 968 l 731 968 l 731 936 z m 804 936 l 804 865 l 857 865 l 857 833 l 804 833 l 804 628 l 886 628 l 886 596 l 744 596 l 744 968 l 886 968 l 886 936 z m 390 483 l 343 483 l 343 143 l 283 143 l 283 483 l 236 483 l 236 515 l 390 515 z m 475 392 l 463 392 l 463 143 l 401 143 l 401 515 l 496 515 b 567 454 536 515 567 499 b 522 396 567 419 549 401 l 575 143 l 504 143 z m 463 411 b 496 449 486 411 496 422 b 463 485 496 474 486 485 z m 590 143 l 590 515 l 651 515 l 651 143 z m 776 288 l 750 288 l 739 143 l 668 143 l 707 515 l 818 515 l 857 143 l 786 143 z m 775 313 l 765 454 l 761 454 l 751 313 z m 1015 175 l 1015 143 l 874 143 l 874 515 l 935 515 l 935 175 z m 271 7 b 271 4 271 6 271 4 b 276 -1 271 0 274 -1 b 283 0 279 -1 282 -1 l 286 -12 b 272 -15 282 -15 276 -15 b 254 1 261 -15 254 -10 b 256 7 254 3 254 4 l 260 31 l 251 31 l 253 44 l 263 44 l 265 60 l 281 60 l 278 44 l 292 44 l 290 31 l 276 31 z m 360 46 l 322 -19 b 297 -37 314 -33 308 -37 b 282 -32 292 -37 285 -36 l 289 -19 b 299 -24 292 -22 294 -24 b 308 -17 303 -24 306 -21 l 310 -15 l 296 46 l 313 46 l 321 4 l 344 46 z m 422 19 b 392 -15 422 -1 408 -15 b 374 -7 383 -15 376 -12 l 368 -37 l 351 -37 l 367 46 l 382 46 l 381 40 b 397 47 385 44 392 47 b 422 19 411 47 422 36 z m 406 18 b 393 32 406 26 401 32 b 376 13 383 32 376 24 b 389 -1 376 4 381 -1 b 406 18 399 -1 406 7 z m 486 11 l 444 11 b 458 -1 444 3 449 -1 b 474 4 464 -1 469 0 l 481 -8 b 457 -15 474 -14 465 -15 b 428 11 439 -15 428 -6 b 461 47 428 32 442 47 b 488 19 478 47 488 36 b 486 11 488 17 488 14 z m 444 21 l 472 21 b 460 33 472 29 468 33 b 444 21 453 33 447 28 z m 521 47 l 521 44 l 535 44 l 532 31 l 519 31 l 510 -15 l 494 -15 l 503 31 l 494 31 l 496 44 l 506 44 l 506 47 b 531 69 508 61 517 69 b 543 67 535 69 540 68 l 536 54 b 531 56 535 56 532 56 b 521 47 525 56 522 53 z m 600 46 l 589 -15 l 574 -15 l 574 -10 b 557 -15 569 -14 564 -15 b 533 11 544 -15 533 -6 b 564 47 533 32 546 47 b 582 38 572 47 578 43 l 583 46 z m 578 18 b 565 32 578 26 574 32 b 549 13 556 32 549 24 b 563 -1 549 4 554 -1 b 578 18 571 -1 578 7 z m 604 11 b 639 47 604 32 618 47 b 664 31 650 47 660 42 l 650 24 b 638 32 647 29 643 32 b 621 13 628 32 621 24 b 633 -1 621 4 625 -1 b 647 7 639 -1 644 1 l 660 -1 b 633 -15 654 -11 644 -15 b 604 11 615 -15 604 -6 z m 688 7 b 688 4 688 6 688 4 b 693 -1 688 0 689 -1 b 700 0 696 -1 697 -1 l 701 -12 b 688 -15 699 -15 693 -15 b 671 1 678 -15 671 -10 b 671 7 671 3 671 4 l 675 31 l 667 31 l 669 44 l 678 44 l 681 60 l 697 60 l 694 44 l 708 44 l 706 31 l 692 31 z m 710 11 b 743 47 710 32 724 47 b 772 19 761 47 772 36 b 738 -15 772 -1 758 -15 b 710 11 721 -15 710 -6 z m 756 18 b 743 32 756 26 750 32 b 726 13 733 32 726 24 b 739 -1 726 4 731 -1 b 756 18 749 -1 756 7 z m 822 47 l 819 31 b 815 31 818 31 817 31 b 799 14 807 31 800 26 l 793 -15 l 776 -15 l 788 46 l 803 46 l 801 39 b 822 47 807 44 814 47 z m 889 46 l 853 -19 b 826 -37 844 -33 838 -37 b 811 -32 821 -37 815 -36 l 819 -19 b 828 -24 821 -22 825 -24 b 838 -17 832 -24 835 -21 l 839 -15 l 826 46 l 842 46 l 850 4 l 874 46 z m 879 -6 b 890 6 879 1 885 6 b 900 -4 896 6 900 1 b 889 -15 900 -11 894 -15 b 879 -6 883 -15 879 -11 z m 910 11 b 943 47 910 32 924 47 b 968 31 956 47 964 42 l 954 24 b 942 32 953 29 947 32 b 925 13 932 32 925 24 b 939 -1 925 4 931 -1 b 953 7 944 -1 949 1 l 964 -1 b 938 -15 958 -11 949 -15 b 910 11 921 -15 910 -6 z m 969 11 b 1003 47 969 32 983 47 b 1032 19 1021 47 1032 36 b 997 -15 1032 -1 1018 -15 b 969 11 981 -15 969 -6 z m 1015 18 b 1003 32 1015 26 1011 32 b 986 13 993 32 986 24 b 999 -1 986 4 990 -1 b 1015 18 1008 -1 1015 7 z m 88 -64 l 143 -64 l 143 1019 l 88 1019 z "},";":{"ha":1085,"x_min":0,"x_max":0,"o":"m 311 936 l 311 865 l 363 865 l 363 833 l 311 833 l 311 596 l 250 596 l 250 968 l 392 968 l 392 936 z m 474 844 l 461 844 l 461 596 l 400 596 l 400 968 l 494 968 b 565 907 535 968 565 951 b 521 847 565 872 549 854 l 574 596 l 503 596 z m 461 864 b 494 901 485 864 494 875 b 461 938 494 926 485 938 z m 650 936 l 650 865 l 703 865 l 703 833 l 650 833 l 650 628 l 731 628 l 731 596 l 589 596 l 589 968 l 731 968 l 731 936 z m 804 936 l 804 865 l 857 865 l 857 833 l 804 833 l 804 628 l 886 628 l 886 596 l 744 596 l 744 968 l 886 968 l 886 936 z m 390 483 l 343 483 l 343 143 l 283 143 l 283 483 l 236 483 l 236 515 l 390 515 z m 475 392 l 463 392 l 463 143 l 401 143 l 401 515 l 496 515 b 567 454 536 515 567 499 b 522 396 567 419 549 401 l 575 143 l 504 143 z m 463 411 b 496 449 486 411 496 422 b 463 485 496 474 486 485 z m 590 143 l 590 515 l 651 515 l 651 143 z m 776 288 l 750 288 l 739 143 l 668 143 l 707 515 l 818 515 l 857 143 l 786 143 z m 775 313 l 765 454 l 761 454 l 751 313 z m 1015 175 l 1015 143 l 874 143 l 874 515 l 935 515 l 935 175 z m 271 7 b 271 4 271 6 271 4 b 276 -1 271 0 274 -1 b 283 0 279 -1 282 -1 l 286 -12 b 272 -15 282 -15 276 -15 b 254 1 261 -15 254 -10 b 256 7 254 3 254 4 l 260 31 l 251 31 l 253 44 l 263 44 l 265 60 l 281 60 l 278 44 l 292 44 l 290 31 l 276 31 z m 360 46 l 322 -19 b 297 -37 314 -33 308 -37 b 282 -32 292 -37 285 -36 l 289 -19 b 299 -24 292 -22 294 -24 b 308 -17 303 -24 306 -21 l 310 -15 l 296 46 l 313 46 l 321 4 l 344 46 z m 422 19 b 392 -15 422 -1 408 -15 b 374 -7 383 -15 376 -12 l 368 -37 l 351 -37 l 367 46 l 382 46 l 381 40 b 397 47 385 44 392 47 b 422 19 411 47 422 36 z m 406 18 b 393 32 406 26 401 32 b 376 13 383 32 376 24 b 389 -1 376 4 381 -1 b 406 18 399 -1 406 7 z m 486 11 l 444 11 b 458 -1 444 3 449 -1 b 474 4 464 -1 469 0 l 481 -8 b 457 -15 474 -14 465 -15 b 428 11 439 -15 428 -6 b 461 47 428 32 442 47 b 488 19 478 47 488 36 b 486 11 488 17 488 14 z m 444 21 l 472 21 b 460 33 472 29 468 33 b 444 21 453 33 447 28 z m 521 47 l 521 44 l 535 44 l 532 31 l 519 31 l 510 -15 l 494 -15 l 503 31 l 494 31 l 496 44 l 506 44 l 506 47 b 531 69 508 61 517 69 b 543 67 535 69 540 68 l 536 54 b 531 56 535 56 532 56 b 521 47 525 56 522 53 z m 600 46 l 589 -15 l 574 -15 l 574 -10 b 557 -15 569 -14 564 -15 b 533 11 544 -15 533 -6 b 564 47 533 32 546 47 b 582 38 572 47 578 43 l 583 46 z m 578 18 b 565 32 578 26 574 32 b 549 13 556 32 549 24 b 563 -1 549 4 554 -1 b 578 18 571 -1 578 7 z m 604 11 b 639 47 604 32 618 47 b 664 31 650 47 660 42 l 650 24 b 638 32 647 29 643 32 b 621 13 628 32 621 24 b 633 -1 621 4 625 -1 b 647 7 639 -1 644 1 l 660 -1 b 633 -15 654 -11 644 -15 b 604 11 615 -15 604 -6 z m 688 7 b 688 4 688 6 688 4 b 693 -1 688 0 689 -1 b 700 0 696 -1 697 -1 l 701 -12 b 688 -15 699 -15 693 -15 b 671 1 678 -15 671 -10 b 671 7 671 3 671 4 l 675 31 l 667 31 l 669 44 l 678 44 l 681 60 l 697 60 l 694 44 l 708 44 l 706 31 l 692 31 z m 710 11 b 743 47 710 32 724 47 b 772 19 761 47 772 36 b 738 -15 772 -1 758 -15 b 710 11 721 -15 710 -6 z m 756 18 b 743 32 756 26 750 32 b 726 13 733 32 726 24 b 739 -1 726 4 731 -1 b 756 18 749 -1 756 7 z m 822 47 l 819 31 b 815 31 818 31 817 31 b 799 14 807 31 800 26 l 793 -15 l 776 -15 l 788 46 l 803 46 l 801 39 b 822 47 807 44 814 47 z m 889 46 l 853 -19 b 826 -37 844 -33 838 -37 b 811 -32 821 -37 815 -36 l 819 -19 b 828 -24 821 -22 825 -24 b 838 -17 832 -24 835 -21 l 839 -15 l 826 46 l 842 46 l 850 4 l 874 46 z m 879 -6 b 890 6 879 1 885 6 b 900 -4 896 6 900 1 b 889 -15 900 -11 894 -15 b 879 -6 883 -15 879 -11 z m 910 11 b 943 47 910 32 924 47 b 968 31 956 47 964 42 l 954 24 b 942 32 953 29 947 32 b 925 13 932 32 925 24 b 939 -1 925 4 931 -1 b 953 7 944 -1 949 1 l 964 -1 b 938 -15 958 -11 949 -15 b 910 11 921 -15 910 -6 z m 969 11 b 1003 47 969 32 983 47 b 1032 19 1021 47 1032 36 b 997 -15 1032 -1 1018 -15 b 969 11 981 -15 969 -6 z m 1015 18 b 1003 32 1015 26 1011 32 b 986 13 993 32 986 24 b 999 -1 986 4 990 -1 b 1015 18 1008 -1 1015 7 z m 88 -64 l 143 -64 l 143 1019 l 88 1019 z "},"<":{"ha":1085,"x_min":0,"x_max":0,"o":"m 311 936 l 311 865 l 363 865 l 363 833 l 311 833 l 311 596 l 250 596 l 250 968 l 392 968 l 392 936 z m 474 844 l 461 844 l 461 596 l 400 596 l 400 968 l 494 968 b 565 907 535 968 565 951 b 521 847 565 872 549 854 l 574 596 l 503 596 z m 461 864 b 494 901 485 864 494 875 b 461 938 494 926 485 938 z m 650 936 l 650 865 l 703 865 l 703 833 l 650 833 l 650 628 l 731 628 l 731 596 l 589 596 l 589 968 l 731 968 l 731 936 z m 804 936 l 804 865 l 857 865 l 857 833 l 804 833 l 804 628 l 886 628 l 886 596 l 744 596 l 744 968 l 886 968 l 886 936 z m 390 483 l 343 483 l 343 143 l 283 143 l 283 483 l 236 483 l 236 515 l 390 515 z m 475 392 l 463 392 l 463 143 l 401 143 l 401 515 l 496 515 b 567 454 536 515 567 499 b 522 396 567 419 549 401 l 575 143 l 504 143 z m 463 411 b 496 449 486 411 496 422 b 463 485 496 474 486 485 z m 590 143 l 590 515 l 651 515 l 651 143 z m 776 288 l 750 288 l 739 143 l 668 143 l 707 515 l 818 515 l 857 143 l 786 143 z m 775 313 l 765 454 l 761 454 l 751 313 z m 1015 175 l 1015 143 l 874 143 l 874 515 l 935 515 l 935 175 z m 271 7 b 271 4 271 6 271 4 b 276 -1 271 0 274 -1 b 283 0 279 -1 282 -1 l 286 -12 b 272 -15 282 -15 276 -15 b 254 1 261 -15 254 -10 b 256 7 254 3 254 4 l 260 31 l 251 31 l 253 44 l 263 44 l 265 60 l 281 60 l 278 44 l 292 44 l 290 31 l 276 31 z m 360 46 l 322 -19 b 297 -37 314 -33 308 -37 b 282 -32 292 -37 285 -36 l 289 -19 b 299 -24 292 -22 294 -24 b 308 -17 303 -24 306 -21 l 310 -15 l 296 46 l 313 46 l 321 4 l 344 46 z m 422 19 b 392 -15 422 -1 408 -15 b 374 -7 383 -15 376 -12 l 368 -37 l 351 -37 l 367 46 l 382 46 l 381 40 b 397 47 385 44 392 47 b 422 19 411 47 422 36 z m 406 18 b 393 32 406 26 401 32 b 376 13 383 32 376 24 b 389 -1 376 4 381 -1 b 406 18 399 -1 406 7 z m 486 11 l 444 11 b 458 -1 444 3 449 -1 b 474 4 464 -1 469 0 l 481 -8 b 457 -15 474 -14 465 -15 b 428 11 439 -15 428 -6 b 461 47 428 32 442 47 b 488 19 478 47 488 36 b 486 11 488 17 488 14 z m 444 21 l 472 21 b 460 33 472 29 468 33 b 444 21 453 33 447 28 z m 521 47 l 521 44 l 535 44 l 532 31 l 519 31 l 510 -15 l 494 -15 l 503 31 l 494 31 l 496 44 l 506 44 l 506 47 b 531 69 508 61 517 69 b 543 67 535 69 540 68 l 536 54 b 531 56 535 56 532 56 b 521 47 525 56 522 53 z m 600 46 l 589 -15 l 574 -15 l 574 -10 b 557 -15 569 -14 564 -15 b 533 11 544 -15 533 -6 b 564 47 533 32 546 47 b 582 38 572 47 578 43 l 583 46 z m 578 18 b 565 32 578 26 574 32 b 549 13 556 32 549 24 b 563 -1 549 4 554 -1 b 578 18 571 -1 578 7 z m 604 11 b 639 47 604 32 618 47 b 664 31 650 47 660 42 l 650 24 b 638 32 647 29 643 32 b 621 13 628 32 621 24 b 633 -1 621 4 625 -1 b 647 7 639 -1 644 1 l 660 -1 b 633 -15 654 -11 644 -15 b 604 11 615 -15 604 -6 z m 688 7 b 688 4 688 6 688 4 b 693 -1 688 0 689 -1 b 700 0 696 -1 697 -1 l 701 -12 b 688 -15 699 -15 693 -15 b 671 1 678 -15 671 -10 b 671 7 671 3 671 4 l 675 31 l 667 31 l 669 44 l 678 44 l 681 60 l 697 60 l 694 44 l 708 44 l 706 31 l 692 31 z m 710 11 b 743 47 710 32 724 47 b 772 19 761 47 772 36 b 738 -15 772 -1 758 -15 b 710 11 721 -15 710 -6 z m 756 18 b 743 32 756 26 750 32 b 726 13 733 32 726 24 b 739 -1 726 4 731 -1 b 756 18 749 -1 756 7 z m 822 47 l 819 31 b 815 31 818 31 817 31 b 799 14 807 31 800 26 l 793 -15 l 776 -15 l 788 46 l 803 46 l 801 39 b 822 47 807 44 814 47 z m 889 46 l 853 -19 b 826 -37 844 -33 838 -37 b 811 -32 821 -37 815 -36 l 819 -19 b 828 -24 821 -22 825 -24 b 838 -17 832 -24 835 -21 l 839 -15 l 826 46 l 842 46 l 850 4 l 874 46 z m 879 -6 b 890 6 879 1 885 6 b 900 -4 896 6 900 1 b 889 -15 900 -11 894 -15 b 879 -6 883 -15 879 -11 z m 910 11 b 943 47 910 32 924 47 b 968 31 956 47 964 42 l 954 24 b 942 32 953 29 947 32 b 925 13 932 32 925 24 b 939 -1 925 4 931 -1 b 953 7 944 -1 949 1 l 964 -1 b 938 -15 958 -11 949 -15 b 910 11 921 -15 910 -6 z m 969 11 b 1003 47 969 32 983 47 b 1032 19 1021 47 1032 36 b 997 -15 1032 -1 1018 -15 b 969 11 981 -15 969 -6 z m 1015 18 b 1003 32 1015 26 1011 32 b 986 13 993 32 986 24 b 999 -1 986 4 990 -1 b 1015 18 1008 -1 1015 7 z m 88 -64 l 143 -64 l 143 1019 l 88 1019 z "},"=":{"ha":1085,"x_min":0,"x_max":0,"o":"m 311 936 l 311 865 l 363 865 l 363 833 l 311 833 l 311 596 l 250 596 l 250 968 l 392 968 l 392 936 z m 474 844 l 461 844 l 461 596 l 400 596 l 400 968 l 494 968 b 565 907 535 968 565 951 b 521 847 565 872 549 854 l 574 596 l 503 596 z m 461 864 b 494 901 485 864 494 875 b 461 938 494 926 485 938 z m 650 936 l 650 865 l 703 865 l 703 833 l 650 833 l 650 628 l 731 628 l 731 596 l 589 596 l 589 968 l 731 968 l 731 936 z m 804 936 l 804 865 l 857 865 l 857 833 l 804 833 l 804 628 l 886 628 l 886 596 l 744 596 l 744 968 l 886 968 l 886 936 z m 390 483 l 343 483 l 343 143 l 283 143 l 283 483 l 236 483 l 236 515 l 390 515 z m 475 392 l 463 392 l 463 143 l 401 143 l 401 515 l 496 515 b 567 454 536 515 567 499 b 522 396 567 419 549 401 l 575 143 l 504 143 z m 463 411 b 496 449 486 411 496 422 b 463 485 496 474 486 485 z m 590 143 l 590 515 l 651 515 l 651 143 z m 776 288 l 750 288 l 739 143 l 668 143 l 707 515 l 818 515 l 857 143 l 786 143 z m 775 313 l 765 454 l 761 454 l 751 313 z m 1015 175 l 1015 143 l 874 143 l 874 515 l 935 515 l 935 175 z m 271 7 b 271 4 271 6 271 4 b 276 -1 271 0 274 -1 b 283 0 279 -1 282 -1 l 286 -12 b 272 -15 282 -15 276 -15 b 254 1 261 -15 254 -10 b 256 7 254 3 254 4 l 260 31 l 251 31 l 253 44 l 263 44 l 265 60 l 281 60 l 278 44 l 292 44 l 290 31 l 276 31 z m 360 46 l 322 -19 b 297 -37 314 -33 308 -37 b 282 -32 292 -37 285 -36 l 289 -19 b 299 -24 292 -22 294 -24 b 308 -17 303 -24 306 -21 l 310 -15 l 296 46 l 313 46 l 321 4 l 344 46 z m 422 19 b 392 -15 422 -1 408 -15 b 374 -7 383 -15 376 -12 l 368 -37 l 351 -37 l 367 46 l 382 46 l 381 40 b 397 47 385 44 392 47 b 422 19 411 47 422 36 z m 406 18 b 393 32 406 26 401 32 b 376 13 383 32 376 24 b 389 -1 376 4 381 -1 b 406 18 399 -1 406 7 z m 486 11 l 444 11 b 458 -1 444 3 449 -1 b 474 4 464 -1 469 0 l 481 -8 b 457 -15 474 -14 465 -15 b 428 11 439 -15 428 -6 b 461 47 428 32 442 47 b 488 19 478 47 488 36 b 486 11 488 17 488 14 z m 444 21 l 472 21 b 460 33 472 29 468 33 b 444 21 453 33 447 28 z m 521 47 l 521 44 l 535 44 l 532 31 l 519 31 l 510 -15 l 494 -15 l 503 31 l 494 31 l 496 44 l 506 44 l 506 47 b 531 69 508 61 517 69 b 543 67 535 69 540 68 l 536 54 b 531 56 535 56 532 56 b 521 47 525 56 522 53 z m 600 46 l 589 -15 l 574 -15 l 574 -10 b 557 -15 569 -14 564 -15 b 533 11 544 -15 533 -6 b 564 47 533 32 546 47 b 582 38 572 47 578 43 l 583 46 z m 578 18 b 565 32 578 26 574 32 b 549 13 556 32 549 24 b 563 -1 549 4 554 -1 b 578 18 571 -1 578 7 z m 604 11 b 639 47 604 32 618 47 b 664 31 650 47 660 42 l 650 24 b 638 32 647 29 643 32 b 621 13 628 32 621 24 b 633 -1 621 4 625 -1 b 647 7 639 -1 644 1 l 660 -1 b 633 -15 654 -11 644 -15 b 604 11 615 -15 604 -6 z m 688 7 b 688 4 688 6 688 4 b 693 -1 688 0 689 -1 b 700 0 696 -1 697 -1 l 701 -12 b 688 -15 699 -15 693 -15 b 671 1 678 -15 671 -10 b 671 7 671 3 671 4 l 675 31 l 667 31 l 669 44 l 678 44 l 681 60 l 697 60 l 694 44 l 708 44 l 706 31 l 692 31 z m 710 11 b 743 47 710 32 724 47 b 772 19 761 47 772 36 b 738 -15 772 -1 758 -15 b 710 11 721 -15 710 -6 z m 756 18 b 743 32 756 26 750 32 b 726 13 733 32 726 24 b 739 -1 726 4 731 -1 b 756 18 749 -1 756 7 z m 822 47 l 819 31 b 815 31 818 31 817 31 b 799 14 807 31 800 26 l 793 -15 l 776 -15 l 788 46 l 803 46 l 801 39 b 822 47 807 44 814 47 z m 889 46 l 853 -19 b 826 -37 844 -33 838 -37 b 811 -32 821 -37 815 -36 l 819 -19 b 828 -24 821 -22 825 -24 b 838 -17 832 -24 835 -21 l 839 -15 l 826 46 l 842 46 l 850 4 l 874 46 z m 879 -6 b 890 6 879 1 885 6 b 900 -4 896 6 900 1 b 889 -15 900 -11 894 -15 b 879 -6 883 -15 879 -11 z m 910 11 b 943 47 910 32 924 47 b 968 31 956 47 964 42 l 954 24 b 942 32 953 29 947 32 b 925 13 932 32 925 24 b 939 -1 925 4 931 -1 b 953 7 944 -1 949 1 l 964 -1 b 938 -15 958 -11 949 -15 b 910 11 921 -15 910 -6 z m 969 11 b 1003 47 969 32 983 47 b 1032 19 1021 47 1032 36 b 997 -15 1032 -1 1018 -15 b 969 11 981 -15 969 -6 z m 1015 18 b 1003 32 1015 26 1011 32 b 986 13 993 32 986 24 b 999 -1 986 4 990 -1 b 1015 18 1008 -1 1015 7 z m 88 -64 l 143 -64 l 143 1019 l 88 1019 z "},">":{"ha":1085,"x_min":0,"x_max":0,"o":"m 311 936 l 311 865 l 363 865 l 363 833 l 311 833 l 311 596 l 250 596 l 250 968 l 392 968 l 392 936 z m 474 844 l 461 844 l 461 596 l 400 596 l 400 968 l 494 968 b 565 907 535 968 565 951 b 521 847 565 872 549 854 l 574 596 l 503 596 z m 461 864 b 494 901 485 864 494 875 b 461 938 494 926 485 938 z m 650 936 l 650 865 l 703 865 l 703 833 l 650 833 l 650 628 l 731 628 l 731 596 l 589 596 l 589 968 l 731 968 l 731 936 z m 804 936 l 804 865 l 857 865 l 857 833 l 804 833 l 804 628 l 886 628 l 886 596 l 744 596 l 744 968 l 886 968 l 886 936 z m 390 483 l 343 483 l 343 143 l 283 143 l 283 483 l 236 483 l 236 515 l 390 515 z m 475 392 l 463 392 l 463 143 l 401 143 l 401 515 l 496 515 b 567 454 536 515 567 499 b 522 396 567 419 549 401 l 575 143 l 504 143 z m 463 411 b 496 449 486 411 496 422 b 463 485 496 474 486 485 z m 590 143 l 590 515 l 651 515 l 651 143 z m 776 288 l 750 288 l 739 143 l 668 143 l 707 515 l 818 515 l 857 143 l 786 143 z m 775 313 l 765 454 l 761 454 l 751 313 z m 1015 175 l 1015 143 l 874 143 l 874 515 l 935 515 l 935 175 z m 271 7 b 271 4 271 6 271 4 b 276 -1 271 0 274 -1 b 283 0 279 -1 282 -1 l 286 -12 b 272 -15 282 -15 276 -15 b 254 1 261 -15 254 -10 b 256 7 254 3 254 4 l 260 31 l 251 31 l 253 44 l 263 44 l 265 60 l 281 60 l 278 44 l 292 44 l 290 31 l 276 31 z m 360 46 l 322 -19 b 297 -37 314 -33 308 -37 b 282 -32 292 -37 285 -36 l 289 -19 b 299 -24 292 -22 294 -24 b 308 -17 303 -24 306 -21 l 310 -15 l 296 46 l 313 46 l 321 4 l 344 46 z m 422 19 b 392 -15 422 -1 408 -15 b 374 -7 383 -15 376 -12 l 368 -37 l 351 -37 l 367 46 l 382 46 l 381 40 b 397 47 385 44 392 47 b 422 19 411 47 422 36 z m 406 18 b 393 32 406 26 401 32 b 376 13 383 32 376 24 b 389 -1 376 4 381 -1 b 406 18 399 -1 406 7 z m 486 11 l 444 11 b 458 -1 444 3 449 -1 b 474 4 464 -1 469 0 l 481 -8 b 457 -15 474 -14 465 -15 b 428 11 439 -15 428 -6 b 461 47 428 32 442 47 b 488 19 478 47 488 36 b 486 11 488 17 488 14 z m 444 21 l 472 21 b 460 33 472 29 468 33 b 444 21 453 33 447 28 z m 521 47 l 521 44 l 535 44 l 532 31 l 519 31 l 510 -15 l 494 -15 l 503 31 l 494 31 l 496 44 l 506 44 l 506 47 b 531 69 508 61 517 69 b 543 67 535 69 540 68 l 536 54 b 531 56 535 56 532 56 b 521 47 525 56 522 53 z m 600 46 l 589 -15 l 574 -15 l 574 -10 b 557 -15 569 -14 564 -15 b 533 11 544 -15 533 -6 b 564 47 533 32 546 47 b 582 38 572 47 578 43 l 583 46 z m 578 18 b 565 32 578 26 574 32 b 549 13 556 32 549 24 b 563 -1 549 4 554 -1 b 578 18 571 -1 578 7 z m 604 11 b 639 47 604 32 618 47 b 664 31 650 47 660 42 l 650 24 b 638 32 647 29 643 32 b 621 13 628 32 621 24 b 633 -1 621 4 625 -1 b 647 7 639 -1 644 1 l 660 -1 b 633 -15 654 -11 644 -15 b 604 11 615 -15 604 -6 z m 688 7 b 688 4 688 6 688 4 b 693 -1 688 0 689 -1 b 700 0 696 -1 697 -1 l 701 -12 b 688 -15 699 -15 693 -15 b 671 1 678 -15 671 -10 b 671 7 671 3 671 4 l 675 31 l 667 31 l 669 44 l 678 44 l 681 60 l 697 60 l 694 44 l 708 44 l 706 31 l 692 31 z m 710 11 b 743 47 710 32 724 47 b 772 19 761 47 772 36 b 738 -15 772 -1 758 -15 b 710 11 721 -15 710 -6 z m 756 18 b 743 32 756 26 750 32 b 726 13 733 32 726 24 b 739 -1 726 4 731 -1 b 756 18 749 -1 756 7 z m 822 47 l 819 31 b 815 31 818 31 817 31 b 799 14 807 31 800 26 l 793 -15 l 776 -15 l 788 46 l 803 46 l 801 39 b 822 47 807 44 814 47 z m 889 46 l 853 -19 b 826 -37 844 -33 838 -37 b 811 -32 821 -37 815 -36 l 819 -19 b 828 -24 821 -22 825 -24 b 838 -17 832 -24 835 -21 l 839 -15 l 826 46 l 842 46 l 850 4 l 874 46 z m 879 -6 b 890 6 879 1 885 6 b 900 -4 896 6 900 1 b 889 -15 900 -11 894 -15 b 879 -6 883 -15 879 -11 z m 910 11 b 943 47 910 32 924 47 b 968 31 956 47 964 42 l 954 24 b 942 32 953 29 947 32 b 925 13 932 32 925 24 b 939 -1 925 4 931 -1 b 953 7 944 -1 949 1 l 964 -1 b 938 -15 958 -11 949 -15 b 910 11 921 -15 910 -6 z m 969 11 b 1003 47 969 32 983 47 b 1032 19 1021 47 1032 36 b 997 -15 1032 -1 1018 -15 b 969 11 981 -15 969 -6 z m 1015 18 b 1003 32 1015 26 1011 32 b 986 13 993 32 986 24 b 999 -1 986 4 990 -1 b 1015 18 1008 -1 1015 7 z m 88 -64 l 143 -64 l 143 1019 l 88 1019 z "},"?":{"ha":742,"x_min":0,"x_max":0,"o":"m 367 8 b 275 -36 333 24 292 0 b 310 -122 260 -72 276 -108 b 406 -81 343 -137 389 -117 b 367 8 421 -44 400 -6 z m 413 421 b 726 619 593 457 719 486 b 653 792 731 685 704 747 b 56 619 539 894 60 908 b 311 519 53 447 256 479 b 364 593 376 568 364 593 b 204 665 364 593 229 579 b 544 649 151 853 547 883 b 285 419 543 564 524 515 b 186 119 72 333 153 150 b 451 72 211 97 289 1 b 490 378 606 139 550 381 b 414 217 490 378 496 265 b 233 268 346 176 229 213 b 413 421 238 310 253 388 z "},"@":{"ha":1071,"x_min":0,"x_max":0,"o":"m 694 832 b 67 507 390 894 147 704 b 67 15 -12 310 7 103 b 372 -153 138 -87 258 -117 b 460 -400 503 -194 513 -325 b 490 -394 460 -400 476 -400 b 513 -174 524 -340 522 -239 b 265 96 492 -37 375 36 b 106 474 119 176 82 369 b 532 800 131 583 294 785 b 856 569 749 813 921 732 b 878 250 789 406 800 378 b 708 85 942 143 825 44 b 719 382 550 140 678 322 b 732 646 736 406 850 550 b 385 628 614 742 385 628 l 379 519 b 471 564 379 519 419 486 b 629 667 524 642 563 686 b 682 549 675 653 700 618 b 621 517 669 540 650 529 b 349 426 515 475 457 496 b 357 121 239 356 178 140 b 564 240 475 107 535 178 b 736 36 568 132 636 40 b 1000 322 886 29 964 157 b 694 832 1036 489 999 771 z m 614 414 b 571 315 593 382 579 349 b 389 235 506 175 432 172 b 557 457 339 306 431 431 b 667 507 611 468 644 488 b 614 414 654 481 638 449 z "},"A":{"ha":899,"x_min":0,"x_max":0,"o":"m 835 54 b 810 96 831 69 819 82 b 775 154 796 114 785 133 b 742 247 761 185 751 215 b 629 728 696 406 658 565 b 607 824 624 761 618 793 b 581 872 600 840 592 857 b 278 910 513 971 357 1022 b 256 867 268 894 260 881 b 226 775 244 843 231 806 b 118 443 213 676 175 518 b -43 90 53 358 -82 196 b 288 108 -3 -17 182 -50 b 315 168 300 125 311 144 b 261 399 326 256 267 315 b 411 472 256 490 326 542 b 501 211 494 401 535 263 b 393 13 457 143 338 111 l 478 35 b 456 143 478 35 419 74 b 575 371 476 183 579 188 b 264 504 571 533 364 624 b 278 200 178 404 261 310 b 281 172 281 190 281 181 b 122 53 271 121 206 32 b 106 351 4 83 60 288 b 236 628 150 415 204 474 b 272 810 251 700 261 763 b 438 894 304 889 354 985 b 497 769 469 861 485 814 b 600 328 539 624 569 475 b 631 158 611 271 621 215 b 632 131 632 149 633 139 b 601 93 628 114 615 101 b 560 69 589 85 574 78 b 532 31 546 61 533 47 b 558 -3 531 15 542 -3 b 575 1 564 -3 569 -1 b 621 1 589 6 606 6 l 747 0 b 826 10 774 8 807 -8 b 835 54 839 21 840 40 z "},"B":{"ha":825,"x_min":0,"x_max":0,"o":"m 504 563 l 504 564 b 310 528 419 568 317 490 b 467 590 306 550 382 557 b 667 753 536 619 644 675 b 269 951 719 929 444 1004 b 136 658 89 899 82 707 b 250 682 185 613 250 682 b 306 921 218 726 206 897 b 486 781 406 946 483 908 b 288 557 489 653 401 604 b 282 288 160 503 161 350 b 467 342 368 243 467 342 b 374 450 404 374 371 421 b 486 526 379 506 461 522 b 607 400 524 528 583 510 b 568 154 622 321 607 246 b 193 122 525 50 269 -24 b 169 415 129 244 139 329 b 65 543 196 489 167 557 b 21 506 3 536 11 507 b 90 324 33 506 172 458 b 764 201 -142 -60 621 -107 b 504 563 829 340 781 579 z "},"C":{"ha":721,"x_min":0,"x_max":0,"o":"m 467 968 b 214 706 231 975 178 821 b 78 481 246 604 176 557 b 63 104 -58 375 -44 214 b 276 4 154 8 276 4 b 589 88 276 4 469 -11 b 632 325 697 178 649 293 b 651 510 617 354 543 460 b 482 418 651 510 554 522 b 446 100 386 279 521 189 b 272 38 393 38 319 36 b 97 171 250 39 126 56 b 276 426 64 299 169 374 b 339 679 368 471 425 565 b 458 921 261 782 231 942 b 547 661 667 903 547 661 b 703 742 547 661 675 692 b 467 968 731 792 674 961 z "},"D":{"ha":886,"x_min":0,"x_max":0,"o":"m 850 635 b 339 968 810 825 640 1001 b 214 686 25 932 0 764 b 242 317 413 613 360 419 l 390 271 b 399 571 390 271 468 400 b 194 797 340 715 199 693 b 583 796 190 904 368 1033 b 579 108 779 581 689 190 b 244 50 475 32 336 -3 b 207 465 81 144 172 400 b 128 657 246 538 236 651 l 31 563 b 168 532 31 563 143 581 b 113 399 192 485 149 435 b 83 74 65 350 -61 186 b 646 85 239 -47 432 -35 b 850 635 860 203 885 472 z "},"E":{"ha":982,"x_min":0,"x_max":0,"o":"m 910 910 b 757 924 846 964 757 924 l 779 836 b 911 836 779 836 838 872 b 732 715 1011 786 844 692 b 467 938 619 740 599 875 b 53 732 265 1032 3 906 b 297 363 93 592 283 486 b 313 146 306 297 307 210 b 321 86 313 146 314 118 l 321 85 b 424 0 332 38 360 -19 b 686 43 531 35 557 94 b 872 42 797 0 825 -12 b 903 181 907 81 914 146 b 882 186 897 199 882 186 b 856 89 882 186 897 111 b 669 156 807 60 721 92 b 335 164 618 219 499 290 b 374 271 339 193 349 229 b 342 593 440 389 532 535 b 160 889 153 651 15 794 b 564 700 364 1022 496 811 b 804 567 594 650 669 536 b 910 910 985 606 1000 833 z m 736 474 b 500 578 582 431 519 476 b 350 663 479 686 378 711 b 363 617 344 653 346 633 b 472 565 388 592 461 614 b 553 365 499 440 490 399 b 800 436 631 324 747 411 b 888 431 853 460 861 460 b 897 442 888 431 901 429 b 736 474 882 492 839 501 z "},"F":{"ha":1040,"x_min":0,"x_max":0,"o":"m 1085 935 b 660 1001 1013 772 843 968 b 38 715 226 1081 51 846 b 129 583 31 657 63 611 b 283 439 269 526 283 439 b 217 586 315 518 243 568 b 135 736 169 617 142 661 b 589 885 119 919 390 1043 b 1003 778 719 781 836 700 b 1085 935 1154 849 1085 935 z m 603 142 b 540 176 582 149 563 161 b 621 358 583 219 615 285 b 399 644 628 464 513 551 b 308 810 319 710 310 747 b 368 906 308 858 339 886 b 365 921 376 910 365 921 b 292 649 250 888 251 738 b 399 424 332 557 374 499 b 424 244 428 336 431 281 b 263 211 376 261 324 261 b 158 3 147 118 158 3 b 286 101 158 3 206 118 b 522 7 389 81 458 14 b 810 189 586 -1 749 -4 b 603 142 810 189 714 108 z m 1006 608 b 799 650 982 561 868 567 b 506 658 700 767 536 731 b 547 533 471 578 547 533 b 550 543 550 538 556 535 b 639 667 511 610 549 718 b 825 479 732 614 704 503 b 1011 606 929 460 1007 539 b 1006 608 1007 611 1006 608 z "},"G":{"ha":1175,"x_min":0,"x_max":0,"o":"m 557 793 b 915 793 685 700 803 693 b 1010 1043 1032 900 1010 1043 b 665 956 972 893 789 908 b 107 835 551 999 267 1011 b 154 497 -81 624 154 497 b 158 765 82 542 100 694 b 557 793 256 883 418 896 z m 1096 386 b 788 358 1011 468 882 426 b 633 471 710 303 603 376 b 782 528 654 535 726 543 b 1018 506 849 511 931 475 b 1115 769 1136 547 1150 700 b 901 665 1115 769 1069 661 b 597 379 733 671 483 551 b 899 332 696 231 789 390 b 776 157 1000 278 907 197 b 538 31 642 114 651 11 b 507 269 401 54 442 153 b 360 515 564 371 494 467 b 231 669 283 542 197 593 b 360 614 274 771 379 725 b 393 542 350 556 371 532 b 407 663 393 542 342 556 b 253 790 478 779 367 851 b 240 542 151 735 138 601 b 329 253 338 486 417 432 b 538 -44 256 103 408 -60 b 899 136 636 -33 701 156 b 1096 386 1094 115 1193 293 z "},"H":{"ha":999,"x_min":0,"x_max":0,"o":"m 825 613 b 828 963 676 765 622 869 l 822 974 b 621 576 611 903 518 753 b 372 476 444 735 335 636 b 325 536 360 496 343 517 b 128 726 244 617 178 671 b 213 896 32 833 156 954 b 324 710 268 839 219 725 b 551 799 422 694 521 772 l 544 810 b 304 938 411 769 407 844 b 72 740 201 1029 7 935 b 257 253 128 574 243 428 b 124 211 217 260 174 251 b 19 3 10 118 19 3 b 147 101 19 3 67 118 b 383 7 251 81 321 14 b 671 189 447 -1 610 -4 b 465 142 671 189 575 108 b 388 186 440 150 415 167 b 399 429 426 253 439 340 b 658 521 406 550 539 601 b 667 510 661 518 664 514 b 696 10 860 279 883 149 l 703 1 b 825 613 935 104 1093 367 z "},"I":{"ha":514,"x_min":0,"x_max":0,"o":"m 126 726 b 197 892 31 833 140 949 b 322 710 253 833 218 725 b 550 799 428 693 517 783 l 544 806 b 289 932 414 778 392 839 b 71 740 186 1024 6 935 b 257 244 136 547 243 433 b 68 89 268 101 138 -50 l 57 86 b 211 4 76 -10 142 -7 b 324 536 421 40 547 306 b 126 726 243 617 176 671 z "},"J":{"ha":649,"x_min":0,"x_max":0,"o":"m 369 888 b 483 736 418 822 403 763 b 697 814 571 707 599 806 l 697 825 b 438 946 500 813 519 907 b 211 788 293 1013 201 922 b 424 218 219 650 290 431 b 307 106 485 117 417 74 b 36 510 47 183 163 432 l 28 504 b 65 44 128 367 -181 186 b 531 407 314 -100 643 126 b 274 757 472 553 344 628 b 369 888 210 875 321 951 z "},"K":{"ha":1031,"x_min":0,"x_max":0,"o":"m 950 342 b 938 336 943 340 938 336 b 833 329 997 213 863 101 b 625 500 804 557 714 521 b 422 344 560 483 469 413 b 375 472 418 386 404 429 b 522 506 401 463 463 449 b 707 878 624 601 656 803 b 864 843 764 958 890 935 b 681 711 844 771 794 721 b 858 594 681 711 708 508 b 851 958 1010 681 992 917 b 496 726 704 1004 567 821 b 232 625 433 644 368 551 b 128 726 192 663 157 694 b 213 896 32 833 156 954 b 324 710 268 839 225 749 b 494 799 396 681 481 769 l 486 810 b 304 938 385 760 407 844 b 72 740 201 1029 7 935 b 257 251 129 574 243 426 b 124 211 219 260 176 253 b 19 3 10 118 19 3 b 147 101 19 3 67 118 b 358 7 251 81 294 14 b 597 189 422 -1 536 -4 b 439 142 597 189 550 108 b 382 175 419 149 400 161 b 421 278 401 206 415 240 b 608 390 458 354 538 425 b 647 78 692 349 600 167 b 928 71 690 -4 831 -40 b 950 342 1006 160 969 299 z "},"L":{"ha":718,"x_min":0,"x_max":0,"o":"m 678 431 b 511 197 514 489 365 264 b 572 101 629 143 643 117 b 364 164 503 85 394 143 b 319 197 354 171 339 185 b 288 531 374 283 383 403 b 118 746 219 622 160 685 b 224 904 36 864 175 968 b 310 703 271 839 217 754 b 490 769 378 665 472 743 l 483 782 b 321 932 376 746 410 826 b 64 768 231 1036 24 968 b 178 207 101 578 213 403 b 169 200 175 204 172 203 b 38 -6 31 89 38 -6 b 122 56 38 -6 58 42 b 394 -24 228 79 200 3 b 621 225 590 -50 719 65 b 678 431 524 385 678 431 z "},"M":{"ha":969,"x_min":0,"x_max":0,"o":"m 811 231 b 886 371 850 261 938 336 b 726 289 846 397 778 308 b 783 447 661 263 656 340 b 888 742 914 557 911 651 b 657 818 847 890 718 849 b 597 774 636 808 614 793 b 511 1004 646 903 603 994 b 371 944 472 1008 419 986 b 107 865 335 964 225 1004 b 139 354 -32 699 94 489 b 82 -36 200 171 182 26 b 414 17 82 -36 308 8 b 322 139 414 17 275 4 b 258 554 374 279 364 347 b 256 558 257 556 257 557 b 375 844 250 650 257 814 b 426 521 535 888 469 611 b 511 354 397 458 389 321 b 606 529 626 383 619 463 b 593 699 597 583 578 657 b 719 731 614 750 660 794 b 729 597 751 697 753 654 b 622 399 707 547 665 488 b 628 165 533 211 606 178 b 742 194 667 142 747 249 b 626 72 738 151 688 147 b 689 -26 565 -1 617 -47 b 892 3 750 -10 892 3 b 893 14 892 3 893 8 b 793 39 869 19 810 25 b 811 231 726 90 747 179 z m 221 640 b 364 939 138 868 269 940 b 221 640 286 871 217 760 z m 543 456 b 554 686 501 468 467 526 b 556 629 551 668 551 650 b 572 478 578 524 574 488 b 543 456 567 461 558 450 z "},"N":{"ha":1051,"x_min":0,"x_max":0,"o":"m 843 942 b 857 810 932 942 876 838 b 897 710 836 781 826 732 b 1033 644 979 683 1033 644 b 1019 825 1014 678 989 682 b 671 838 1064 1025 725 1046 b 793 314 615 619 793 482 b 532 119 793 161 654 53 b 532 542 406 188 408 340 b 356 978 636 711 606 953 b 43 688 104 1003 43 786 b 185 193 43 606 163 336 b 69 -32 211 17 93 -17 b 31 -82 29 -58 31 -82 b 407 4 132 4 407 4 b 406 18 407 4 415 15 b 346 251 307 38 328 136 b 206 658 367 394 261 483 b 290 947 151 833 194 951 b 408 340 385 944 486 740 b 731 4 357 79 549 -29 b 976 196 829 22 944 64 b 781 710 1036 447 901 517 b 843 942 671 883 754 942 z "},"O":{"ha":789,"x_min":0,"x_max":0,"o":"m 669 332 b 638 538 635 368 593 468 b 699 851 707 646 763 747 b 240 911 660 914 506 1049 b 79 526 -89 740 71 538 b 149 226 219 365 153 321 b 518 21 144 125 233 -47 b 669 332 813 92 742 253 z m 475 158 b 199 479 347 182 231 385 b 521 876 83 819 439 1039 b 524 419 608 699 306 592 b 475 158 750 242 610 135 z "},"P":{"ha":697,"x_min":0,"x_max":0,"o":"m 233 608 b 357 744 242 704 307 754 b 94 638 357 744 153 818 b 206 218 44 488 168 410 b 133 22 228 101 221 21 b 319 22 133 22 208 -25 b 357 338 439 72 408 264 b 233 608 282 446 228 521 z m 574 928 b 100 829 439 993 204 957 b 40 632 11 721 40 632 b 128 810 40 632 40 710 b 461 851 215 910 374 933 b 426 472 558 763 561 514 b 283 600 299 433 283 600 b 314 471 271 561 275 510 b 583 453 365 418 468 388 b 574 928 808 583 714 860 z "},"Q":{"ha":1001,"x_min":0,"x_max":0,"o":"m 800 264 b 786 397 761 325 747 392 b 842 350 838 404 842 350 b 851 469 842 350 956 463 b 765 246 749 475 685 399 b 632 -126 849 88 782 -82 b 371 7 463 -176 446 -29 b 518 21 413 4 461 8 b 669 332 813 92 742 253 b 638 538 635 368 593 468 b 699 851 707 646 763 747 b 240 911 660 914 506 1049 b 79 526 -89 742 71 538 b 149 226 219 365 153 321 b 285 26 146 161 182 67 b 113 -67 221 28 158 0 b 175 -290 44 -164 89 -282 b 319 -260 258 -297 319 -260 b 354 -29 139 -132 257 14 b 618 -287 449 -71 439 -256 b 938 -74 814 -322 926 -185 b 800 264 949 51 849 189 z m 199 479 b 521 876 83 819 439 1039 b 524 419 608 699 306 592 b 475 160 750 242 610 135 b 199 479 347 182 231 385 z "},"R":{"ha":964,"x_min":0,"x_max":0,"o":"m 881 331 b 829 225 881 331 889 203 b 699 510 743 257 800 458 b 461 415 635 543 571 508 b 456 410 460 414 458 411 b 790 746 546 531 674 683 b 481 985 790 746 742 961 b 246 957 386 993 307 982 b 118 865 207 946 163 919 b 150 354 -22 699 106 489 b 186 253 161 319 174 285 b 97 211 160 250 131 238 b -7 3 -17 118 -7 3 b 121 101 -7 3 40 118 b 332 7 225 81 268 14 b 571 189 396 -1 510 -4 b 413 142 571 189 524 108 b 347 181 390 149 369 164 b 361 253 354 207 360 231 b 390 318 367 272 376 294 b 403 336 394 324 397 329 b 469 392 418 357 440 378 b 586 267 574 443 600 389 b 644 25 575 158 560 74 b 861 57 729 -22 810 11 b 881 331 918 108 940 271 z m 528 761 b 483 506 563 693 540 579 b 357 335 428 433 386 376 b 268 554 346 393 317 458 b 206 758 225 638 207 704 b 528 761 211 903 475 865 z "},"S":{"ha":919,"x_min":0,"x_max":0,"o":"m 193 747 b 196 735 186 722 188 722 b 386 882 232 794 297 892 b 522 642 469 874 433 740 b 833 681 586 571 772 558 b 801 892 888 788 819 886 b 710 801 801 892 729 849 b 801 735 710 801 794 821 b 664 697 811 608 718 613 b 540 956 631 751 647 904 b 193 747 460 994 249 942 z m 861 353 b 681 543 846 432 815 481 b 108 775 572 593 121 639 b 288 939 93 939 288 939 b 93 856 288 939 175 969 b 132 542 11 742 40 610 b 675 374 253 453 489 486 b 710 58 844 271 807 69 b 450 369 578 44 592 264 b 111 201 326 463 90 419 b 319 13 131 -6 319 13 l 321 97 b 172 311 168 61 113 235 b 360 242 226 379 332 375 b 633 6 388 108 422 0 b 861 353 854 13 882 233 z "},"T":{"ha":864,"x_min":0,"x_max":0,"o":"m 892 890 b 468 957 819 728 650 919 b 39 671 199 1013 25 835 b 131 539 43 613 64 567 b 285 394 271 482 285 394 b 217 542 317 474 244 524 b 144 701 171 572 153 626 b 306 889 132 826 189 926 b 286 649 247 832 254 721 b 393 424 326 557 368 499 b 418 244 422 336 425 281 b 257 211 371 261 318 261 b 153 3 142 118 153 3 b 281 101 153 3 200 118 b 517 7 383 81 453 14 b 804 189 581 -1 743 -4 b 597 142 804 189 708 108 b 535 176 578 149 557 161 b 615 358 578 219 610 285 b 393 644 624 464 507 551 b 303 810 314 710 304 747 b 331 879 303 840 314 863 b 396 840 351 871 374 858 b 811 733 532 742 644 656 b 892 890 961 804 892 890 z "},"U":{"ha":876,"x_min":0,"x_max":0,"o":"m 764 718 l 846 721 b 846 944 893 794 899 893 b 596 878 793 994 674 967 b 603 378 519 789 376 582 b 642 336 618 364 631 350 b 485 125 614 254 572 111 b 326 400 300 156 408 336 b 175 582 246 463 131 454 b 461 968 224 722 360 915 l 163 968 b 44 685 163 968 44 863 b 175 335 46 508 156 490 b 210 49 196 179 147 122 b 540 81 271 -21 451 -3 b 667 301 601 138 644 229 b 643 3 758 149 643 3 l 772 3 b 707 403 839 157 761 328 b 751 865 606 543 686 789 b 822 803 817 942 892 868 b 764 718 764 749 764 718 z "},"V":{"ha":767,"x_min":0,"x_max":0,"o":"m 740 965 b 431 715 615 1007 432 907 b 624 383 429 550 539 536 b 526 65 696 253 654 96 b 354 336 388 32 290 147 b 229 640 418 525 328 564 b 142 789 186 674 154 732 b 290 871 108 943 267 954 b 251 722 307 813 271 729 b 367 776 251 722 311 713 b 358 914 396 810 382 876 b 50 747 293 1017 31 967 b 165 460 61 642 139 532 b 222 110 204 356 156 246 b 446 3 260 35 371 -3 b 697 311 710 26 693 229 b 654 874 710 533 553 672 b 789 886 703 969 782 950 b 740 965 794 824 847 929 z "},"W":{"ha":1178,"x_min":0,"x_max":0,"o":"m 947 846 b 1135 813 1053 926 1135 813 l 1199 871 b 819 540 1063 1104 774 831 b 994 132 856 317 1051 265 b 775 204 939 1 806 7 b 686 514 742 408 700 492 b 583 657 665 567 631 617 b 356 686 435 786 356 686 b 511 390 453 711 514 596 b 178 38 510 185 246 -10 b 428 439 79 106 447 243 b 88 760 413 589 88 636 b 389 829 88 843 185 925 b 692 928 619 724 700 847 b 364 964 515 833 510 933 b 47 740 219 993 35 913 b 240 367 61 553 256 533 b 151 118 235 300 217 200 b 169 3 103 58 133 3 b 599 157 283 3 476 49 b 708 379 669 221 704 300 b 743 151 721 338 724 286 b 1111 204 778 -89 1061 -19 b 978 546 1156 399 1082 475 b 947 846 874 617 840 765 z "},"X":{"ha":942,"x_min":0,"x_max":0,"o":"m 924 915 b 701 957 840 1010 701 957 b 779 847 701 957 774 965 b 385 426 788 682 632 608 b 235 743 215 464 160 615 b 569 904 318 885 569 904 b 450 918 569 904 478 903 b 119 892 422 933 274 1028 b 322 406 -36 756 71 482 b 347 399 331 404 339 401 b 44 3 72 193 44 3 l 318 3 b 247 150 292 26 244 76 b 393 385 249 224 301 313 b 674 189 583 324 651 276 b 517 7 701 78 517 7 b 856 169 517 7 824 -42 b 444 418 882 346 706 406 b 440 419 443 419 442 419 b 633 500 496 453 560 482 b 924 915 874 557 1054 769 z "},"Y":{"ha":790,"x_min":0,"x_max":0,"o":"m 824 883 b 806 931 821 900 817 917 b 804 932 806 931 804 931 b 735 958 788 951 760 958 b 492 649 586 958 506 772 b 486 583 489 625 488 603 b 308 410 447 521 382 404 b 394 839 206 417 471 592 b 113 929 353 976 193 1019 b 83 717 21 825 44 744 b 194 718 144 674 194 718 b 135 847 194 718 124 760 b 271 876 147 942 232 975 b 175 596 310 779 246 700 b 247 367 110 497 110 385 b 486 521 349 353 435 439 b 524 168 489 372 528 281 b 433 -69 521 25 472 -51 b 326 106 354 -104 324 -14 b 125 296 328 283 276 368 b 201 129 125 296 263 329 b 379 -115 150 -40 235 -122 b 707 290 589 -106 717 147 b 588 735 697 440 553 565 b 676 892 600 790 613 872 b 732 871 697 897 724 890 b 732 838 736 860 735 849 b 706 794 726 821 718 807 b 638 593 683 774 593 706 b 739 622 664 526 739 597 b 718 676 739 642 725 658 b 728 769 703 713 694 749 b 819 843 760 788 803 810 b 824 883 825 856 825 869 z "},"Z":{"ha":875,"x_min":0,"x_max":0,"o":"m 622 150 b 268 172 463 13 257 -19 b 744 571 278 322 599 419 b 744 901 882 714 894 881 b 321 669 596 922 469 719 b 124 785 221 635 96 686 b 271 968 146 861 271 968 l 97 967 b 326 568 8 874 85 536 b 493 706 392 576 447 629 b 775 814 571 833 758 932 b 308 497 794 676 453 590 b 121 142 132 382 88 253 b 510 39 149 50 256 -54 b 847 374 764 133 847 374 l 718 485 b 622 150 718 485 761 268 z "},"[":{"ha":1085,"x_min":0,"x_max":0,"o":"m 311 936 l 311 865 l 363 865 l 363 833 l 311 833 l 311 596 l 250 596 l 250 968 l 392 968 l 392 936 z m 474 844 l 461 844 l 461 596 l 400 596 l 400 968 l 494 968 b 565 907 535 968 565 951 b 521 847 565 872 549 854 l 574 596 l 503 596 z m 461 864 b 494 901 485 864 494 875 b 461 938 494 926 485 938 z m 650 936 l 650 865 l 703 865 l 703 833 l 650 833 l 650 628 l 731 628 l 731 596 l 589 596 l 589 968 l 731 968 l 731 936 z m 804 936 l 804 865 l 857 865 l 857 833 l 804 833 l 804 628 l 886 628 l 886 596 l 744 596 l 744 968 l 886 968 l 886 936 z m 390 483 l 343 483 l 343 143 l 283 143 l 283 483 l 236 483 l 236 515 l 390 515 z m 475 392 l 463 392 l 463 143 l 401 143 l 401 515 l 496 515 b 567 454 536 515 567 499 b 522 396 567 419 549 401 l 575 143 l 504 143 z m 463 411 b 496 449 486 411 496 422 b 463 485 496 474 486 485 z m 590 143 l 590 515 l 651 515 l 651 143 z m 776 288 l 750 288 l 739 143 l 668 143 l 707 515 l 818 515 l 857 143 l 786 143 z m 775 313 l 765 454 l 761 454 l 751 313 z m 1015 175 l 1015 143 l 874 143 l 874 515 l 935 515 l 935 175 z m 271 7 b 271 4 271 6 271 4 b 276 -1 271 0 274 -1 b 283 0 279 -1 282 -1 l 286 -12 b 272 -15 282 -15 276 -15 b 254 1 261 -15 254 -10 b 256 7 254 3 254 4 l 260 31 l 251 31 l 253 44 l 263 44 l 265 60 l 281 60 l 278 44 l 292 44 l 290 31 l 276 31 z m 360 46 l 322 -19 b 297 -37 314 -33 308 -37 b 282 -32 292 -37 285 -36 l 289 -19 b 299 -24 292 -22 294 -24 b 308 -17 303 -24 306 -21 l 310 -15 l 296 46 l 313 46 l 321 4 l 344 46 z m 422 19 b 392 -15 422 -1 408 -15 b 374 -7 383 -15 376 -12 l 368 -37 l 351 -37 l 367 46 l 382 46 l 381 40 b 397 47 385 44 392 47 b 422 19 411 47 422 36 z m 406 18 b 393 32 406 26 401 32 b 376 13 383 32 376 24 b 389 -1 376 4 381 -1 b 406 18 399 -1 406 7 z m 486 11 l 444 11 b 458 -1 444 3 449 -1 b 474 4 464 -1 469 0 l 481 -8 b 457 -15 474 -14 465 -15 b 428 11 439 -15 428 -6 b 461 47 428 32 442 47 b 488 19 478 47 488 36 b 486 11 488 17 488 14 z m 444 21 l 472 21 b 460 33 472 29 468 33 b 444 21 453 33 447 28 z m 521 47 l 521 44 l 535 44 l 532 31 l 519 31 l 510 -15 l 494 -15 l 503 31 l 494 31 l 496 44 l 506 44 l 506 47 b 531 69 508 61 517 69 b 543 67 535 69 540 68 l 536 54 b 531 56 535 56 532 56 b 521 47 525 56 522 53 z m 600 46 l 589 -15 l 574 -15 l 574 -10 b 557 -15 569 -14 564 -15 b 533 11 544 -15 533 -6 b 564 47 533 32 546 47 b 582 38 572 47 578 43 l 583 46 z m 578 18 b 565 32 578 26 574 32 b 549 13 556 32 549 24 b 563 -1 549 4 554 -1 b 578 18 571 -1 578 7 z m 604 11 b 639 47 604 32 618 47 b 664 31 650 47 660 42 l 650 24 b 638 32 647 29 643 32 b 621 13 628 32 621 24 b 633 -1 621 4 625 -1 b 647 7 639 -1 644 1 l 660 -1 b 633 -15 654 -11 644 -15 b 604 11 615 -15 604 -6 z m 688 7 b 688 4 688 6 688 4 b 693 -1 688 0 689 -1 b 700 0 696 -1 697 -1 l 701 -12 b 688 -15 699 -15 693 -15 b 671 1 678 -15 671 -10 b 671 7 671 3 671 4 l 675 31 l 667 31 l 669 44 l 678 44 l 681 60 l 697 60 l 694 44 l 708 44 l 706 31 l 692 31 z m 710 11 b 743 47 710 32 724 47 b 772 19 761 47 772 36 b 738 -15 772 -1 758 -15 b 710 11 721 -15 710 -6 z m 756 18 b 743 32 756 26 750 32 b 726 13 733 32 726 24 b 739 -1 726 4 731 -1 b 756 18 749 -1 756 7 z m 822 47 l 819 31 b 815 31 818 31 817 31 b 799 14 807 31 800 26 l 793 -15 l 776 -15 l 788 46 l 803 46 l 801 39 b 822 47 807 44 814 47 z m 889 46 l 853 -19 b 826 -37 844 -33 838 -37 b 811 -32 821 -37 815 -36 l 819 -19 b 828 -24 821 -22 825 -24 b 838 -17 832 -24 835 -21 l 839 -15 l 826 46 l 842 46 l 850 4 l 874 46 z m 879 -6 b 890 6 879 1 885 6 b 900 -4 896 6 900 1 b 889 -15 900 -11 894 -15 b 879 -6 883 -15 879 -11 z m 910 11 b 943 47 910 32 924 47 b 968 31 956 47 964 42 l 954 24 b 942 32 953 29 947 32 b 925 13 932 32 925 24 b 939 -1 925 4 931 -1 b 953 7 944 -1 949 1 l 964 -1 b 938 -15 958 -11 949 -15 b 910 11 921 -15 910 -6 z m 969 11 b 1003 47 969 32 983 47 b 1032 19 1021 47 1032 36 b 997 -15 1032 -1 1018 -15 b 969 11 981 -15 969 -6 z m 1015 18 b 1003 32 1015 26 1011 32 b 986 13 993 32 986 24 b 999 -1 986 4 990 -1 b 1015 18 1008 -1 1015 7 z m 88 -64 l 143 -64 l 143 1019 l 88 1019 z "},"\\":{"ha":1085,"x_min":0,"x_max":0,"o":"m 311 936 l 311 865 l 363 865 l 363 833 l 311 833 l 311 596 l 250 596 l 250 968 l 392 968 l 392 936 z m 474 844 l 461 844 l 461 596 l 400 596 l 400 968 l 494 968 b 565 907 535 968 565 951 b 521 847 565 872 549 854 l 574 596 l 503 596 z m 461 864 b 494 901 485 864 494 875 b 461 938 494 926 485 938 z m 650 936 l 650 865 l 703 865 l 703 833 l 650 833 l 650 628 l 731 628 l 731 596 l 589 596 l 589 968 l 731 968 l 731 936 z m 804 936 l 804 865 l 857 865 l 857 833 l 804 833 l 804 628 l 886 628 l 886 596 l 744 596 l 744 968 l 886 968 l 886 936 z m 390 483 l 343 483 l 343 143 l 283 143 l 283 483 l 236 483 l 236 515 l 390 515 z m 475 392 l 463 392 l 463 143 l 401 143 l 401 515 l 496 515 b 567 454 536 515 567 499 b 522 396 567 419 549 401 l 575 143 l 504 143 z m 463 411 b 496 449 486 411 496 422 b 463 485 496 474 486 485 z m 590 143 l 590 515 l 651 515 l 651 143 z m 776 288 l 750 288 l 739 143 l 668 143 l 707 515 l 818 515 l 857 143 l 786 143 z m 775 313 l 765 454 l 761 454 l 751 313 z m 1015 175 l 1015 143 l 874 143 l 874 515 l 935 515 l 935 175 z m 271 7 b 271 4 271 6 271 4 b 276 -1 271 0 274 -1 b 283 0 279 -1 282 -1 l 286 -12 b 272 -15 282 -15 276 -15 b 254 1 261 -15 254 -10 b 256 7 254 3 254 4 l 260 31 l 251 31 l 253 44 l 263 44 l 265 60 l 281 60 l 278 44 l 292 44 l 290 31 l 276 31 z m 360 46 l 322 -19 b 297 -37 314 -33 308 -37 b 282 -32 292 -37 285 -36 l 289 -19 b 299 -24 292 -22 294 -24 b 308 -17 303 -24 306 -21 l 310 -15 l 296 46 l 313 46 l 321 4 l 344 46 z m 422 19 b 392 -15 422 -1 408 -15 b 374 -7 383 -15 376 -12 l 368 -37 l 351 -37 l 367 46 l 382 46 l 381 40 b 397 47 385 44 392 47 b 422 19 411 47 422 36 z m 406 18 b 393 32 406 26 401 32 b 376 13 383 32 376 24 b 389 -1 376 4 381 -1 b 406 18 399 -1 406 7 z m 486 11 l 444 11 b 458 -1 444 3 449 -1 b 474 4 464 -1 469 0 l 481 -8 b 457 -15 474 -14 465 -15 b 428 11 439 -15 428 -6 b 461 47 428 32 442 47 b 488 19 478 47 488 36 b 486 11 488 17 488 14 z m 444 21 l 472 21 b 460 33 472 29 468 33 b 444 21 453 33 447 28 z m 521 47 l 521 44 l 535 44 l 532 31 l 519 31 l 510 -15 l 494 -15 l 503 31 l 494 31 l 496 44 l 506 44 l 506 47 b 531 69 508 61 517 69 b 543 67 535 69 540 68 l 536 54 b 531 56 535 56 532 56 b 521 47 525 56 522 53 z m 600 46 l 589 -15 l 574 -15 l 574 -10 b 557 -15 569 -14 564 -15 b 533 11 544 -15 533 -6 b 564 47 533 32 546 47 b 582 38 572 47 578 43 l 583 46 z m 578 18 b 565 32 578 26 574 32 b 549 13 556 32 549 24 b 563 -1 549 4 554 -1 b 578 18 571 -1 578 7 z m 604 11 b 639 47 604 32 618 47 b 664 31 650 47 660 42 l 650 24 b 638 32 647 29 643 32 b 621 13 628 32 621 24 b 633 -1 621 4 625 -1 b 647 7 639 -1 644 1 l 660 -1 b 633 -15 654 -11 644 -15 b 604 11 615 -15 604 -6 z m 688 7 b 688 4 688 6 688 4 b 693 -1 688 0 689 -1 b 700 0 696 -1 697 -1 l 701 -12 b 688 -15 699 -15 693 -15 b 671 1 678 -15 671 -10 b 671 7 671 3 671 4 l 675 31 l 667 31 l 669 44 l 678 44 l 681 60 l 697 60 l 694 44 l 708 44 l 706 31 l 692 31 z m 710 11 b 743 47 710 32 724 47 b 772 19 761 47 772 36 b 738 -15 772 -1 758 -15 b 710 11 721 -15 710 -6 z m 756 18 b 743 32 756 26 750 32 b 726 13 733 32 726 24 b 739 -1 726 4 731 -1 b 756 18 749 -1 756 7 z m 822 47 l 819 31 b 815 31 818 31 817 31 b 799 14 807 31 800 26 l 793 -15 l 776 -15 l 788 46 l 803 46 l 801 39 b 822 47 807 44 814 47 z m 889 46 l 853 -19 b 826 -37 844 -33 838 -37 b 811 -32 821 -37 815 -36 l 819 -19 b 828 -24 821 -22 825 -24 b 838 -17 832 -24 835 -21 l 839 -15 l 826 46 l 842 46 l 850 4 l 874 46 z m 879 -6 b 890 6 879 1 885 6 b 900 -4 896 6 900 1 b 889 -15 900 -11 894 -15 b 879 -6 883 -15 879 -11 z m 910 11 b 943 47 910 32 924 47 b 968 31 956 47 964 42 l 954 24 b 942 32 953 29 947 32 b 925 13 932 32 925 24 b 939 -1 925 4 931 -1 b 953 7 944 -1 949 1 l 964 -1 b 938 -15 958 -11 949 -15 b 910 11 921 -15 910 -6 z m 969 11 b 1003 47 969 32 983 47 b 1032 19 1021 47 1032 36 b 997 -15 1032 -1 1018 -15 b 969 11 981 -15 969 -6 z m 1015 18 b 1003 32 1015 26 1011 32 b 986 13 993 32 986 24 b 999 -1 986 4 990 -1 b 1015 18 1008 -1 1015 7 z m 88 -64 l 143 -64 l 143 1019 l 88 1019 z "},"]":{"ha":1085,"x_min":0,"x_max":0,"o":"m 311 936 l 311 865 l 363 865 l 363 833 l 311 833 l 311 596 l 250 596 l 250 968 l 392 968 l 392 936 z m 474 844 l 461 844 l 461 596 l 400 596 l 400 968 l 494 968 b 565 907 535 968 565 951 b 521 847 565 872 549 854 l 574 596 l 503 596 z m 461 864 b 494 901 485 864 494 875 b 461 938 494 926 485 938 z m 650 936 l 650 865 l 703 865 l 703 833 l 650 833 l 650 628 l 731 628 l 731 596 l 589 596 l 589 968 l 731 968 l 731 936 z m 804 936 l 804 865 l 857 865 l 857 833 l 804 833 l 804 628 l 886 628 l 886 596 l 744 596 l 744 968 l 886 968 l 886 936 z m 390 483 l 343 483 l 343 143 l 283 143 l 283 483 l 236 483 l 236 515 l 390 515 z m 475 392 l 463 392 l 463 143 l 401 143 l 401 515 l 496 515 b 567 454 536 515 567 499 b 522 396 567 419 549 401 l 575 143 l 504 143 z m 463 411 b 496 449 486 411 496 422 b 463 485 496 474 486 485 z m 590 143 l 590 515 l 651 515 l 651 143 z m 776 288 l 750 288 l 739 143 l 668 143 l 707 515 l 818 515 l 857 143 l 786 143 z m 775 313 l 765 454 l 761 454 l 751 313 z m 1015 175 l 1015 143 l 874 143 l 874 515 l 935 515 l 935 175 z m 271 7 b 271 4 271 6 271 4 b 276 -1 271 0 274 -1 b 283 0 279 -1 282 -1 l 286 -12 b 272 -15 282 -15 276 -15 b 254 1 261 -15 254 -10 b 256 7 254 3 254 4 l 260 31 l 251 31 l 253 44 l 263 44 l 265 60 l 281 60 l 278 44 l 292 44 l 290 31 l 276 31 z m 360 46 l 322 -19 b 297 -37 314 -33 308 -37 b 282 -32 292 -37 285 -36 l 289 -19 b 299 -24 292 -22 294 -24 b 308 -17 303 -24 306 -21 l 310 -15 l 296 46 l 313 46 l 321 4 l 344 46 z m 422 19 b 392 -15 422 -1 408 -15 b 374 -7 383 -15 376 -12 l 368 -37 l 351 -37 l 367 46 l 382 46 l 381 40 b 397 47 385 44 392 47 b 422 19 411 47 422 36 z m 406 18 b 393 32 406 26 401 32 b 376 13 383 32 376 24 b 389 -1 376 4 381 -1 b 406 18 399 -1 406 7 z m 486 11 l 444 11 b 458 -1 444 3 449 -1 b 474 4 464 -1 469 0 l 481 -8 b 457 -15 474 -14 465 -15 b 428 11 439 -15 428 -6 b 461 47 428 32 442 47 b 488 19 478 47 488 36 b 486 11 488 17 488 14 z m 444 21 l 472 21 b 460 33 472 29 468 33 b 444 21 453 33 447 28 z m 521 47 l 521 44 l 535 44 l 532 31 l 519 31 l 510 -15 l 494 -15 l 503 31 l 494 31 l 496 44 l 506 44 l 506 47 b 531 69 508 61 517 69 b 543 67 535 69 540 68 l 536 54 b 531 56 535 56 532 56 b 521 47 525 56 522 53 z m 600 46 l 589 -15 l 574 -15 l 574 -10 b 557 -15 569 -14 564 -15 b 533 11 544 -15 533 -6 b 564 47 533 32 546 47 b 582 38 572 47 578 43 l 583 46 z m 578 18 b 565 32 578 26 574 32 b 549 13 556 32 549 24 b 563 -1 549 4 554 -1 b 578 18 571 -1 578 7 z m 604 11 b 639 47 604 32 618 47 b 664 31 650 47 660 42 l 650 24 b 638 32 647 29 643 32 b 621 13 628 32 621 24 b 633 -1 621 4 625 -1 b 647 7 639 -1 644 1 l 660 -1 b 633 -15 654 -11 644 -15 b 604 11 615 -15 604 -6 z m 688 7 b 688 4 688 6 688 4 b 693 -1 688 0 689 -1 b 700 0 696 -1 697 -1 l 701 -12 b 688 -15 699 -15 693 -15 b 671 1 678 -15 671 -10 b 671 7 671 3 671 4 l 675 31 l 667 31 l 669 44 l 678 44 l 681 60 l 697 60 l 694 44 l 708 44 l 706 31 l 692 31 z m 710 11 b 743 47 710 32 724 47 b 772 19 761 47 772 36 b 738 -15 772 -1 758 -15 b 710 11 721 -15 710 -6 z m 756 18 b 743 32 756 26 750 32 b 726 13 733 32 726 24 b 739 -1 726 4 731 -1 b 756 18 749 -1 756 7 z m 822 47 l 819 31 b 815 31 818 31 817 31 b 799 14 807 31 800 26 l 793 -15 l 776 -15 l 788 46 l 803 46 l 801 39 b 822 47 807 44 814 47 z m 889 46 l 853 -19 b 826 -37 844 -33 838 -37 b 811 -32 821 -37 815 -36 l 819 -19 b 828 -24 821 -22 825 -24 b 838 -17 832 -24 835 -21 l 839 -15 l 826 46 l 842 46 l 850 4 l 874 46 z m 879 -6 b 890 6 879 1 885 6 b 900 -4 896 6 900 1 b 889 -15 900 -11 894 -15 b 879 -6 883 -15 879 -11 z m 910 11 b 943 47 910 32 924 47 b 968 31 956 47 964 42 l 954 24 b 942 32 953 29 947 32 b 925 13 932 32 925 24 b 939 -1 925 4 931 -1 b 953 7 944 -1 949 1 l 964 -1 b 938 -15 958 -11 949 -15 b 910 11 921 -15 910 -6 z m 969 11 b 1003 47 969 32 983 47 b 1032 19 1021 47 1032 36 b 997 -15 1032 -1 1018 -15 b 969 11 981 -15 969 -6 z m 1015 18 b 1003 32 1015 26 1011 32 b 986 13 993 32 986 24 b 999 -1 986 4 990 -1 b 1015 18 1008 -1 1015 7 z m 88 -64 l 143 -64 l 143 1019 l 88 1019 z "},"^":{"ha":1085,"x_min":0,"x_max":0,"o":"m 311 936 l 311 865 l 363 865 l 363 833 l 311 833 l 311 596 l 250 596 l 250 968 l 392 968 l 392 936 z m 474 844 l 461 844 l 461 596 l 400 596 l 400 968 l 494 968 b 565 907 535 968 565 951 b 521 847 565 872 549 854 l 574 596 l 503 596 z m 461 864 b 494 901 485 864 494 875 b 461 938 494 926 485 938 z m 650 936 l 650 865 l 703 865 l 703 833 l 650 833 l 650 628 l 731 628 l 731 596 l 589 596 l 589 968 l 731 968 l 731 936 z m 804 936 l 804 865 l 857 865 l 857 833 l 804 833 l 804 628 l 886 628 l 886 596 l 744 596 l 744 968 l 886 968 l 886 936 z m 390 483 l 343 483 l 343 143 l 283 143 l 283 483 l 236 483 l 236 515 l 390 515 z m 475 392 l 463 392 l 463 143 l 401 143 l 401 515 l 496 515 b 567 454 536 515 567 499 b 522 396 567 419 549 401 l 575 143 l 504 143 z m 463 411 b 496 449 486 411 496 422 b 463 485 496 474 486 485 z m 590 143 l 590 515 l 651 515 l 651 143 z m 776 288 l 750 288 l 739 143 l 668 143 l 707 515 l 818 515 l 857 143 l 786 143 z m 775 313 l 765 454 l 761 454 l 751 313 z m 1015 175 l 1015 143 l 874 143 l 874 515 l 935 515 l 935 175 z m 271 7 b 271 4 271 6 271 4 b 276 -1 271 0 274 -1 b 283 0 279 -1 282 -1 l 286 -12 b 272 -15 282 -15 276 -15 b 254 1 261 -15 254 -10 b 256 7 254 3 254 4 l 260 31 l 251 31 l 253 44 l 263 44 l 265 60 l 281 60 l 278 44 l 292 44 l 290 31 l 276 31 z m 360 46 l 322 -19 b 297 -37 314 -33 308 -37 b 282 -32 292 -37 285 -36 l 289 -19 b 299 -24 292 -22 294 -24 b 308 -17 303 -24 306 -21 l 310 -15 l 296 46 l 313 46 l 321 4 l 344 46 z m 422 19 b 392 -15 422 -1 408 -15 b 374 -7 383 -15 376 -12 l 368 -37 l 351 -37 l 367 46 l 382 46 l 381 40 b 397 47 385 44 392 47 b 422 19 411 47 422 36 z m 406 18 b 393 32 406 26 401 32 b 376 13 383 32 376 24 b 389 -1 376 4 381 -1 b 406 18 399 -1 406 7 z m 486 11 l 444 11 b 458 -1 444 3 449 -1 b 474 4 464 -1 469 0 l 481 -8 b 457 -15 474 -14 465 -15 b 428 11 439 -15 428 -6 b 461 47 428 32 442 47 b 488 19 478 47 488 36 b 486 11 488 17 488 14 z m 444 21 l 472 21 b 460 33 472 29 468 33 b 444 21 453 33 447 28 z m 521 47 l 521 44 l 535 44 l 532 31 l 519 31 l 510 -15 l 494 -15 l 503 31 l 494 31 l 496 44 l 506 44 l 506 47 b 531 69 508 61 517 69 b 543 67 535 69 540 68 l 536 54 b 531 56 535 56 532 56 b 521 47 525 56 522 53 z m 600 46 l 589 -15 l 574 -15 l 574 -10 b 557 -15 569 -14 564 -15 b 533 11 544 -15 533 -6 b 564 47 533 32 546 47 b 582 38 572 47 578 43 l 583 46 z m 578 18 b 565 32 578 26 574 32 b 549 13 556 32 549 24 b 563 -1 549 4 554 -1 b 578 18 571 -1 578 7 z m 604 11 b 639 47 604 32 618 47 b 664 31 650 47 660 42 l 650 24 b 638 32 647 29 643 32 b 621 13 628 32 621 24 b 633 -1 621 4 625 -1 b 647 7 639 -1 644 1 l 660 -1 b 633 -15 654 -11 644 -15 b 604 11 615 -15 604 -6 z m 688 7 b 688 4 688 6 688 4 b 693 -1 688 0 689 -1 b 700 0 696 -1 697 -1 l 701 -12 b 688 -15 699 -15 693 -15 b 671 1 678 -15 671 -10 b 671 7 671 3 671 4 l 675 31 l 667 31 l 669 44 l 678 44 l 681 60 l 697 60 l 694 44 l 708 44 l 706 31 l 692 31 z m 710 11 b 743 47 710 32 724 47 b 772 19 761 47 772 36 b 738 -15 772 -1 758 -15 b 710 11 721 -15 710 -6 z m 756 18 b 743 32 756 26 750 32 b 726 13 733 32 726 24 b 739 -1 726 4 731 -1 b 756 18 749 -1 756 7 z m 822 47 l 819 31 b 815 31 818 31 817 31 b 799 14 807 31 800 26 l 793 -15 l 776 -15 l 788 46 l 803 46 l 801 39 b 822 47 807 44 814 47 z m 889 46 l 853 -19 b 826 -37 844 -33 838 -37 b 811 -32 821 -37 815 -36 l 819 -19 b 828 -24 821 -22 825 -24 b 838 -17 832 -24 835 -21 l 839 -15 l 826 46 l 842 46 l 850 4 l 874 46 z m 879 -6 b 890 6 879 1 885 6 b 900 -4 896 6 900 1 b 889 -15 900 -11 894 -15 b 879 -6 883 -15 879 -11 z m 910 11 b 943 47 910 32 924 47 b 968 31 956 47 964 42 l 954 24 b 942 32 953 29 947 32 b 925 13 932 32 925 24 b 939 -1 925 4 931 -1 b 953 7 944 -1 949 1 l 964 -1 b 938 -15 958 -11 949 -15 b 910 11 921 -15 910 -6 z m 969 11 b 1003 47 969 32 983 47 b 1032 19 1021 47 1032 36 b 997 -15 1032 -1 1018 -15 b 969 11 981 -15 969 -6 z m 1015 18 b 1003 32 1015 26 1011 32 b 986 13 993 32 986 24 b 999 -1 986 4 990 -1 b 1015 18 1008 -1 1015 7 z m 88 -64 l 143 -64 l 143 1019 l 88 1019 z "},"_":{"ha":1085,"x_min":0,"x_max":0,"o":"m 311 936 l 311 865 l 363 865 l 363 833 l 311 833 l 311 596 l 250 596 l 250 968 l 392 968 l 392 936 z m 474 844 l 461 844 l 461 596 l 400 596 l 400 968 l 494 968 b 565 907 535 968 565 951 b 521 847 565 872 549 854 l 574 596 l 503 596 z m 461 864 b 494 901 485 864 494 875 b 461 938 494 926 485 938 z m 650 936 l 650 865 l 703 865 l 703 833 l 650 833 l 650 628 l 731 628 l 731 596 l 589 596 l 589 968 l 731 968 l 731 936 z m 804 936 l 804 865 l 857 865 l 857 833 l 804 833 l 804 628 l 886 628 l 886 596 l 744 596 l 744 968 l 886 968 l 886 936 z m 390 483 l 343 483 l 343 143 l 283 143 l 283 483 l 236 483 l 236 515 l 390 515 z m 475 392 l 463 392 l 463 143 l 401 143 l 401 515 l 496 515 b 567 454 536 515 567 499 b 522 396 567 419 549 401 l 575 143 l 504 143 z m 463 411 b 496 449 486 411 496 422 b 463 485 496 474 486 485 z m 590 143 l 590 515 l 651 515 l 651 143 z m 776 288 l 750 288 l 739 143 l 668 143 l 707 515 l 818 515 l 857 143 l 786 143 z m 775 313 l 765 454 l 761 454 l 751 313 z m 1015 175 l 1015 143 l 874 143 l 874 515 l 935 515 l 935 175 z m 271 7 b 271 4 271 6 271 4 b 276 -1 271 0 274 -1 b 283 0 279 -1 282 -1 l 286 -12 b 272 -15 282 -15 276 -15 b 254 1 261 -15 254 -10 b 256 7 254 3 254 4 l 260 31 l 251 31 l 253 44 l 263 44 l 265 60 l 281 60 l 278 44 l 292 44 l 290 31 l 276 31 z m 360 46 l 322 -19 b 297 -37 314 -33 308 -37 b 282 -32 292 -37 285 -36 l 289 -19 b 299 -24 292 -22 294 -24 b 308 -17 303 -24 306 -21 l 310 -15 l 296 46 l 313 46 l 321 4 l 344 46 z m 422 19 b 392 -15 422 -1 408 -15 b 374 -7 383 -15 376 -12 l 368 -37 l 351 -37 l 367 46 l 382 46 l 381 40 b 397 47 385 44 392 47 b 422 19 411 47 422 36 z m 406 18 b 393 32 406 26 401 32 b 376 13 383 32 376 24 b 389 -1 376 4 381 -1 b 406 18 399 -1 406 7 z m 486 11 l 444 11 b 458 -1 444 3 449 -1 b 474 4 464 -1 469 0 l 481 -8 b 457 -15 474 -14 465 -15 b 428 11 439 -15 428 -6 b 461 47 428 32 442 47 b 488 19 478 47 488 36 b 486 11 488 17 488 14 z m 444 21 l 472 21 b 460 33 472 29 468 33 b 444 21 453 33 447 28 z m 521 47 l 521 44 l 535 44 l 532 31 l 519 31 l 510 -15 l 494 -15 l 503 31 l 494 31 l 496 44 l 506 44 l 506 47 b 531 69 508 61 517 69 b 543 67 535 69 540 68 l 536 54 b 531 56 535 56 532 56 b 521 47 525 56 522 53 z m 600 46 l 589 -15 l 574 -15 l 574 -10 b 557 -15 569 -14 564 -15 b 533 11 544 -15 533 -6 b 564 47 533 32 546 47 b 582 38 572 47 578 43 l 583 46 z m 578 18 b 565 32 578 26 574 32 b 549 13 556 32 549 24 b 563 -1 549 4 554 -1 b 578 18 571 -1 578 7 z m 604 11 b 639 47 604 32 618 47 b 664 31 650 47 660 42 l 650 24 b 638 32 647 29 643 32 b 621 13 628 32 621 24 b 633 -1 621 4 625 -1 b 647 7 639 -1 644 1 l 660 -1 b 633 -15 654 -11 644 -15 b 604 11 615 -15 604 -6 z m 688 7 b 688 4 688 6 688 4 b 693 -1 688 0 689 -1 b 700 0 696 -1 697 -1 l 701 -12 b 688 -15 699 -15 693 -15 b 671 1 678 -15 671 -10 b 671 7 671 3 671 4 l 675 31 l 667 31 l 669 44 l 678 44 l 681 60 l 697 60 l 694 44 l 708 44 l 706 31 l 692 31 z m 710 11 b 743 47 710 32 724 47 b 772 19 761 47 772 36 b 738 -15 772 -1 758 -15 b 710 11 721 -15 710 -6 z m 756 18 b 743 32 756 26 750 32 b 726 13 733 32 726 24 b 739 -1 726 4 731 -1 b 756 18 749 -1 756 7 z m 822 47 l 819 31 b 815 31 818 31 817 31 b 799 14 807 31 800 26 l 793 -15 l 776 -15 l 788 46 l 803 46 l 801 39 b 822 47 807 44 814 47 z m 889 46 l 853 -19 b 826 -37 844 -33 838 -37 b 811 -32 821 -37 815 -36 l 819 -19 b 828 -24 821 -22 825 -24 b 838 -17 832 -24 835 -21 l 839 -15 l 826 46 l 842 46 l 850 4 l 874 46 z m 879 -6 b 890 6 879 1 885 6 b 900 -4 896 6 900 1 b 889 -15 900 -11 894 -15 b 879 -6 883 -15 879 -11 z m 910 11 b 943 47 910 32 924 47 b 968 31 956 47 964 42 l 954 24 b 942 32 953 29 947 32 b 925 13 932 32 925 24 b 939 -1 925 4 931 -1 b 953 7 944 -1 949 1 l 964 -1 b 938 -15 958 -11 949 -15 b 910 11 921 -15 910 -6 z m 969 11 b 1003 47 969 32 983 47 b 1032 19 1021 47 1032 36 b 997 -15 1032 -1 1018 -15 b 969 11 981 -15 969 -6 z m 1015 18 b 1003 32 1015 26 1011 32 b 986 13 993 32 986 24 b 999 -1 986 4 990 -1 b 1015 18 1008 -1 1015 7 z m 88 -64 l 143 -64 l 143 1019 l 88 1019 z "},"`":{"ha":274,"x_min":0,"x_max":0,"o":"m 185 771 b 210 838 196 829 210 838 l 89 839 b 146 694 88 796 104 740 b 218 649 189 644 218 649 l 271 665 b 185 771 210 700 174 711 z "},"a":{"ha":788,"x_min":0,"x_max":0,"o":"m 703 64 b 647 258 658 126 647 192 b 661 454 647 322 658 388 b 558 779 667 567 660 707 b 64 656 410 888 97 724 l 150 528 l 161 535 b 263 735 161 535 143 642 b 489 767 381 828 460 790 b 415 596 517 743 538 679 b 131 446 292 513 215 501 b 60 78 47 390 -60 240 b 344 51 118 -1 254 -15 b 476 215 422 107 463 185 b 450 92 476 215 451 103 b 560 0 450 81 449 -40 b 675 13 596 14 636 22 b 708 11 686 8 699 4 b 717 38 717 17 719 28 b 703 64 714 47 708 56 z m 542 496 b 519 417 538 476 533 431 b 506 410 515 413 511 410 b 457 415 492 407 474 415 b 388 399 433 415 408 410 b 319 300 351 378 325 340 b 314 236 315 278 318 257 b 231 138 307 190 275 150 b 103 206 182 125 113 150 b 143 376 90 283 111 332 b 525 692 310 615 603 379 b 549 568 547 657 550 607 b 542 496 549 543 546 519 z m 725 6 b 731 -1 729 1 731 -1 b 725 6 731 -1 729 1 z "},"b":{"ha":872,"x_min":0,"x_max":0,"o":"m 785 622 b 372 722 714 733 568 864 b 224 489 286 660 244 571 b 219 585 222 521 222 553 b 274 914 208 693 236 814 b 282 951 278 926 283 939 b 268 971 282 960 276 967 b 126 975 236 990 154 975 b 54 958 100 975 67 983 b 63 797 33 914 51 842 b 111 625 78 740 100 685 b 124 503 118 585 121 544 b 86 96 131 367 138 224 b 78 42 79 79 71 60 b 185 11 93 -1 151 11 b 294 78 239 11 297 3 b 278 146 294 101 285 124 b 236 322 257 206 246 263 b 333 636 240 413 258 556 b 643 619 442 753 542 750 b 688 169 736 501 726 269 b 489 128 653 78 565 11 b 468 440 411 244 436 401 b 489 629 500 479 532 556 l 414 592 b 458 492 414 592 453 567 b 338 218 465 390 375 390 b 651 40 315 118 385 -64 b 785 622 911 142 846 528 z "},"c":{"ha":675,"x_min":0,"x_max":0,"o":"m 639 599 b 457 822 639 599 646 769 b 39 510 283 871 93 735 b 281 28 -15 285 119 81 b 533 53 397 -11 486 18 b 625 228 533 53 639 117 b 540 499 613 329 525 400 b 469 300 540 499 408 431 b 508 96 528 174 592 118 b 286 226 464 88 382 97 b 260 763 124 450 118 681 b 556 544 401 844 589 775 z "},"d":{"ha":793,"x_min":0,"x_max":0,"o":"m 697 625 b 744 797 708 685 731 740 b 753 958 757 842 774 914 b 681 975 742 983 708 975 b 539 971 654 975 572 990 b 525 951 531 967 526 960 b 535 914 525 939 529 926 b 589 585 572 814 599 693 b 586 540 588 569 586 556 b 153 690 544 667 406 871 b 21 419 65 628 22 501 b 111 239 19 315 85 274 b 361 18 228 88 171 -21 b 461 253 550 57 526 213 b 329 463 392 294 293 375 b 449 463 358 529 449 463 l 467 506 b 324 288 375 597 224 443 b 221 131 446 94 256 -10 b 157 479 210 175 128 332 b 413 697 185 625 294 731 b 583 439 531 663 578 467 b 576 351 583 410 582 381 b 531 146 564 281 554 215 b 513 76 522 124 514 101 b 624 11 510 3 568 11 b 731 42 657 11 715 -1 b 721 96 738 60 729 79 b 685 503 671 224 676 367 b 697 625 686 544 689 585 z "},"e":{"ha":671,"x_min":0,"x_max":0,"o":"m 617 154 b 593 167 614 171 593 167 b 515 144 596 136 543 44 b 239 132 483 257 343 206 b 106 313 106 39 -35 197 b 263 390 172 367 179 338 b 274 676 360 450 296 582 b 368 760 250 769 249 868 b 410 390 465 671 469 510 b 322 401 368 304 338 371 b 308 403 318 411 308 403 b 363 311 308 403 300 326 b 599 479 433 292 544 353 b 397 831 653 604 568 811 b 147 636 225 850 96 743 b 104 418 200 531 199 481 b -8 183 0 350 -14 240 b 233 26 4 81 93 -25 b 574 31 428 97 519 -35 b 617 154 608 74 622 126 z "},"f":{"ha":601,"x_min":0,"x_max":0,"o":"m 271 917 b 447 711 385 889 356 774 b 674 808 560 635 674 808 b 535 861 631 763 572 808 b 311 967 485 929 439 968 b 111 556 122 965 32 794 b 57 503 90 543 71 525 b 74 332 8 433 56 381 b 29 101 104 225 43 175 b 376 86 13 14 247 -42 b 304 467 503 213 392 350 b 574 589 443 413 554 456 b 378 553 574 589 515 506 b 231 583 324 572 274 583 b 271 917 100 835 189 936 z m 172 85 b 60 88 114 18 63 60 b 93 168 58 114 79 139 b 104 317 117 218 115 274 b 81 453 90 376 51 417 b 135 492 93 468 110 483 b 172 85 249 222 218 135 z "},"g":{"ha":806,"x_min":0,"x_max":0,"o":"m 753 564 b 803 738 768 614 811 683 b 547 783 786 858 610 844 b 446 463 501 740 432 590 b 113 283 383 207 129 175 b 378 564 85 453 328 494 b 367 751 429 633 415 683 b 294 800 324 813 294 800 b 275 708 294 800 311 774 b 22 443 224 618 64 576 b 297 213 -18 321 121 150 b 458 406 403 251 443 339 b 549 299 474 363 501 324 b 669 88 701 214 693 139 b 415 86 635 14 544 -21 b 64 133 288 193 136 206 b 54 -14 -17 53 54 -14 b 86 110 32 32 38 83 b 310 -44 136 135 231 47 b 556 -79 374 -117 494 -117 b 718 207 642 -28 735 43 b 574 499 701 369 654 396 b 642 803 490 608 532 767 b 671 668 765 842 693 703 b 656 504 642 622 625 550 b 793 467 715 413 793 467 b 753 564 742 469 736 510 z "},"h":{"ha":765,"x_min":0,"x_max":0,"o":"m 628 146 b 678 603 636 228 825 435 b 325 419 556 744 356 611 b 313 450 321 431 318 440 b 172 782 257 572 169 642 b 304 842 179 1004 290 950 b 374 607 318 733 276 675 l 379 613 b 457 854 336 665 486 729 b 68 792 414 1035 121 1022 b 185 157 14 561 192 296 b 49 -64 181 64 157 22 l 56 -72 b 411 14 192 35 319 14 l 411 25 b 325 129 388 28 301 47 b 349 292 339 178 350 232 b 349 296 349 293 349 294 b 347 325 349 306 349 315 b 600 603 342 543 543 686 b 454 236 657 519 506 418 b 529 -4 408 72 469 -19 b 689 11 588 11 621 19 l 692 25 b 628 146 632 32 622 88 z "},"i":{"ha":389,"x_min":0,"x_max":0,"o":"m 92 835 b 200 875 117 868 126 865 b 207 988 272 886 257 969 b 58 986 156 1006 83 993 b 35 900 35 979 -1 939 b 86 835 71 860 86 850 z m 376 686 b 293 879 413 728 421 885 b 61 739 183 874 175 772 b 46 736 51 738 46 736 b 151 367 188 665 207 474 b 246 11 74 213 -44 6 l 246 25 b 354 385 14 33 303 243 b 111 738 414 546 353 703 b 199 783 132 742 147 757 b 367 689 279 825 397 774 l 375 686 z "},"j":{"ha":406,"x_min":0,"x_max":0,"o":"m 111 738 b 196 783 131 743 146 758 b 363 689 276 825 394 774 l 372 686 b 290 879 410 728 418 885 b 50 736 176 874 171 767 b 44 733 47 735 44 733 b 164 369 189 669 215 478 b 190 72 110 251 133 144 b 226 -164 254 -7 300 -89 b -58 -61 143 -250 -42 -169 l -71 -61 b -37 -346 -76 -92 -96 -319 b 275 24 258 -482 381 -140 b 375 394 185 164 332 260 b 111 738 426 557 353 713 z m 85 835 l 90 835 b 199 875 115 868 125 865 b 206 988 271 886 256 969 b 57 986 154 1006 82 993 b 33 900 33 979 -4 939 b 85 835 69 860 85 850 z "},"k":{"ha":826,"x_min":0,"x_max":0,"o":"m 725 138 b 685 336 689 150 679 221 b 447 450 689 453 579 504 b 488 542 447 450 468 507 b 610 619 508 576 575 663 b 560 494 646 576 621 514 b 718 533 560 494 651 481 b 788 739 783 585 814 681 b 636 808 760 797 711 831 b 476 614 563 788 519 719 b 358 444 432 507 417 453 b 260 481 314 438 286 451 b 210 582 244 510 228 543 b 228 957 121 783 161 918 b 301 753 286 992 347 926 b 371 578 257 582 371 578 b 415 663 343 622 415 663 b 417 908 415 663 532 757 b 86 582 296 1067 -37 974 b 92 -107 211 190 92 -107 b 104 -107 94 -110 100 -111 b 400 13 188 10 400 13 b 399 25 400 14 403 25 b 313 204 304 32 264 81 b 329 258 321 224 325 242 b 492 419 346 317 410 449 b 510 226 578 390 567 310 b 590 7 453 142 453 1 b 781 200 726 11 793 163 b 725 138 781 200 761 124 z "},"l":{"ha":463,"x_min":0,"x_max":0,"o":"m 417 908 b 86 582 296 1067 -37 974 b 92 -107 211 190 92 -107 b 104 -107 94 -110 100 -112 b 400 13 188 10 400 13 b 399 25 400 14 403 25 b 313 204 304 31 264 81 b 210 582 367 336 299 382 b 228 957 121 783 161 917 b 301 753 286 992 347 926 b 371 578 257 582 371 578 b 415 663 343 622 415 663 b 417 908 415 663 532 757 z "},"m":{"ha":1165,"x_min":0,"x_max":0,"o":"m 957 792 b 758 606 897 789 821 697 b 729 722 763 643 754 682 b 417 694 636 872 486 765 b 299 661 378 656 332 654 b 110 738 257 699 194 725 b 197 783 131 742 144 757 b 364 689 276 825 396 774 l 374 686 b 292 879 411 728 419 885 b 60 739 181 874 172 772 b 44 736 50 738 44 736 b 150 367 186 665 204 474 b 243 11 72 213 -46 6 l 244 25 b 353 385 13 35 300 243 b 331 626 385 474 381 561 b 608 496 531 642 592 632 b 465 290 621 393 553 354 b 367 51 378 226 293 128 b 681 24 447 -29 681 24 b 568 311 500 65 507 219 b 704 474 593 350 657 406 b 928 581 756 519 863 604 b 915 411 989 558 1063 458 b 694 133 785 369 656 267 b 1053 56 747 -50 1008 10 b 1065 219 1103 104 1121 122 b 1067 350 1010 317 1067 350 b 965 190 1067 350 929 319 b 1031 125 974 163 1017 147 b 944 88 1057 81 989 58 b 908 258 903 115 889 186 b 1143 546 949 403 1125 450 b 957 792 1161 643 1150 803 z "},"n":{"ha":747,"x_min":0,"x_max":0,"o":"m 568 311 b 729 722 621 390 839 546 b 417 694 636 872 486 765 b 299 661 378 656 332 654 b 110 738 257 699 194 725 b 197 783 131 742 144 757 b 364 689 276 825 396 774 l 374 686 b 292 879 411 728 419 885 b 60 739 181 874 172 772 b 44 736 50 738 44 736 b 150 367 186 665 204 474 b 243 11 72 213 -46 6 l 244 25 b 353 385 13 35 300 243 b 331 626 385 474 381 561 b 608 496 531 642 592 632 b 465 290 621 393 553 354 b 367 51 378 226 293 128 b 681 24 447 -29 681 24 b 568 311 500 65 507 219 z "},"o":{"ha":738,"x_min":0,"x_max":0,"o":"m 563 651 b 426 726 521 644 458 674 b 101 724 360 836 217 846 b 86 381 1 618 65 463 b 94 125 104 306 76 183 b 533 86 144 -39 397 -1 b 719 567 708 201 719 371 b 563 651 719 650 635 663 z m 440 153 b 246 436 189 94 297 336 b 169 689 213 500 58 551 b 332 719 235 769 304 765 b 344 563 349 692 338 608 b 590 482 368 410 515 529 b 440 153 710 407 693 211 z "},"p":{"ha":831,"x_min":0,"x_max":0,"o":"m 514 793 b 199 386 314 807 182 617 b 206 307 200 354 203 328 b 272 719 118 569 260 678 b 278 767 278 735 282 751 b 74 729 257 839 89 786 b 139 599 74 729 192 760 b 22 276 100 479 -8 460 b 214 -40 44 147 169 124 b -62 -119 256 -196 -50 -296 b -43 -387 -62 -119 -147 -287 b 265 -197 60 -487 218 -403 b 250 164 297 -58 283 46 b 311 672 239 271 217 557 b 575 543 446 835 518 703 b 599 129 633 382 643 211 b 432 146 558 54 483 39 b 464 447 375 267 421 364 b 472 632 506 532 472 632 l 378 592 b 411 440 426 549 428 499 b 314 150 388 353 293 308 b 596 25 332 -3 538 0 b 790 288 647 49 751 75 b 514 793 829 499 715 781 z "},"q":{"ha":846,"x_min":0,"x_max":0,"o":"m 750 -125 b 424 -336 606 -146 535 -287 b 474 -75 232 -419 25 -247 b 796 297 743 28 796 186 b 660 607 796 406 706 510 b 747 754 590 749 728 793 b 708 631 768 715 708 672 b 779 543 710 588 779 543 b 831 657 779 543 804 568 b 578 592 883 840 571 889 b 242 738 511 757 394 774 b 39 332 51 693 -12 435 b 194 149 82 244 154 228 b 253 43 222 94 225 78 b 510 144 322 -46 510 15 b 344 378 510 274 361 249 b 465 442 326 526 465 442 l 492 485 b 308 371 381 560 307 450 b 411 90 310 285 417 171 b 243 179 403 -3 264 28 b 206 469 226 300 190 292 b 489 617 217 599 350 722 b 594 424 544 575 572 493 b 607 232 599 375 600 319 b 399 -51 622 7 474 -18 b 151 -253 321 -85 156 -149 b 426 -376 143 -431 346 -417 b 738 -275 526 -328 622 -249 b 825 -422 846 -300 825 -422 b 750 -125 958 -308 946 -99 z "},"r":{"ha":661,"x_min":0,"x_max":0,"o":"m 443 814 b 167 726 275 806 304 750 b 86 740 143 732 115 738 b 44 736 61 740 44 736 b 150 367 186 665 204 474 b 243 11 72 213 -46 6 l 244 25 b 353 385 13 33 300 243 b 278 678 394 499 376 610 b 278 679 278 679 278 679 b 449 726 225 736 358 800 b 454 344 511 675 503 418 b 504 222 422 294 433 233 l 506 229 b 471 336 456 239 446 288 b 646 485 504 399 590 393 b 443 814 756 683 572 819 z "},"s":{"ha":713,"x_min":0,"x_max":0,"o":"m 554 449 b 154 614 419 526 199 444 b 332 675 111 783 329 788 b 414 518 333 592 349 547 b 682 657 583 442 694 557 b 549 776 674 717 604 813 b 490 686 493 740 490 686 b 640 642 493 717 624 721 b 492 618 664 531 567 518 b 232 796 415 721 350 817 b 96 463 92 772 -18 603 b 536 204 244 278 503 394 b 310 118 561 60 397 -8 b 104 385 208 265 222 389 b 44 290 56 383 35 332 b 114 249 58 239 114 249 b 114 339 114 249 67 326 b 175 204 153 347 197 313 b 321 25 153 94 188 64 b 636 153 494 -26 588 83 b 554 449 683 224 688 371 z "},"t":{"ha":483,"x_min":0,"x_max":0,"o":"m 258 719 b 175 894 200 757 154 797 b 129 719 175 894 71 810 b 160 679 140 703 150 690 b 61 726 71 658 61 719 b 44 722 61 733 44 722 b 125 636 47 672 67 636 b 186 649 143 636 164 642 b 250 494 221 611 247 581 b 154 118 258 317 100 297 b 382 13 197 -22 382 13 b 307 183 382 13 243 94 b 429 546 371 272 474 397 b 299 694 406 624 351 663 b 494 689 364 718 432 732 b 511 722 507 675 510 714 b 258 719 532 874 372 779 z "},"u":{"ha":764,"x_min":0,"x_max":0,"o":"m 571 208 b 711 663 604 383 728 518 b 646 803 697 781 646 803 l 443 801 b 644 656 443 801 613 743 b 554 442 676 568 639 503 b 318 236 497 411 417 350 b 104 231 233 136 69 83 b 288 801 138 378 453 475 l 58 801 b 142 532 58 801 183 725 b 63 188 108 372 53 314 b 308 38 69 94 167 -43 b 429 172 356 64 394 114 b 450 76 429 138 436 104 b 714 15 486 6 528 10 b 571 208 714 15 543 63 z "},"v":{"ha":701,"x_min":0,"x_max":0,"o":"m 700 485 b 679 625 700 485 642 535 b 572 792 715 715 714 819 b 383 447 403 758 351 558 b 476 83 415 335 557 193 b 233 236 378 -50 196 89 b 290 690 271 383 382 554 b 49 793 197 828 49 793 b 125 513 49 793 147 757 b 193 85 104 267 121 165 b 535 69 261 8 411 -36 b 533 514 697 208 551 338 b 638 753 515 678 579 744 b 614 633 696 761 674 706 b 700 485 572 582 567 474 z "},"w":{"ha":897,"x_min":0,"x_max":0,"o":"m 856 744 b 517 681 763 883 557 822 b 576 404 492 593 508 479 b 646 88 664 307 721 119 b 489 243 561 51 515 168 b 388 493 503 408 446 475 b 385 256 388 493 436 401 b 186 50 356 172 271 57 b 192 319 54 40 100 214 b 351 679 339 490 385 554 b 54 788 315 821 68 813 b 182 604 54 788 183 758 b 68 83 182 449 -1 226 b 478 174 136 -54 433 26 b 754 36 521 42 636 -31 b 714 382 903 119 818 256 b 579 654 638 475 585 575 b 794 706 568 836 794 793 b 714 499 797 569 714 499 b 856 547 708 478 818 500 b 856 744 888 585 904 672 z "},"x":{"ha":640,"x_min":0,"x_max":0,"o":"m 554 214 b 553 339 540 254 540 299 l 558 339 b 456 278 517 339 475 314 b 465 158 436 240 439 192 b 494 124 475 147 486 138 b 506 81 503 110 507 99 b 500 65 504 75 503 69 b 472 47 494 56 483 49 b 400 74 443 40 421 54 b 383 229 358 111 375 178 b 410 406 392 292 401 350 b 606 651 540 457 607 538 b 493 804 603 789 493 804 b 478 557 554 779 550 628 b 421 506 457 536 439 519 b 364 746 429 607 419 689 b 89 756 264 844 121 796 b 57 367 11 660 171 449 b 149 604 57 367 314 451 b 228 708 51 696 151 829 b 257 397 283 619 267 569 b 126 301 222 375 181 346 b 76 13 -53 156 76 13 l 224 13 b 254 351 78 142 118 285 b 253 297 253 335 253 317 b 300 82 250 228 261 140 b 500 21 338 26 432 -4 b 578 150 551 39 588 96 b 554 214 574 172 563 192 z "},"y":{"ha":875,"x_min":0,"x_max":0,"o":"m 822 564 b 872 738 839 614 881 683 b 617 783 856 858 679 844 b 514 500 576 744 515 618 b 189 321 483 267 206 232 b 401 692 171 485 443 472 b 49 633 360 911 42 793 l 58 636 b 186 657 89 742 196 785 b 75 311 174 485 29 490 b 522 425 114 151 446 179 b 618 297 535 374 564 328 b 739 88 771 214 763 139 b 486 86 704 14 614 -21 b 133 133 357 193 206 206 b 124 -14 53 53 124 -14 b 156 110 101 32 107 83 b 379 -44 206 135 300 47 b 625 -79 443 -117 564 -117 b 788 206 711 -28 804 43 b 643 499 771 369 724 396 b 711 803 560 608 601 767 b 742 668 835 842 763 703 b 725 504 711 622 694 550 b 863 467 785 413 863 467 b 822 564 811 469 806 510 z "},"z":{"ha":697,"x_min":0,"x_max":0,"o":"m 539 361 b 565 229 539 361 594 308 b 244 86 526 125 378 56 b 271 279 151 108 143 206 b 651 472 400 354 592 418 b 636 617 700 515 690 590 b 346 675 589 639 371 596 b 71 663 303 811 89 882 b 113 494 65 610 81 550 l 242 572 b 150 675 242 572 168 613 b 253 713 132 743 253 810 b 400 572 253 615 281 524 b 576 560 519 621 611 592 b 104 383 518 508 279 521 b 92 51 28 324 -47 150 b 576 156 240 -54 493 75 b 663 401 658 236 674 324 z "},"{":{"ha":1085,"x_min":0,"x_max":0,"o":"m 311 936 l 311 865 l 363 865 l 363 833 l 311 833 l 311 596 l 250 596 l 250 968 l 392 968 l 392 936 z m 474 844 l 461 844 l 461 596 l 400 596 l 400 968 l 494 968 b 565 907 535 968 565 951 b 521 847 565 872 549 854 l 574 596 l 503 596 z m 461 864 b 494 901 485 864 494 875 b 461 938 494 926 485 938 z m 650 936 l 650 865 l 703 865 l 703 833 l 650 833 l 650 628 l 731 628 l 731 596 l 589 596 l 589 968 l 731 968 l 731 936 z m 804 936 l 804 865 l 857 865 l 857 833 l 804 833 l 804 628 l 886 628 l 886 596 l 744 596 l 744 968 l 886 968 l 886 936 z m 390 483 l 343 483 l 343 143 l 283 143 l 283 483 l 236 483 l 236 515 l 390 515 z m 475 392 l 463 392 l 463 143 l 401 143 l 401 515 l 496 515 b 567 454 536 515 567 499 b 522 396 567 419 549 401 l 575 143 l 504 143 z m 463 411 b 496 449 486 411 496 422 b 463 485 496 474 486 485 z m 590 143 l 590 515 l 651 515 l 651 143 z m 776 288 l 750 288 l 739 143 l 668 143 l 707 515 l 818 515 l 857 143 l 786 143 z m 775 313 l 765 454 l 761 454 l 751 313 z m 1015 175 l 1015 143 l 874 143 l 874 515 l 935 515 l 935 175 z m 271 7 b 271 4 271 6 271 4 b 276 -1 271 0 274 -1 b 283 0 279 -1 282 -1 l 286 -12 b 272 -15 282 -15 276 -15 b 254 1 261 -15 254 -10 b 256 7 254 3 254 4 l 260 31 l 251 31 l 253 44 l 263 44 l 265 60 l 281 60 l 278 44 l 292 44 l 290 31 l 276 31 z m 360 46 l 322 -19 b 297 -37 314 -33 308 -37 b 282 -32 292 -37 285 -36 l 289 -19 b 299 -24 292 -22 294 -24 b 308 -17 303 -24 306 -21 l 310 -15 l 296 46 l 313 46 l 321 4 l 344 46 z m 422 19 b 392 -15 422 -1 408 -15 b 374 -7 383 -15 376 -12 l 368 -37 l 351 -37 l 367 46 l 382 46 l 381 40 b 397 47 385 44 392 47 b 422 19 411 47 422 36 z m 406 18 b 393 32 406 26 401 32 b 376 13 383 32 376 24 b 389 -1 376 4 381 -1 b 406 18 399 -1 406 7 z m 486 11 l 444 11 b 458 -1 444 3 449 -1 b 474 4 464 -1 469 0 l 481 -8 b 457 -15 474 -14 465 -15 b 428 11 439 -15 428 -6 b 461 47 428 32 442 47 b 488 19 478 47 488 36 b 486 11 488 17 488 14 z m 444 21 l 472 21 b 460 33 472 29 468 33 b 444 21 453 33 447 28 z m 521 47 l 521 44 l 535 44 l 532 31 l 519 31 l 510 -15 l 494 -15 l 503 31 l 494 31 l 496 44 l 506 44 l 506 47 b 531 69 508 61 517 69 b 543 67 535 69 540 68 l 536 54 b 531 56 535 56 532 56 b 521 47 525 56 522 53 z m 600 46 l 589 -15 l 574 -15 l 574 -10 b 557 -15 569 -14 564 -15 b 533 11 544 -15 533 -6 b 564 47 533 32 546 47 b 582 38 572 47 578 43 l 583 46 z m 578 18 b 565 32 578 26 574 32 b 549 13 556 32 549 24 b 563 -1 549 4 554 -1 b 578 18 571 -1 578 7 z m 604 11 b 639 47 604 32 618 47 b 664 31 650 47 660 42 l 650 24 b 638 32 647 29 643 32 b 621 13 628 32 621 24 b 633 -1 621 4 625 -1 b 647 7 639 -1 644 1 l 660 -1 b 633 -15 654 -11 644 -15 b 604 11 615 -15 604 -6 z m 688 7 b 688 4 688 6 688 4 b 693 -1 688 0 689 -1 b 700 0 696 -1 697 -1 l 701 -12 b 688 -15 699 -15 693 -15 b 671 1 678 -15 671 -10 b 671 7 671 3 671 4 l 675 31 l 667 31 l 669 44 l 678 44 l 681 60 l 697 60 l 694 44 l 708 44 l 706 31 l 692 31 z m 710 11 b 743 47 710 32 724 47 b 772 19 761 47 772 36 b 738 -15 772 -1 758 -15 b 710 11 721 -15 710 -6 z m 756 18 b 743 32 756 26 750 32 b 726 13 733 32 726 24 b 739 -1 726 4 731 -1 b 756 18 749 -1 756 7 z m 822 47 l 819 31 b 815 31 818 31 817 31 b 799 14 807 31 800 26 l 793 -15 l 776 -15 l 788 46 l 803 46 l 801 39 b 822 47 807 44 814 47 z m 889 46 l 853 -19 b 826 -37 844 -33 838 -37 b 811 -32 821 -37 815 -36 l 819 -19 b 828 -24 821 -22 825 -24 b 838 -17 832 -24 835 -21 l 839 -15 l 826 46 l 842 46 l 850 4 l 874 46 z m 879 -6 b 890 6 879 1 885 6 b 900 -4 896 6 900 1 b 889 -15 900 -11 894 -15 b 879 -6 883 -15 879 -11 z m 910 11 b 943 47 910 32 924 47 b 968 31 956 47 964 42 l 954 24 b 942 32 953 29 947 32 b 925 13 932 32 925 24 b 939 -1 925 4 931 -1 b 953 7 944 -1 949 1 l 964 -1 b 938 -15 958 -11 949 -15 b 910 11 921 -15 910 -6 z m 969 11 b 1003 47 969 32 983 47 b 1032 19 1021 47 1032 36 b 997 -15 1032 -1 1018 -15 b 969 11 981 -15 969 -6 z m 1015 18 b 1003 32 1015 26 1011 32 b 986 13 993 32 986 24 b 999 -1 986 4 990 -1 b 1015 18 1008 -1 1015 7 z m 88 -64 l 143 -64 l 143 1019 l 88 1019 z "},"|":{"ha":1085,"x_min":0,"x_max":0,"o":"m 311 936 l 311 865 l 363 865 l 363 833 l 311 833 l 311 596 l 250 596 l 250 968 l 392 968 l 392 936 z m 474 844 l 461 844 l 461 596 l 400 596 l 400 968 l 494 968 b 565 907 535 968 565 951 b 521 847 565 872 549 854 l 574 596 l 503 596 z m 461 864 b 494 901 485 864 494 875 b 461 938 494 926 485 938 z m 650 936 l 650 865 l 703 865 l 703 833 l 650 833 l 650 628 l 731 628 l 731 596 l 589 596 l 589 968 l 731 968 l 731 936 z m 804 936 l 804 865 l 857 865 l 857 833 l 804 833 l 804 628 l 886 628 l 886 596 l 744 596 l 744 968 l 886 968 l 886 936 z m 390 483 l 343 483 l 343 143 l 283 143 l 283 483 l 236 483 l 236 515 l 390 515 z m 475 392 l 463 392 l 463 143 l 401 143 l 401 515 l 496 515 b 567 454 536 515 567 499 b 522 396 567 419 549 401 l 575 143 l 504 143 z m 463 411 b 496 449 486 411 496 422 b 463 485 496 474 486 485 z m 590 143 l 590 515 l 651 515 l 651 143 z m 776 288 l 750 288 l 739 143 l 668 143 l 707 515 l 818 515 l 857 143 l 786 143 z m 775 313 l 765 454 l 761 454 l 751 313 z m 1015 175 l 1015 143 l 874 143 l 874 515 l 935 515 l 935 175 z m 271 7 b 271 4 271 6 271 4 b 276 -1 271 0 274 -1 b 283 0 279 -1 282 -1 l 286 -12 b 272 -15 282 -15 276 -15 b 254 1 261 -15 254 -10 b 256 7 254 3 254 4 l 260 31 l 251 31 l 253 44 l 263 44 l 265 60 l 281 60 l 278 44 l 292 44 l 290 31 l 276 31 z m 360 46 l 322 -19 b 297 -37 314 -33 308 -37 b 282 -32 292 -37 285 -36 l 289 -19 b 299 -24 292 -22 294 -24 b 308 -17 303 -24 306 -21 l 310 -15 l 296 46 l 313 46 l 321 4 l 344 46 z m 422 19 b 392 -15 422 -1 408 -15 b 374 -7 383 -15 376 -12 l 368 -37 l 351 -37 l 367 46 l 382 46 l 381 40 b 397 47 385 44 392 47 b 422 19 411 47 422 36 z m 406 18 b 393 32 406 26 401 32 b 376 13 383 32 376 24 b 389 -1 376 4 381 -1 b 406 18 399 -1 406 7 z m 486 11 l 444 11 b 458 -1 444 3 449 -1 b 474 4 464 -1 469 0 l 481 -8 b 457 -15 474 -14 465 -15 b 428 11 439 -15 428 -6 b 461 47 428 32 442 47 b 488 19 478 47 488 36 b 486 11 488 17 488 14 z m 444 21 l 472 21 b 460 33 472 29 468 33 b 444 21 453 33 447 28 z m 521 47 l 521 44 l 535 44 l 532 31 l 519 31 l 510 -15 l 494 -15 l 503 31 l 494 31 l 496 44 l 506 44 l 506 47 b 531 69 508 61 517 69 b 543 67 535 69 540 68 l 536 54 b 531 56 535 56 532 56 b 521 47 525 56 522 53 z m 600 46 l 589 -15 l 574 -15 l 574 -10 b 557 -15 569 -14 564 -15 b 533 11 544 -15 533 -6 b 564 47 533 32 546 47 b 582 38 572 47 578 43 l 583 46 z m 578 18 b 565 32 578 26 574 32 b 549 13 556 32 549 24 b 563 -1 549 4 554 -1 b 578 18 571 -1 578 7 z m 604 11 b 639 47 604 32 618 47 b 664 31 650 47 660 42 l 650 24 b 638 32 647 29 643 32 b 621 13 628 32 621 24 b 633 -1 621 4 625 -1 b 647 7 639 -1 644 1 l 660 -1 b 633 -15 654 -11 644 -15 b 604 11 615 -15 604 -6 z m 688 7 b 688 4 688 6 688 4 b 693 -1 688 0 689 -1 b 700 0 696 -1 697 -1 l 701 -12 b 688 -15 699 -15 693 -15 b 671 1 678 -15 671 -10 b 671 7 671 3 671 4 l 675 31 l 667 31 l 669 44 l 678 44 l 681 60 l 697 60 l 694 44 l 708 44 l 706 31 l 692 31 z m 710 11 b 743 47 710 32 724 47 b 772 19 761 47 772 36 b 738 -15 772 -1 758 -15 b 710 11 721 -15 710 -6 z m 756 18 b 743 32 756 26 750 32 b 726 13 733 32 726 24 b 739 -1 726 4 731 -1 b 756 18 749 -1 756 7 z m 822 47 l 819 31 b 815 31 818 31 817 31 b 799 14 807 31 800 26 l 793 -15 l 776 -15 l 788 46 l 803 46 l 801 39 b 822 47 807 44 814 47 z m 889 46 l 853 -19 b 826 -37 844 -33 838 -37 b 811 -32 821 -37 815 -36 l 819 -19 b 828 -24 821 -22 825 -24 b 838 -17 832 -24 835 -21 l 839 -15 l 826 46 l 842 46 l 850 4 l 874 46 z m 879 -6 b 890 6 879 1 885 6 b 900 -4 896 6 900 1 b 889 -15 900 -11 894 -15 b 879 -6 883 -15 879 -11 z m 910 11 b 943 47 910 32 924 47 b 968 31 956 47 964 42 l 954 24 b 942 32 953 29 947 32 b 925 13 932 32 925 24 b 939 -1 925 4 931 -1 b 953 7 944 -1 949 1 l 964 -1 b 938 -15 958 -11 949 -15 b 910 11 921 -15 910 -6 z m 969 11 b 1003 47 969 32 983 47 b 1032 19 1021 47 1032 36 b 997 -15 1032 -1 1018 -15 b 969 11 981 -15 969 -6 z m 1015 18 b 1003 32 1015 26 1011 32 b 986 13 993 32 986 24 b 999 -1 986 4 990 -1 b 1015 18 1008 -1 1015 7 z m 88 -64 l 143 -64 l 143 1019 l 88 1019 z "},"}":{"ha":1085,"x_min":0,"x_max":0,"o":"m 311 936 l 311 865 l 363 865 l 363 833 l 311 833 l 311 596 l 250 596 l 250 968 l 392 968 l 392 936 z m 474 844 l 461 844 l 461 596 l 400 596 l 400 968 l 494 968 b 565 907 535 968 565 951 b 521 847 565 872 549 854 l 574 596 l 503 596 z m 461 864 b 494 901 485 864 494 875 b 461 938 494 926 485 938 z m 650 936 l 650 865 l 703 865 l 703 833 l 650 833 l 650 628 l 731 628 l 731 596 l 589 596 l 589 968 l 731 968 l 731 936 z m 804 936 l 804 865 l 857 865 l 857 833 l 804 833 l 804 628 l 886 628 l 886 596 l 744 596 l 744 968 l 886 968 l 886 936 z m 390 483 l 343 483 l 343 143 l 283 143 l 283 483 l 236 483 l 236 515 l 390 515 z m 475 392 l 463 392 l 463 143 l 401 143 l 401 515 l 496 515 b 567 454 536 515 567 499 b 522 396 567 419 549 401 l 575 143 l 504 143 z m 463 411 b 496 449 486 411 496 422 b 463 485 496 474 486 485 z m 590 143 l 590 515 l 651 515 l 651 143 z m 776 288 l 750 288 l 739 143 l 668 143 l 707 515 l 818 515 l 857 143 l 786 143 z m 775 313 l 765 454 l 761 454 l 751 313 z m 1015 175 l 1015 143 l 874 143 l 874 515 l 935 515 l 935 175 z m 271 7 b 271 4 271 6 271 4 b 276 -1 271 0 274 -1 b 283 0 279 -1 282 -1 l 286 -12 b 272 -15 282 -15 276 -15 b 254 1 261 -15 254 -10 b 256 7 254 3 254 4 l 260 31 l 251 31 l 253 44 l 263 44 l 265 60 l 281 60 l 278 44 l 292 44 l 290 31 l 276 31 z m 360 46 l 322 -19 b 297 -37 314 -33 308 -37 b 282 -32 292 -37 285 -36 l 289 -19 b 299 -24 292 -22 294 -24 b 308 -17 303 -24 306 -21 l 310 -15 l 296 46 l 313 46 l 321 4 l 344 46 z m 422 19 b 392 -15 422 -1 408 -15 b 374 -7 383 -15 376 -12 l 368 -37 l 351 -37 l 367 46 l 382 46 l 381 40 b 397 47 385 44 392 47 b 422 19 411 47 422 36 z m 406 18 b 393 32 406 26 401 32 b 376 13 383 32 376 24 b 389 -1 376 4 381 -1 b 406 18 399 -1 406 7 z m 486 11 l 444 11 b 458 -1 444 3 449 -1 b 474 4 464 -1 469 0 l 481 -8 b 457 -15 474 -14 465 -15 b 428 11 439 -15 428 -6 b 461 47 428 32 442 47 b 488 19 478 47 488 36 b 486 11 488 17 488 14 z m 444 21 l 472 21 b 460 33 472 29 468 33 b 444 21 453 33 447 28 z m 521 47 l 521 44 l 535 44 l 532 31 l 519 31 l 510 -15 l 494 -15 l 503 31 l 494 31 l 496 44 l 506 44 l 506 47 b 531 69 508 61 517 69 b 543 67 535 69 540 68 l 536 54 b 531 56 535 56 532 56 b 521 47 525 56 522 53 z m 600 46 l 589 -15 l 574 -15 l 574 -10 b 557 -15 569 -14 564 -15 b 533 11 544 -15 533 -6 b 564 47 533 32 546 47 b 582 38 572 47 578 43 l 583 46 z m 578 18 b 565 32 578 26 574 32 b 549 13 556 32 549 24 b 563 -1 549 4 554 -1 b 578 18 571 -1 578 7 z m 604 11 b 639 47 604 32 618 47 b 664 31 650 47 660 42 l 650 24 b 638 32 647 29 643 32 b 621 13 628 32 621 24 b 633 -1 621 4 625 -1 b 647 7 639 -1 644 1 l 660 -1 b 633 -15 654 -11 644 -15 b 604 11 615 -15 604 -6 z m 688 7 b 688 4 688 6 688 4 b 693 -1 688 0 689 -1 b 700 0 696 -1 697 -1 l 701 -12 b 688 -15 699 -15 693 -15 b 671 1 678 -15 671 -10 b 671 7 671 3 671 4 l 675 31 l 667 31 l 669 44 l 678 44 l 681 60 l 697 60 l 694 44 l 708 44 l 706 31 l 692 31 z m 710 11 b 743 47 710 32 724 47 b 772 19 761 47 772 36 b 738 -15 772 -1 758 -15 b 710 11 721 -15 710 -6 z m 756 18 b 743 32 756 26 750 32 b 726 13 733 32 726 24 b 739 -1 726 4 731 -1 b 756 18 749 -1 756 7 z m 822 47 l 819 31 b 815 31 818 31 817 31 b 799 14 807 31 800 26 l 793 -15 l 776 -15 l 788 46 l 803 46 l 801 39 b 822 47 807 44 814 47 z m 889 46 l 853 -19 b 826 -37 844 -33 838 -37 b 811 -32 821 -37 815 -36 l 819 -19 b 828 -24 821 -22 825 -24 b 838 -17 832 -24 835 -21 l 839 -15 l 826 46 l 842 46 l 850 4 l 874 46 z m 879 -6 b 890 6 879 1 885 6 b 900 -4 896 6 900 1 b 889 -15 900 -11 894 -15 b 879 -6 883 -15 879 -11 z m 910 11 b 943 47 910 32 924 47 b 968 31 956 47 964 42 l 954 24 b 942 32 953 29 947 32 b 925 13 932 32 925 24 b 939 -1 925 4 931 -1 b 953 7 944 -1 949 1 l 964 -1 b 938 -15 958 -11 949 -15 b 910 11 921 -15 910 -6 z m 969 11 b 1003 47 969 32 983 47 b 1032 19 1021 47 1032 36 b 997 -15 1032 -1 1018 -15 b 969 11 981 -15 969 -6 z m 1015 18 b 1003 32 1015 26 1011 32 b 986 13 993 32 986 24 b 999 -1 986 4 990 -1 b 1015 18 1008 -1 1015 7 z m 88 -64 l 143 -64 l 143 1019 l 88 1019 z "},"~":{"ha":1085,"x_min":0,"x_max":0,"o":"m 311 936 l 311 865 l 363 865 l 363 833 l 311 833 l 311 596 l 250 596 l 250 968 l 392 968 l 392 936 z m 474 844 l 461 844 l 461 596 l 400 596 l 400 968 l 494 968 b 565 907 535 968 565 951 b 521 847 565 872 549 854 l 574 596 l 503 596 z m 461 864 b 494 901 485 864 494 875 b 461 938 494 926 485 938 z m 650 936 l 650 865 l 703 865 l 703 833 l 650 833 l 650 628 l 731 628 l 731 596 l 589 596 l 589 968 l 731 968 l 731 936 z m 804 936 l 804 865 l 857 865 l 857 833 l 804 833 l 804 628 l 886 628 l 886 596 l 744 596 l 744 968 l 886 968 l 886 936 z m 390 483 l 343 483 l 343 143 l 283 143 l 283 483 l 236 483 l 236 515 l 390 515 z m 475 392 l 463 392 l 463 143 l 401 143 l 401 515 l 496 515 b 567 454 536 515 567 499 b 522 396 567 419 549 401 l 575 143 l 504 143 z m 463 411 b 496 449 486 411 496 422 b 463 485 496 474 486 485 z m 590 143 l 590 515 l 651 515 l 651 143 z m 776 288 l 750 288 l 739 143 l 668 143 l 707 515 l 818 515 l 857 143 l 786 143 z m 775 313 l 765 454 l 761 454 l 751 313 z m 1015 175 l 1015 143 l 874 143 l 874 515 l 935 515 l 935 175 z m 271 7 b 271 4 271 6 271 4 b 276 -1 271 0 274 -1 b 283 0 279 -1 282 -1 l 286 -12 b 272 -15 282 -15 276 -15 b 254 1 261 -15 254 -10 b 256 7 254 3 254 4 l 260 31 l 251 31 l 253 44 l 263 44 l 265 60 l 281 60 l 278 44 l 292 44 l 290 31 l 276 31 z m 360 46 l 322 -19 b 297 -37 314 -33 308 -37 b 282 -32 292 -37 285 -36 l 289 -19 b 299 -24 292 -22 294 -24 b 308 -17 303 -24 306 -21 l 310 -15 l 296 46 l 313 46 l 321 4 l 344 46 z m 422 19 b 392 -15 422 -1 408 -15 b 374 -7 383 -15 376 -12 l 368 -37 l 351 -37 l 367 46 l 382 46 l 381 40 b 397 47 385 44 392 47 b 422 19 411 47 422 36 z m 406 18 b 393 32 406 26 401 32 b 376 13 383 32 376 24 b 389 -1 376 4 381 -1 b 406 18 399 -1 406 7 z m 486 11 l 444 11 b 458 -1 444 3 449 -1 b 474 4 464 -1 469 0 l 481 -8 b 457 -15 474 -14 465 -15 b 428 11 439 -15 428 -6 b 461 47 428 32 442 47 b 488 19 478 47 488 36 b 486 11 488 17 488 14 z m 444 21 l 472 21 b 460 33 472 29 468 33 b 444 21 453 33 447 28 z m 521 47 l 521 44 l 535 44 l 532 31 l 519 31 l 510 -15 l 494 -15 l 503 31 l 494 31 l 496 44 l 506 44 l 506 47 b 531 69 508 61 517 69 b 543 67 535 69 540 68 l 536 54 b 531 56 535 56 532 56 b 521 47 525 56 522 53 z m 600 46 l 589 -15 l 574 -15 l 574 -10 b 557 -15 569 -14 564 -15 b 533 11 544 -15 533 -6 b 564 47 533 32 546 47 b 582 38 572 47 578 43 l 583 46 z m 578 18 b 565 32 578 26 574 32 b 549 13 556 32 549 24 b 563 -1 549 4 554 -1 b 578 18 571 -1 578 7 z m 604 11 b 639 47 604 32 618 47 b 664 31 650 47 660 42 l 650 24 b 638 32 647 29 643 32 b 621 13 628 32 621 24 b 633 -1 621 4 625 -1 b 647 7 639 -1 644 1 l 660 -1 b 633 -15 654 -11 644 -15 b 604 11 615 -15 604 -6 z m 688 7 b 688 4 688 6 688 4 b 693 -1 688 0 689 -1 b 700 0 696 -1 697 -1 l 701 -12 b 688 -15 699 -15 693 -15 b 671 1 678 -15 671 -10 b 671 7 671 3 671 4 l 675 31 l 667 31 l 669 44 l 678 44 l 681 60 l 697 60 l 694 44 l 708 44 l 706 31 l 692 31 z m 710 11 b 743 47 710 32 724 47 b 772 19 761 47 772 36 b 738 -15 772 -1 758 -15 b 710 11 721 -15 710 -6 z m 756 18 b 743 32 756 26 750 32 b 726 13 733 32 726 24 b 739 -1 726 4 731 -1 b 756 18 749 -1 756 7 z m 822 47 l 819 31 b 815 31 818 31 817 31 b 799 14 807 31 800 26 l 793 -15 l 776 -15 l 788 46 l 803 46 l 801 39 b 822 47 807 44 814 47 z m 889 46 l 853 -19 b 826 -37 844 -33 838 -37 b 811 -32 821 -37 815 -36 l 819 -19 b 828 -24 821 -22 825 -24 b 838 -17 832 -24 835 -21 l 839 -15 l 826 46 l 842 46 l 850 4 l 874 46 z m 879 -6 b 890 6 879 1 885 6 b 900 -4 896 6 900 1 b 889 -15 900 -11 894 -15 b 879 -6 883 -15 879 -11 z m 910 11 b 943 47 910 32 924 47 b 968 31 956 47 964 42 l 954 24 b 942 32 953 29 947 32 b 925 13 932 32 925 24 b 939 -1 925 4 931 -1 b 953 7 944 -1 949 1 l 964 -1 b 938 -15 958 -11 949 -15 b 910 11 921 -15 910 -6 z m 969 11 b 1003 47 969 32 983 47 b 1032 19 1021 47 1032 36 b 997 -15 1032 -1 1018 -15 b 969 11 981 -15 969 -6 z m 1015 18 b 1003 32 1015 26 1011 32 b 986 13 993 32 986 24 b 999 -1 986 4 990 -1 b 1015 18 1008 -1 1015 7 z m 88 -64 l 143 -64 l 143 1019 l 88 1019 z "},"":{"ha":494,"x_min":0,"x_max":0,"o":""},"":{"ha":1085,"x_min":0,"x_max":0,"o":"m 311 936 l 311 865 l 363 865 l 363 833 l 311 833 l 311 596 l 250 596 l 250 968 l 392 968 l 392 936 z m 474 844 l 461 844 l 461 596 l 400 596 l 400 968 l 494 968 b 565 907 535 968 565 951 b 521 847 565 872 549 854 l 574 596 l 503 596 z m 461 864 b 494 901 485 864 494 875 b 461 938 494 926 485 938 z m 650 936 l 650 865 l 703 865 l 703 833 l 650 833 l 650 628 l 731 628 l 731 596 l 589 596 l 589 968 l 731 968 l 731 936 z m 804 936 l 804 865 l 857 865 l 857 833 l 804 833 l 804 628 l 886 628 l 886 596 l 744 596 l 744 968 l 886 968 l 886 936 z m 390 483 l 343 483 l 343 143 l 283 143 l 283 483 l 236 483 l 236 515 l 390 515 z m 475 392 l 463 392 l 463 143 l 401 143 l 401 515 l 496 515 b 567 454 536 515 567 499 b 522 396 567 419 549 401 l 575 143 l 504 143 z m 463 411 b 496 449 486 411 496 422 b 463 485 496 474 486 485 z m 590 143 l 590 515 l 651 515 l 651 143 z m 776 288 l 750 288 l 739 143 l 668 143 l 707 515 l 818 515 l 857 143 l 786 143 z m 775 313 l 765 454 l 761 454 l 751 313 z m 1015 175 l 1015 143 l 874 143 l 874 515 l 935 515 l 935 175 z m 271 7 b 271 4 271 6 271 4 b 276 -1 271 0 274 -1 b 283 0 279 -1 282 -1 l 286 -12 b 272 -15 282 -15 276 -15 b 254 1 261 -15 254 -10 b 256 7 254 3 254 4 l 260 31 l 251 31 l 253 44 l 263 44 l 265 60 l 281 60 l 278 44 l 292 44 l 290 31 l 276 31 z m 360 46 l 322 -19 b 297 -37 314 -33 308 -37 b 282 -32 292 -37 285 -36 l 289 -19 b 299 -24 292 -22 294 -24 b 308 -17 303 -24 306 -21 l 310 -15 l 296 46 l 313 46 l 321 4 l 344 46 z m 422 19 b 392 -15 422 -1 408 -15 b 374 -7 383 -15 376 -12 l 368 -37 l 351 -37 l 367 46 l 382 46 l 381 40 b 397 47 385 44 392 47 b 422 19 411 47 422 36 z m 406 18 b 393 32 406 26 401 32 b 376 13 383 32 376 24 b 389 -1 376 4 381 -1 b 406 18 399 -1 406 7 z m 486 11 l 444 11 b 458 -1 444 3 449 -1 b 474 4 464 -1 469 0 l 481 -8 b 457 -15 474 -14 465 -15 b 428 11 439 -15 428 -6 b 461 47 428 32 442 47 b 488 19 478 47 488 36 b 486 11 488 17 488 14 z m 444 21 l 472 21 b 460 33 472 29 468 33 b 444 21 453 33 447 28 z m 521 47 l 521 44 l 535 44 l 532 31 l 519 31 l 510 -15 l 494 -15 l 503 31 l 494 31 l 496 44 l 506 44 l 506 47 b 531 69 508 61 517 69 b 543 67 535 69 540 68 l 536 54 b 531 56 535 56 532 56 b 521 47 525 56 522 53 z m 600 46 l 589 -15 l 574 -15 l 574 -10 b 557 -15 569 -14 564 -15 b 533 11 544 -15 533 -6 b 564 47 533 32 546 47 b 582 38 572 47 578 43 l 583 46 z m 578 18 b 565 32 578 26 574 32 b 549 13 556 32 549 24 b 563 -1 549 4 554 -1 b 578 18 571 -1 578 7 z m 604 11 b 639 47 604 32 618 47 b 664 31 650 47 660 42 l 650 24 b 638 32 647 29 643 32 b 621 13 628 32 621 24 b 633 -1 621 4 625 -1 b 647 7 639 -1 644 1 l 660 -1 b 633 -15 654 -11 644 -15 b 604 11 615 -15 604 -6 z m 688 7 b 688 4 688 6 688 4 b 693 -1 688 0 689 -1 b 700 0 696 -1 697 -1 l 701 -12 b 688 -15 699 -15 693 -15 b 671 1 678 -15 671 -10 b 671 7 671 3 671 4 l 675 31 l 667 31 l 669 44 l 678 44 l 681 60 l 697 60 l 694 44 l 708 44 l 706 31 l 692 31 z m 710 11 b 743 47 710 32 724 47 b 772 19 761 47 772 36 b 738 -15 772 -1 758 -15 b 710 11 721 -15 710 -6 z m 756 18 b 743 32 756 26 750 32 b 726 13 733 32 726 24 b 739 -1 726 4 731 -1 b 756 18 749 -1 756 7 z m 822 47 l 819 31 b 815 31 818 31 817 31 b 799 14 807 31 800 26 l 793 -15 l 776 -15 l 788 46 l 803 46 l 801 39 b 822 47 807 44 814 47 z m 889 46 l 853 -19 b 826 -37 844 -33 838 -37 b 811 -32 821 -37 815 -36 l 819 -19 b 828 -24 821 -22 825 -24 b 838 -17 832 -24 835 -21 l 839 -15 l 826 46 l 842 46 l 850 4 l 874 46 z m 879 -6 b 890 6 879 1 885 6 b 900 -4 896 6 900 1 b 889 -15 900 -11 894 -15 b 879 -6 883 -15 879 -11 z m 910 11 b 943 47 910 32 924 47 b 968 31 956 47 964 42 l 954 24 b 942 32 953 29 947 32 b 925 13 932 32 925 24 b 939 -1 925 4 931 -1 b 953 7 944 -1 949 1 l 964 -1 b 938 -15 958 -11 949 -15 b 910 11 921 -15 910 -6 z m 969 11 b 1003 47 969 32 983 47 b 1032 19 1021 47 1032 36 b 997 -15 1032 -1 1018 -15 b 969 11 981 -15 969 -6 z m 1015 18 b 1003 32 1015 26 1011 32 b 986 13 993 32 986 24 b 999 -1 986 4 990 -1 b 1015 18 1008 -1 1015 7 z m 88 -64 l 143 -64 l 143 1019 l 88 1019 z "},"":{"ha":1085,"x_min":0,"x_max":0,"o":"m 311 936 l 311 865 l 363 865 l 363 833 l 311 833 l 311 596 l 250 596 l 250 968 l 392 968 l 392 936 z m 474 844 l 461 844 l 461 596 l 400 596 l 400 968 l 494 968 b 565 907 535 968 565 951 b 521 847 565 872 549 854 l 574 596 l 503 596 z m 461 864 b 494 901 485 864 494 875 b 461 938 494 926 485 938 z m 650 936 l 650 865 l 703 865 l 703 833 l 650 833 l 650 628 l 731 628 l 731 596 l 589 596 l 589 968 l 731 968 l 731 936 z m 804 936 l 804 865 l 857 865 l 857 833 l 804 833 l 804 628 l 886 628 l 886 596 l 744 596 l 744 968 l 886 968 l 886 936 z m 390 483 l 343 483 l 343 143 l 283 143 l 283 483 l 236 483 l 236 515 l 390 515 z m 475 392 l 463 392 l 463 143 l 401 143 l 401 515 l 496 515 b 567 454 536 515 567 499 b 522 396 567 419 549 401 l 575 143 l 504 143 z m 463 411 b 496 449 486 411 496 422 b 463 485 496 474 486 485 z m 590 143 l 590 515 l 651 515 l 651 143 z m 776 288 l 750 288 l 739 143 l 668 143 l 707 515 l 818 515 l 857 143 l 786 143 z m 775 313 l 765 454 l 761 454 l 751 313 z m 1015 175 l 1015 143 l 874 143 l 874 515 l 935 515 l 935 175 z m 271 7 b 271 4 271 6 271 4 b 276 -1 271 0 274 -1 b 283 0 279 -1 282 -1 l 286 -12 b 272 -15 282 -15 276 -15 b 254 1 261 -15 254 -10 b 256 7 254 3 254 4 l 260 31 l 251 31 l 253 44 l 263 44 l 265 60 l 281 60 l 278 44 l 292 44 l 290 31 l 276 31 z m 360 46 l 322 -19 b 297 -37 314 -33 308 -37 b 282 -32 292 -37 285 -36 l 289 -19 b 299 -24 292 -22 294 -24 b 308 -17 303 -24 306 -21 l 310 -15 l 296 46 l 313 46 l 321 4 l 344 46 z m 422 19 b 392 -15 422 -1 408 -15 b 374 -7 383 -15 376 -12 l 368 -37 l 351 -37 l 367 46 l 382 46 l 381 40 b 397 47 385 44 392 47 b 422 19 411 47 422 36 z m 406 18 b 393 32 406 26 401 32 b 376 13 383 32 376 24 b 389 -1 376 4 381 -1 b 406 18 399 -1 406 7 z m 486 11 l 444 11 b 458 -1 444 3 449 -1 b 474 4 464 -1 469 0 l 481 -8 b 457 -15 474 -14 465 -15 b 428 11 439 -15 428 -6 b 461 47 428 32 442 47 b 488 19 478 47 488 36 b 486 11 488 17 488 14 z m 444 21 l 472 21 b 460 33 472 29 468 33 b 444 21 453 33 447 28 z m 521 47 l 521 44 l 535 44 l 532 31 l 519 31 l 510 -15 l 494 -15 l 503 31 l 494 31 l 496 44 l 506 44 l 506 47 b 531 69 508 61 517 69 b 543 67 535 69 540 68 l 536 54 b 531 56 535 56 532 56 b 521 47 525 56 522 53 z m 600 46 l 589 -15 l 574 -15 l 574 -10 b 557 -15 569 -14 564 -15 b 533 11 544 -15 533 -6 b 564 47 533 32 546 47 b 582 38 572 47 578 43 l 583 46 z m 578 18 b 565 32 578 26 574 32 b 549 13 556 32 549 24 b 563 -1 549 4 554 -1 b 578 18 571 -1 578 7 z m 604 11 b 639 47 604 32 618 47 b 664 31 650 47 660 42 l 650 24 b 638 32 647 29 643 32 b 621 13 628 32 621 24 b 633 -1 621 4 625 -1 b 647 7 639 -1 644 1 l 660 -1 b 633 -15 654 -11 644 -15 b 604 11 615 -15 604 -6 z m 688 7 b 688 4 688 6 688 4 b 693 -1 688 0 689 -1 b 700 0 696 -1 697 -1 l 701 -12 b 688 -15 699 -15 693 -15 b 671 1 678 -15 671 -10 b 671 7 671 3 671 4 l 675 31 l 667 31 l 669 44 l 678 44 l 681 60 l 697 60 l 694 44 l 708 44 l 706 31 l 692 31 z m 710 11 b 743 47 710 32 724 47 b 772 19 761 47 772 36 b 738 -15 772 -1 758 -15 b 710 11 721 -15 710 -6 z m 756 18 b 743 32 756 26 750 32 b 726 13 733 32 726 24 b 739 -1 726 4 731 -1 b 756 18 749 -1 756 7 z m 822 47 l 819 31 b 815 31 818 31 817 31 b 799 14 807 31 800 26 l 793 -15 l 776 -15 l 788 46 l 803 46 l 801 39 b 822 47 807 44 814 47 z m 889 46 l 853 -19 b 826 -37 844 -33 838 -37 b 811 -32 821 -37 815 -36 l 819 -19 b 828 -24 821 -22 825 -24 b 838 -17 832 -24 835 -21 l 839 -15 l 826 46 l 842 46 l 850 4 l 874 46 z m 879 -6 b 890 6 879 1 885 6 b 900 -4 896 6 900 1 b 889 -15 900 -11 894 -15 b 879 -6 883 -15 879 -11 z m 910 11 b 943 47 910 32 924 47 b 968 31 956 47 964 42 l 954 24 b 942 32 953 29 947 32 b 925 13 932 32 925 24 b 939 -1 925 4 931 -1 b 953 7 944 -1 949 1 l 964 -1 b 938 -15 958 -11 949 -15 b 910 11 921 -15 910 -6 z m 969 11 b 1003 47 969 32 983 47 b 1032 19 1021 47 1032 36 b 997 -15 1032 -1 1018 -15 b 969 11 981 -15 969 -6 z m 1015 18 b 1003 32 1015 26 1011 32 b 986 13 993 32 986 24 b 999 -1 986 4 990 -1 b 1015 18 1008 -1 1015 7 z m 88 -64 l 143 -64 l 143 1019 l 88 1019 z "},"":{"ha":1085,"x_min":0,"x_max":0,"o":"m 311 936 l 311 865 l 363 865 l 363 833 l 311 833 l 311 596 l 250 596 l 250 968 l 392 968 l 392 936 z m 474 844 l 461 844 l 461 596 l 400 596 l 400 968 l 494 968 b 565 907 535 968 565 951 b 521 847 565 872 549 854 l 574 596 l 503 596 z m 461 864 b 494 901 485 864 494 875 b 461 938 494 926 485 938 z m 650 936 l 650 865 l 703 865 l 703 833 l 650 833 l 650 628 l 731 628 l 731 596 l 589 596 l 589 968 l 731 968 l 731 936 z m 804 936 l 804 865 l 857 865 l 857 833 l 804 833 l 804 628 l 886 628 l 886 596 l 744 596 l 744 968 l 886 968 l 886 936 z m 390 483 l 343 483 l 343 143 l 283 143 l 283 483 l 236 483 l 236 515 l 390 515 z m 475 392 l 463 392 l 463 143 l 401 143 l 401 515 l 496 515 b 567 454 536 515 567 499 b 522 396 567 419 549 401 l 575 143 l 504 143 z m 463 411 b 496 449 486 411 496 422 b 463 485 496 474 486 485 z m 590 143 l 590 515 l 651 515 l 651 143 z m 776 288 l 750 288 l 739 143 l 668 143 l 707 515 l 818 515 l 857 143 l 786 143 z m 775 313 l 765 454 l 761 454 l 751 313 z m 1015 175 l 1015 143 l 874 143 l 874 515 l 935 515 l 935 175 z m 271 7 b 271 4 271 6 271 4 b 276 -1 271 0 274 -1 b 283 0 279 -1 282 -1 l 286 -12 b 272 -15 282 -15 276 -15 b 254 1 261 -15 254 -10 b 256 7 254 3 254 4 l 260 31 l 251 31 l 253 44 l 263 44 l 265 60 l 281 60 l 278 44 l 292 44 l 290 31 l 276 31 z m 360 46 l 322 -19 b 297 -37 314 -33 308 -37 b 282 -32 292 -37 285 -36 l 289 -19 b 299 -24 292 -22 294 -24 b 308 -17 303 -24 306 -21 l 310 -15 l 296 46 l 313 46 l 321 4 l 344 46 z m 422 19 b 392 -15 422 -1 408 -15 b 374 -7 383 -15 376 -12 l 368 -37 l 351 -37 l 367 46 l 382 46 l 381 40 b 397 47 385 44 392 47 b 422 19 411 47 422 36 z m 406 18 b 393 32 406 26 401 32 b 376 13 383 32 376 24 b 389 -1 376 4 381 -1 b 406 18 399 -1 406 7 z m 486 11 l 444 11 b 458 -1 444 3 449 -1 b 474 4 464 -1 469 0 l 481 -8 b 457 -15 474 -14 465 -15 b 428 11 439 -15 428 -6 b 461 47 428 32 442 47 b 488 19 478 47 488 36 b 486 11 488 17 488 14 z m 444 21 l 472 21 b 460 33 472 29 468 33 b 444 21 453 33 447 28 z m 521 47 l 521 44 l 535 44 l 532 31 l 519 31 l 510 -15 l 494 -15 l 503 31 l 494 31 l 496 44 l 506 44 l 506 47 b 531 69 508 61 517 69 b 543 67 535 69 540 68 l 536 54 b 531 56 535 56 532 56 b 521 47 525 56 522 53 z m 600 46 l 589 -15 l 574 -15 l 574 -10 b 557 -15 569 -14 564 -15 b 533 11 544 -15 533 -6 b 564 47 533 32 546 47 b 582 38 572 47 578 43 l 583 46 z m 578 18 b 565 32 578 26 574 32 b 549 13 556 32 549 24 b 563 -1 549 4 554 -1 b 578 18 571 -1 578 7 z m 604 11 b 639 47 604 32 618 47 b 664 31 650 47 660 42 l 650 24 b 638 32 647 29 643 32 b 621 13 628 32 621 24 b 633 -1 621 4 625 -1 b 647 7 639 -1 644 1 l 660 -1 b 633 -15 654 -11 644 -15 b 604 11 615 -15 604 -6 z m 688 7 b 688 4 688 6 688 4 b 693 -1 688 0 689 -1 b 700 0 696 -1 697 -1 l 701 -12 b 688 -15 699 -15 693 -15 b 671 1 678 -15 671 -10 b 671 7 671 3 671 4 l 675 31 l 667 31 l 669 44 l 678 44 l 681 60 l 697 60 l 694 44 l 708 44 l 706 31 l 692 31 z m 710 11 b 743 47 710 32 724 47 b 772 19 761 47 772 36 b 738 -15 772 -1 758 -15 b 710 11 721 -15 710 -6 z m 756 18 b 743 32 756 26 750 32 b 726 13 733 32 726 24 b 739 -1 726 4 731 -1 b 756 18 749 -1 756 7 z m 822 47 l 819 31 b 815 31 818 31 817 31 b 799 14 807 31 800 26 l 793 -15 l 776 -15 l 788 46 l 803 46 l 801 39 b 822 47 807 44 814 47 z m 889 46 l 853 -19 b 826 -37 844 -33 838 -37 b 811 -32 821 -37 815 -36 l 819 -19 b 828 -24 821 -22 825 -24 b 838 -17 832 -24 835 -21 l 839 -15 l 826 46 l 842 46 l 850 4 l 874 46 z m 879 -6 b 890 6 879 1 885 6 b 900 -4 896 6 900 1 b 889 -15 900 -11 894 -15 b 879 -6 883 -15 879 -11 z m 910 11 b 943 47 910 32 924 47 b 968 31 956 47 964 42 l 954 24 b 942 32 953 29 947 32 b 925 13 932 32 925 24 b 939 -1 925 4 931 -1 b 953 7 944 -1 949 1 l 964 -1 b 938 -15 958 -11 949 -15 b 910 11 921 -15 910 -6 z m 969 11 b 1003 47 969 32 983 47 b 1032 19 1021 47 1032 36 b 997 -15 1032 -1 1018 -15 b 969 11 981 -15 969 -6 z m 1015 18 b 1003 32 1015 26 1011 32 b 986 13 993 32 986 24 b 999 -1 986 4 990 -1 b 1015 18 1008 -1 1015 7 z m 88 -64 l 143 -64 l 143 1019 l 88 1019 z "},"":{"ha":1085,"x_min":0,"x_max":0,"o":"m 311 936 l 311 865 l 363 865 l 363 833 l 311 833 l 311 596 l 250 596 l 250 968 l 392 968 l 392 936 z m 474 844 l 461 844 l 461 596 l 400 596 l 400 968 l 494 968 b 565 907 535 968 565 951 b 521 847 565 872 549 854 l 574 596 l 503 596 z m 461 864 b 494 901 485 864 494 875 b 461 938 494 926 485 938 z m 650 936 l 650 865 l 703 865 l 703 833 l 650 833 l 650 628 l 731 628 l 731 596 l 589 596 l 589 968 l 731 968 l 731 936 z m 804 936 l 804 865 l 857 865 l 857 833 l 804 833 l 804 628 l 886 628 l 886 596 l 744 596 l 744 968 l 886 968 l 886 936 z m 390 483 l 343 483 l 343 143 l 283 143 l 283 483 l 236 483 l 236 515 l 390 515 z m 475 392 l 463 392 l 463 143 l 401 143 l 401 515 l 496 515 b 567 454 536 515 567 499 b 522 396 567 419 549 401 l 575 143 l 504 143 z m 463 411 b 496 449 486 411 496 422 b 463 485 496 474 486 485 z m 590 143 l 590 515 l 651 515 l 651 143 z m 776 288 l 750 288 l 739 143 l 668 143 l 707 515 l 818 515 l 857 143 l 786 143 z m 775 313 l 765 454 l 761 454 l 751 313 z m 1015 175 l 1015 143 l 874 143 l 874 515 l 935 515 l 935 175 z m 271 7 b 271 4 271 6 271 4 b 276 -1 271 0 274 -1 b 283 0 279 -1 282 -1 l 286 -12 b 272 -15 282 -15 276 -15 b 254 1 261 -15 254 -10 b 256 7 254 3 254 4 l 260 31 l 251 31 l 253 44 l 263 44 l 265 60 l 281 60 l 278 44 l 292 44 l 290 31 l 276 31 z m 360 46 l 322 -19 b 297 -37 314 -33 308 -37 b 282 -32 292 -37 285 -36 l 289 -19 b 299 -24 292 -22 294 -24 b 308 -17 303 -24 306 -21 l 310 -15 l 296 46 l 313 46 l 321 4 l 344 46 z m 422 19 b 392 -15 422 -1 408 -15 b 374 -7 383 -15 376 -12 l 368 -37 l 351 -37 l 367 46 l 382 46 l 381 40 b 397 47 385 44 392 47 b 422 19 411 47 422 36 z m 406 18 b 393 32 406 26 401 32 b 376 13 383 32 376 24 b 389 -1 376 4 381 -1 b 406 18 399 -1 406 7 z m 486 11 l 444 11 b 458 -1 444 3 449 -1 b 474 4 464 -1 469 0 l 481 -8 b 457 -15 474 -14 465 -15 b 428 11 439 -15 428 -6 b 461 47 428 32 442 47 b 488 19 478 47 488 36 b 486 11 488 17 488 14 z m 444 21 l 472 21 b 460 33 472 29 468 33 b 444 21 453 33 447 28 z m 521 47 l 521 44 l 535 44 l 532 31 l 519 31 l 510 -15 l 494 -15 l 503 31 l 494 31 l 496 44 l 506 44 l 506 47 b 531 69 508 61 517 69 b 543 67 535 69 540 68 l 536 54 b 531 56 535 56 532 56 b 521 47 525 56 522 53 z m 600 46 l 589 -15 l 574 -15 l 574 -10 b 557 -15 569 -14 564 -15 b 533 11 544 -15 533 -6 b 564 47 533 32 546 47 b 582 38 572 47 578 43 l 583 46 z m 578 18 b 565 32 578 26 574 32 b 549 13 556 32 549 24 b 563 -1 549 4 554 -1 b 578 18 571 -1 578 7 z m 604 11 b 639 47 604 32 618 47 b 664 31 650 47 660 42 l 650 24 b 638 32 647 29 643 32 b 621 13 628 32 621 24 b 633 -1 621 4 625 -1 b 647 7 639 -1 644 1 l 660 -1 b 633 -15 654 -11 644 -15 b 604 11 615 -15 604 -6 z m 688 7 b 688 4 688 6 688 4 b 693 -1 688 0 689 -1 b 700 0 696 -1 697 -1 l 701 -12 b 688 -15 699 -15 693 -15 b 671 1 678 -15 671 -10 b 671 7 671 3 671 4 l 675 31 l 667 31 l 669 44 l 678 44 l 681 60 l 697 60 l 694 44 l 708 44 l 706 31 l 692 31 z m 710 11 b 743 47 710 32 724 47 b 772 19 761 47 772 36 b 738 -15 772 -1 758 -15 b 710 11 721 -15 710 -6 z m 756 18 b 743 32 756 26 750 32 b 726 13 733 32 726 24 b 739 -1 726 4 731 -1 b 756 18 749 -1 756 7 z m 822 47 l 819 31 b 815 31 818 31 817 31 b 799 14 807 31 800 26 l 793 -15 l 776 -15 l 788 46 l 803 46 l 801 39 b 822 47 807 44 814 47 z m 889 46 l 853 -19 b 826 -37 844 -33 838 -37 b 811 -32 821 -37 815 -36 l 819 -19 b 828 -24 821 -22 825 -24 b 838 -17 832 -24 835 -21 l 839 -15 l 826 46 l 842 46 l 850 4 l 874 46 z m 879 -6 b 890 6 879 1 885 6 b 900 -4 896 6 900 1 b 889 -15 900 -11 894 -15 b 879 -6 883 -15 879 -11 z m 910 11 b 943 47 910 32 924 47 b 968 31 956 47 964 42 l 954 24 b 942 32 953 29 947 32 b 925 13 932 32 925 24 b 939 -1 925 4 931 -1 b 953 7 944 -1 949 1 l 964 -1 b 938 -15 958 -11 949 -15 b 910 11 921 -15 910 -6 z m 969 11 b 1003 47 969 32 983 47 b 1032 19 1021 47 1032 36 b 997 -15 1032 -1 1018 -15 b 969 11 981 -15 969 -6 z m 1015 18 b 1003 32 1015 26 1011 32 b 986 13 993 32 986 24 b 999 -1 986 4 990 -1 b 1015 18 1008 -1 1015 7 z m 88 -64 l 143 -64 l 143 1019 l 88 1019 z "},"":{"ha":1085,"x_min":0,"x_max":0,"o":"m 311 936 l 311 865 l 363 865 l 363 833 l 311 833 l 311 596 l 250 596 l 250 968 l 392 968 l 392 936 z m 474 844 l 461 844 l 461 596 l 400 596 l 400 968 l 494 968 b 565 907 535 968 565 951 b 521 847 565 872 549 854 l 574 596 l 503 596 z m 461 864 b 494 901 485 864 494 875 b 461 938 494 926 485 938 z m 650 936 l 650 865 l 703 865 l 703 833 l 650 833 l 650 628 l 731 628 l 731 596 l 589 596 l 589 968 l 731 968 l 731 936 z m 804 936 l 804 865 l 857 865 l 857 833 l 804 833 l 804 628 l 886 628 l 886 596 l 744 596 l 744 968 l 886 968 l 886 936 z m 390 483 l 343 483 l 343 143 l 283 143 l 283 483 l 236 483 l 236 515 l 390 515 z m 475 392 l 463 392 l 463 143 l 401 143 l 401 515 l 496 515 b 567 454 536 515 567 499 b 522 396 567 419 549 401 l 575 143 l 504 143 z m 463 411 b 496 449 486 411 496 422 b 463 485 496 474 486 485 z m 590 143 l 590 515 l 651 515 l 651 143 z m 776 288 l 750 288 l 739 143 l 668 143 l 707 515 l 818 515 l 857 143 l 786 143 z m 775 313 l 765 454 l 761 454 l 751 313 z m 1015 175 l 1015 143 l 874 143 l 874 515 l 935 515 l 935 175 z m 271 7 b 271 4 271 6 271 4 b 276 -1 271 0 274 -1 b 283 0 279 -1 282 -1 l 286 -12 b 272 -15 282 -15 276 -15 b 254 1 261 -15 254 -10 b 256 7 254 3 254 4 l 260 31 l 251 31 l 253 44 l 263 44 l 265 60 l 281 60 l 278 44 l 292 44 l 290 31 l 276 31 z m 360 46 l 322 -19 b 297 -37 314 -33 308 -37 b 282 -32 292 -37 285 -36 l 289 -19 b 299 -24 292 -22 294 -24 b 308 -17 303 -24 306 -21 l 310 -15 l 296 46 l 313 46 l 321 4 l 344 46 z m 422 19 b 392 -15 422 -1 408 -15 b 374 -7 383 -15 376 -12 l 368 -37 l 351 -37 l 367 46 l 382 46 l 381 40 b 397 47 385 44 392 47 b 422 19 411 47 422 36 z m 406 18 b 393 32 406 26 401 32 b 376 13 383 32 376 24 b 389 -1 376 4 381 -1 b 406 18 399 -1 406 7 z m 486 11 l 444 11 b 458 -1 444 3 449 -1 b 474 4 464 -1 469 0 l 481 -8 b 457 -15 474 -14 465 -15 b 428 11 439 -15 428 -6 b 461 47 428 32 442 47 b 488 19 478 47 488 36 b 486 11 488 17 488 14 z m 444 21 l 472 21 b 460 33 472 29 468 33 b 444 21 453 33 447 28 z m 521 47 l 521 44 l 535 44 l 532 31 l 519 31 l 510 -15 l 494 -15 l 503 31 l 494 31 l 496 44 l 506 44 l 506 47 b 531 69 508 61 517 69 b 543 67 535 69 540 68 l 536 54 b 531 56 535 56 532 56 b 521 47 525 56 522 53 z m 600 46 l 589 -15 l 574 -15 l 574 -10 b 557 -15 569 -14 564 -15 b 533 11 544 -15 533 -6 b 564 47 533 32 546 47 b 582 38 572 47 578 43 l 583 46 z m 578 18 b 565 32 578 26 574 32 b 549 13 556 32 549 24 b 563 -1 549 4 554 -1 b 578 18 571 -1 578 7 z m 604 11 b 639 47 604 32 618 47 b 664 31 650 47 660 42 l 650 24 b 638 32 647 29 643 32 b 621 13 628 32 621 24 b 633 -1 621 4 625 -1 b 647 7 639 -1 644 1 l 660 -1 b 633 -15 654 -11 644 -15 b 604 11 615 -15 604 -6 z m 688 7 b 688 4 688 6 688 4 b 693 -1 688 0 689 -1 b 700 0 696 -1 697 -1 l 701 -12 b 688 -15 699 -15 693 -15 b 671 1 678 -15 671 -10 b 671 7 671 3 671 4 l 675 31 l 667 31 l 669 44 l 678 44 l 681 60 l 697 60 l 694 44 l 708 44 l 706 31 l 692 31 z m 710 11 b 743 47 710 32 724 47 b 772 19 761 47 772 36 b 738 -15 772 -1 758 -15 b 710 11 721 -15 710 -6 z m 756 18 b 743 32 756 26 750 32 b 726 13 733 32 726 24 b 739 -1 726 4 731 -1 b 756 18 749 -1 756 7 z m 822 47 l 819 31 b 815 31 818 31 817 31 b 799 14 807 31 800 26 l 793 -15 l 776 -15 l 788 46 l 803 46 l 801 39 b 822 47 807 44 814 47 z m 889 46 l 853 -19 b 826 -37 844 -33 838 -37 b 811 -32 821 -37 815 -36 l 819 -19 b 828 -24 821 -22 825 -24 b 838 -17 832 -24 835 -21 l 839 -15 l 826 46 l 842 46 l 850 4 l 874 46 z m 879 -6 b 890 6 879 1 885 6 b 900 -4 896 6 900 1 b 889 -15 900 -11 894 -15 b 879 -6 883 -15 879 -11 z m 910 11 b 943 47 910 32 924 47 b 968 31 956 47 964 42 l 954 24 b 942 32 953 29 947 32 b 925 13 932 32 925 24 b 939 -1 925 4 931 -1 b 953 7 944 -1 949 1 l 964 -1 b 938 -15 958 -11 949 -15 b 910 11 921 -15 910 -6 z m 969 11 b 1003 47 969 32 983 47 b 1032 19 1021 47 1032 36 b 997 -15 1032 -1 1018 -15 b 969 11 981 -15 969 -6 z m 1015 18 b 1003 32 1015 26 1011 32 b 986 13 993 32 986 24 b 999 -1 986 4 990 -1 b 1015 18 1008 -1 1015 7 z m 88 -64 l 143 -64 l 143 1019 l 88 1019 z "},"":{"ha":1085,"x_min":0,"x_max":0,"o":"m 311 936 l 311 865 l 363 865 l 363 833 l 311 833 l 311 596 l 250 596 l 250 968 l 392 968 l 392 936 z m 474 844 l 461 844 l 461 596 l 400 596 l 400 968 l 494 968 b 565 907 535 968 565 951 b 521 847 565 872 549 854 l 574 596 l 503 596 z m 461 864 b 494 901 485 864 494 875 b 461 938 494 926 485 938 z m 650 936 l 650 865 l 703 865 l 703 833 l 650 833 l 650 628 l 731 628 l 731 596 l 589 596 l 589 968 l 731 968 l 731 936 z m 804 936 l 804 865 l 857 865 l 857 833 l 804 833 l 804 628 l 886 628 l 886 596 l 744 596 l 744 968 l 886 968 l 886 936 z m 390 483 l 343 483 l 343 143 l 283 143 l 283 483 l 236 483 l 236 515 l 390 515 z m 475 392 l 463 392 l 463 143 l 401 143 l 401 515 l 496 515 b 567 454 536 515 567 499 b 522 396 567 419 549 401 l 575 143 l 504 143 z m 463 411 b 496 449 486 411 496 422 b 463 485 496 474 486 485 z m 590 143 l 590 515 l 651 515 l 651 143 z m 776 288 l 750 288 l 739 143 l 668 143 l 707 515 l 818 515 l 857 143 l 786 143 z m 775 313 l 765 454 l 761 454 l 751 313 z m 1015 175 l 1015 143 l 874 143 l 874 515 l 935 515 l 935 175 z m 271 7 b 271 4 271 6 271 4 b 276 -1 271 0 274 -1 b 283 0 279 -1 282 -1 l 286 -12 b 272 -15 282 -15 276 -15 b 254 1 261 -15 254 -10 b 256 7 254 3 254 4 l 260 31 l 251 31 l 253 44 l 263 44 l 265 60 l 281 60 l 278 44 l 292 44 l 290 31 l 276 31 z m 360 46 l 322 -19 b 297 -37 314 -33 308 -37 b 282 -32 292 -37 285 -36 l 289 -19 b 299 -24 292 -22 294 -24 b 308 -17 303 -24 306 -21 l 310 -15 l 296 46 l 313 46 l 321 4 l 344 46 z m 422 19 b 392 -15 422 -1 408 -15 b 374 -7 383 -15 376 -12 l 368 -37 l 351 -37 l 367 46 l 382 46 l 381 40 b 397 47 385 44 392 47 b 422 19 411 47 422 36 z m 406 18 b 393 32 406 26 401 32 b 376 13 383 32 376 24 b 389 -1 376 4 381 -1 b 406 18 399 -1 406 7 z m 486 11 l 444 11 b 458 -1 444 3 449 -1 b 474 4 464 -1 469 0 l 481 -8 b 457 -15 474 -14 465 -15 b 428 11 439 -15 428 -6 b 461 47 428 32 442 47 b 488 19 478 47 488 36 b 486 11 488 17 488 14 z m 444 21 l 472 21 b 460 33 472 29 468 33 b 444 21 453 33 447 28 z m 521 47 l 521 44 l 535 44 l 532 31 l 519 31 l 510 -15 l 494 -15 l 503 31 l 494 31 l 496 44 l 506 44 l 506 47 b 531 69 508 61 517 69 b 543 67 535 69 540 68 l 536 54 b 531 56 535 56 532 56 b 521 47 525 56 522 53 z m 600 46 l 589 -15 l 574 -15 l 574 -10 b 557 -15 569 -14 564 -15 b 533 11 544 -15 533 -6 b 564 47 533 32 546 47 b 582 38 572 47 578 43 l 583 46 z m 578 18 b 565 32 578 26 574 32 b 549 13 556 32 549 24 b 563 -1 549 4 554 -1 b 578 18 571 -1 578 7 z m 604 11 b 639 47 604 32 618 47 b 664 31 650 47 660 42 l 650 24 b 638 32 647 29 643 32 b 621 13 628 32 621 24 b 633 -1 621 4 625 -1 b 647 7 639 -1 644 1 l 660 -1 b 633 -15 654 -11 644 -15 b 604 11 615 -15 604 -6 z m 688 7 b 688 4 688 6 688 4 b 693 -1 688 0 689 -1 b 700 0 696 -1 697 -1 l 701 -12 b 688 -15 699 -15 693 -15 b 671 1 678 -15 671 -10 b 671 7 671 3 671 4 l 675 31 l 667 31 l 669 44 l 678 44 l 681 60 l 697 60 l 694 44 l 708 44 l 706 31 l 692 31 z m 710 11 b 743 47 710 32 724 47 b 772 19 761 47 772 36 b 738 -15 772 -1 758 -15 b 710 11 721 -15 710 -6 z m 756 18 b 743 32 756 26 750 32 b 726 13 733 32 726 24 b 739 -1 726 4 731 -1 b 756 18 749 -1 756 7 z m 822 47 l 819 31 b 815 31 818 31 817 31 b 799 14 807 31 800 26 l 793 -15 l 776 -15 l 788 46 l 803 46 l 801 39 b 822 47 807 44 814 47 z m 889 46 l 853 -19 b 826 -37 844 -33 838 -37 b 811 -32 821 -37 815 -36 l 819 -19 b 828 -24 821 -22 825 -24 b 838 -17 832 -24 835 -21 l 839 -15 l 826 46 l 842 46 l 850 4 l 874 46 z m 879 -6 b 890 6 879 1 885 6 b 900 -4 896 6 900 1 b 889 -15 900 -11 894 -15 b 879 -6 883 -15 879 -11 z m 910 11 b 943 47 910 32 924 47 b 968 31 956 47 964 42 l 954 24 b 942 32 953 29 947 32 b 925 13 932 32 925 24 b 939 -1 925 4 931 -1 b 953 7 944 -1 949 1 l 964 -1 b 938 -15 958 -11 949 -15 b 910 11 921 -15 910 -6 z m 969 11 b 1003 47 969 32 983 47 b 1032 19 1021 47 1032 36 b 997 -15 1032 -1 1018 -15 b 969 11 981 -15 969 -6 z m 1015 18 b 1003 32 1015 26 1011 32 b 986 13 993 32 986 24 b 999 -1 986 4 990 -1 b 1015 18 1008 -1 1015 7 z m 88 -64 l 143 -64 l 143 1019 l 88 1019 z "},"":{"ha":1085,"x_min":0,"x_max":0,"o":"m 311 936 l 311 865 l 363 865 l 363 833 l 311 833 l 311 596 l 250 596 l 250 968 l 392 968 l 392 936 z m 474 844 l 461 844 l 461 596 l 400 596 l 400 968 l 494 968 b 565 907 535 968 565 951 b 521 847 565 872 549 854 l 574 596 l 503 596 z m 461 864 b 494 901 485 864 494 875 b 461 938 494 926 485 938 z m 650 936 l 650 865 l 703 865 l 703 833 l 650 833 l 650 628 l 731 628 l 731 596 l 589 596 l 589 968 l 731 968 l 731 936 z m 804 936 l 804 865 l 857 865 l 857 833 l 804 833 l 804 628 l 886 628 l 886 596 l 744 596 l 744 968 l 886 968 l 886 936 z m 390 483 l 343 483 l 343 143 l 283 143 l 283 483 l 236 483 l 236 515 l 390 515 z m 475 392 l 463 392 l 463 143 l 401 143 l 401 515 l 496 515 b 567 454 536 515 567 499 b 522 396 567 419 549 401 l 575 143 l 504 143 z m 463 411 b 496 449 486 411 496 422 b 463 485 496 474 486 485 z m 590 143 l 590 515 l 651 515 l 651 143 z m 776 288 l 750 288 l 739 143 l 668 143 l 707 515 l 818 515 l 857 143 l 786 143 z m 775 313 l 765 454 l 761 454 l 751 313 z m 1015 175 l 1015 143 l 874 143 l 874 515 l 935 515 l 935 175 z m 271 7 b 271 4 271 6 271 4 b 276 -1 271 0 274 -1 b 283 0 279 -1 282 -1 l 286 -12 b 272 -15 282 -15 276 -15 b 254 1 261 -15 254 -10 b 256 7 254 3 254 4 l 260 31 l 251 31 l 253 44 l 263 44 l 265 60 l 281 60 l 278 44 l 292 44 l 290 31 l 276 31 z m 360 46 l 322 -19 b 297 -37 314 -33 308 -37 b 282 -32 292 -37 285 -36 l 289 -19 b 299 -24 292 -22 294 -24 b 308 -17 303 -24 306 -21 l 310 -15 l 296 46 l 313 46 l 321 4 l 344 46 z m 422 19 b 392 -15 422 -1 408 -15 b 374 -7 383 -15 376 -12 l 368 -37 l 351 -37 l 367 46 l 382 46 l 381 40 b 397 47 385 44 392 47 b 422 19 411 47 422 36 z m 406 18 b 393 32 406 26 401 32 b 376 13 383 32 376 24 b 389 -1 376 4 381 -1 b 406 18 399 -1 406 7 z m 486 11 l 444 11 b 458 -1 444 3 449 -1 b 474 4 464 -1 469 0 l 481 -8 b 457 -15 474 -14 465 -15 b 428 11 439 -15 428 -6 b 461 47 428 32 442 47 b 488 19 478 47 488 36 b 486 11 488 17 488 14 z m 444 21 l 472 21 b 460 33 472 29 468 33 b 444 21 453 33 447 28 z m 521 47 l 521 44 l 535 44 l 532 31 l 519 31 l 510 -15 l 494 -15 l 503 31 l 494 31 l 496 44 l 506 44 l 506 47 b 531 69 508 61 517 69 b 543 67 535 69 540 68 l 536 54 b 531 56 535 56 532 56 b 521 47 525 56 522 53 z m 600 46 l 589 -15 l 574 -15 l 574 -10 b 557 -15 569 -14 564 -15 b 533 11 544 -15 533 -6 b 564 47 533 32 546 47 b 582 38 572 47 578 43 l 583 46 z m 578 18 b 565 32 578 26 574 32 b 549 13 556 32 549 24 b 563 -1 549 4 554 -1 b 578 18 571 -1 578 7 z m 604 11 b 639 47 604 32 618 47 b 664 31 650 47 660 42 l 650 24 b 638 32 647 29 643 32 b 621 13 628 32 621 24 b 633 -1 621 4 625 -1 b 647 7 639 -1 644 1 l 660 -1 b 633 -15 654 -11 644 -15 b 604 11 615 -15 604 -6 z m 688 7 b 688 4 688 6 688 4 b 693 -1 688 0 689 -1 b 700 0 696 -1 697 -1 l 701 -12 b 688 -15 699 -15 693 -15 b 671 1 678 -15 671 -10 b 671 7 671 3 671 4 l 675 31 l 667 31 l 669 44 l 678 44 l 681 60 l 697 60 l 694 44 l 708 44 l 706 31 l 692 31 z m 710 11 b 743 47 710 32 724 47 b 772 19 761 47 772 36 b 738 -15 772 -1 758 -15 b 710 11 721 -15 710 -6 z m 756 18 b 743 32 756 26 750 32 b 726 13 733 32 726 24 b 739 -1 726 4 731 -1 b 756 18 749 -1 756 7 z m 822 47 l 819 31 b 815 31 818 31 817 31 b 799 14 807 31 800 26 l 793 -15 l 776 -15 l 788 46 l 803 46 l 801 39 b 822 47 807 44 814 47 z m 889 46 l 853 -19 b 826 -37 844 -33 838 -37 b 811 -32 821 -37 815 -36 l 819 -19 b 828 -24 821 -22 825 -24 b 838 -17 832 -24 835 -21 l 839 -15 l 826 46 l 842 46 l 850 4 l 874 46 z m 879 -6 b 890 6 879 1 885 6 b 900 -4 896 6 900 1 b 889 -15 900 -11 894 -15 b 879 -6 883 -15 879 -11 z m 910 11 b 943 47 910 32 924 47 b 968 31 956 47 964 42 l 954 24 b 942 32 953 29 947 32 b 925 13 932 32 925 24 b 939 -1 925 4 931 -1 b 953 7 944 -1 949 1 l 964 -1 b 938 -15 958 -11 949 -15 b 910 11 921 -15 910 -6 z m 969 11 b 1003 47 969 32 983 47 b 1032 19 1021 47 1032 36 b 997 -15 1032 -1 1018 -15 b 969 11 981 -15 969 -6 z m 1015 18 b 1003 32 1015 26 1011 32 b 986 13 993 32 986 24 b 999 -1 986 4 990 -1 b 1015 18 1008 -1 1015 7 z m 88 -64 l 143 -64 l 143 1019 l 88 1019 z "},"":{"ha":1085,"x_min":0,"x_max":0,"o":"m 311 936 l 311 865 l 363 865 l 363 833 l 311 833 l 311 596 l 250 596 l 250 968 l 392 968 l 392 936 z m 474 844 l 461 844 l 461 596 l 400 596 l 400 968 l 494 968 b 565 907 535 968 565 951 b 521 847 565 872 549 854 l 574 596 l 503 596 z m 461 864 b 494 901 485 864 494 875 b 461 938 494 926 485 938 z m 650 936 l 650 865 l 703 865 l 703 833 l 650 833 l 650 628 l 731 628 l 731 596 l 589 596 l 589 968 l 731 968 l 731 936 z m 804 936 l 804 865 l 857 865 l 857 833 l 804 833 l 804 628 l 886 628 l 886 596 l 744 596 l 744 968 l 886 968 l 886 936 z m 390 483 l 343 483 l 343 143 l 283 143 l 283 483 l 236 483 l 236 515 l 390 515 z m 475 392 l 463 392 l 463 143 l 401 143 l 401 515 l 496 515 b 567 454 536 515 567 499 b 522 396 567 419 549 401 l 575 143 l 504 143 z m 463 411 b 496 449 486 411 496 422 b 463 485 496 474 486 485 z m 590 143 l 590 515 l 651 515 l 651 143 z m 776 288 l 750 288 l 739 143 l 668 143 l 707 515 l 818 515 l 857 143 l 786 143 z m 775 313 l 765 454 l 761 454 l 751 313 z m 1015 175 l 1015 143 l 874 143 l 874 515 l 935 515 l 935 175 z m 271 7 b 271 4 271 6 271 4 b 276 -1 271 0 274 -1 b 283 0 279 -1 282 -1 l 286 -12 b 272 -15 282 -15 276 -15 b 254 1 261 -15 254 -10 b 256 7 254 3 254 4 l 260 31 l 251 31 l 253 44 l 263 44 l 265 60 l 281 60 l 278 44 l 292 44 l 290 31 l 276 31 z m 360 46 l 322 -19 b 297 -37 314 -33 308 -37 b 282 -32 292 -37 285 -36 l 289 -19 b 299 -24 292 -22 294 -24 b 308 -17 303 -24 306 -21 l 310 -15 l 296 46 l 313 46 l 321 4 l 344 46 z m 422 19 b 392 -15 422 -1 408 -15 b 374 -7 383 -15 376 -12 l 368 -37 l 351 -37 l 367 46 l 382 46 l 381 40 b 397 47 385 44 392 47 b 422 19 411 47 422 36 z m 406 18 b 393 32 406 26 401 32 b 376 13 383 32 376 24 b 389 -1 376 4 381 -1 b 406 18 399 -1 406 7 z m 486 11 l 444 11 b 458 -1 444 3 449 -1 b 474 4 464 -1 469 0 l 481 -8 b 457 -15 474 -14 465 -15 b 428 11 439 -15 428 -6 b 461 47 428 32 442 47 b 488 19 478 47 488 36 b 486 11 488 17 488 14 z m 444 21 l 472 21 b 460 33 472 29 468 33 b 444 21 453 33 447 28 z m 521 47 l 521 44 l 535 44 l 532 31 l 519 31 l 510 -15 l 494 -15 l 503 31 l 494 31 l 496 44 l 506 44 l 506 47 b 531 69 508 61 517 69 b 543 67 535 69 540 68 l 536 54 b 531 56 535 56 532 56 b 521 47 525 56 522 53 z m 600 46 l 589 -15 l 574 -15 l 574 -10 b 557 -15 569 -14 564 -15 b 533 11 544 -15 533 -6 b 564 47 533 32 546 47 b 582 38 572 47 578 43 l 583 46 z m 578 18 b 565 32 578 26 574 32 b 549 13 556 32 549 24 b 563 -1 549 4 554 -1 b 578 18 571 -1 578 7 z m 604 11 b 639 47 604 32 618 47 b 664 31 650 47 660 42 l 650 24 b 638 32 647 29 643 32 b 621 13 628 32 621 24 b 633 -1 621 4 625 -1 b 647 7 639 -1 644 1 l 660 -1 b 633 -15 654 -11 644 -15 b 604 11 615 -15 604 -6 z m 688 7 b 688 4 688 6 688 4 b 693 -1 688 0 689 -1 b 700 0 696 -1 697 -1 l 701 -12 b 688 -15 699 -15 693 -15 b 671 1 678 -15 671 -10 b 671 7 671 3 671 4 l 675 31 l 667 31 l 669 44 l 678 44 l 681 60 l 697 60 l 694 44 l 708 44 l 706 31 l 692 31 z m 710 11 b 743 47 710 32 724 47 b 772 19 761 47 772 36 b 738 -15 772 -1 758 -15 b 710 11 721 -15 710 -6 z m 756 18 b 743 32 756 26 750 32 b 726 13 733 32 726 24 b 739 -1 726 4 731 -1 b 756 18 749 -1 756 7 z m 822 47 l 819 31 b 815 31 818 31 817 31 b 799 14 807 31 800 26 l 793 -15 l 776 -15 l 788 46 l 803 46 l 801 39 b 822 47 807 44 814 47 z m 889 46 l 853 -19 b 826 -37 844 -33 838 -37 b 811 -32 821 -37 815 -36 l 819 -19 b 828 -24 821 -22 825 -24 b 838 -17 832 -24 835 -21 l 839 -15 l 826 46 l 842 46 l 850 4 l 874 46 z m 879 -6 b 890 6 879 1 885 6 b 900 -4 896 6 900 1 b 889 -15 900 -11 894 -15 b 879 -6 883 -15 879 -11 z m 910 11 b 943 47 910 32 924 47 b 968 31 956 47 964 42 l 954 24 b 942 32 953 29 947 32 b 925 13 932 32 925 24 b 939 -1 925 4 931 -1 b 953 7 944 -1 949 1 l 964 -1 b 938 -15 958 -11 949 -15 b 910 11 921 -15 910 -6 z m 969 11 b 1003 47 969 32 983 47 b 1032 19 1021 47 1032 36 b 997 -15 1032 -1 1018 -15 b 969 11 981 -15 969 -6 z m 1015 18 b 1003 32 1015 26 1011 32 b 986 13 993 32 986 24 b 999 -1 986 4 990 -1 b 1015 18 1008 -1 1015 7 z m 88 -64 l 143 -64 l 143 1019 l 88 1019 z "},"":{"ha":0,"x_min":0,"x_max":0,"o":""},"":{"ha":1085,"x_min":0,"x_max":0,"o":"m 311 936 l 311 865 l 363 865 l 363 833 l 311 833 l 311 596 l 250 596 l 250 968 l 392 968 l 392 936 z m 474 844 l 461 844 l 461 596 l 400 596 l 400 968 l 494 968 b 565 907 535 968 565 951 b 521 847 565 872 549 854 l 574 596 l 503 596 z m 461 864 b 494 901 485 864 494 875 b 461 938 494 926 485 938 z m 650 936 l 650 865 l 703 865 l 703 833 l 650 833 l 650 628 l 731 628 l 731 596 l 589 596 l 589 968 l 731 968 l 731 936 z m 804 936 l 804 865 l 857 865 l 857 833 l 804 833 l 804 628 l 886 628 l 886 596 l 744 596 l 744 968 l 886 968 l 886 936 z m 390 483 l 343 483 l 343 143 l 283 143 l 283 483 l 236 483 l 236 515 l 390 515 z m 475 392 l 463 392 l 463 143 l 401 143 l 401 515 l 496 515 b 567 454 536 515 567 499 b 522 396 567 419 549 401 l 575 143 l 504 143 z m 463 411 b 496 449 486 411 496 422 b 463 485 496 474 486 485 z m 590 143 l 590 515 l 651 515 l 651 143 z m 776 288 l 750 288 l 739 143 l 668 143 l 707 515 l 818 515 l 857 143 l 786 143 z m 775 313 l 765 454 l 761 454 l 751 313 z m 1015 175 l 1015 143 l 874 143 l 874 515 l 935 515 l 935 175 z m 271 7 b 271 4 271 6 271 4 b 276 -1 271 0 274 -1 b 283 0 279 -1 282 -1 l 286 -12 b 272 -15 282 -15 276 -15 b 254 1 261 -15 254 -10 b 256 7 254 3 254 4 l 260 31 l 251 31 l 253 44 l 263 44 l 265 60 l 281 60 l 278 44 l 292 44 l 290 31 l 276 31 z m 360 46 l 322 -19 b 297 -37 314 -33 308 -37 b 282 -32 292 -37 285 -36 l 289 -19 b 299 -24 292 -22 294 -24 b 308 -17 303 -24 306 -21 l 310 -15 l 296 46 l 313 46 l 321 4 l 344 46 z m 422 19 b 392 -15 422 -1 408 -15 b 374 -7 383 -15 376 -12 l 368 -37 l 351 -37 l 367 46 l 382 46 l 381 40 b 397 47 385 44 392 47 b 422 19 411 47 422 36 z m 406 18 b 393 32 406 26 401 32 b 376 13 383 32 376 24 b 389 -1 376 4 381 -1 b 406 18 399 -1 406 7 z m 486 11 l 444 11 b 458 -1 444 3 449 -1 b 474 4 464 -1 469 0 l 481 -8 b 457 -15 474 -14 465 -15 b 428 11 439 -15 428 -6 b 461 47 428 32 442 47 b 488 19 478 47 488 36 b 486 11 488 17 488 14 z m 444 21 l 472 21 b 460 33 472 29 468 33 b 444 21 453 33 447 28 z m 521 47 l 521 44 l 535 44 l 532 31 l 519 31 l 510 -15 l 494 -15 l 503 31 l 494 31 l 496 44 l 506 44 l 506 47 b 531 69 508 61 517 69 b 543 67 535 69 540 68 l 536 54 b 531 56 535 56 532 56 b 521 47 525 56 522 53 z m 600 46 l 589 -15 l 574 -15 l 574 -10 b 557 -15 569 -14 564 -15 b 533 11 544 -15 533 -6 b 564 47 533 32 546 47 b 582 38 572 47 578 43 l 583 46 z m 578 18 b 565 32 578 26 574 32 b 549 13 556 32 549 24 b 563 -1 549 4 554 -1 b 578 18 571 -1 578 7 z m 604 11 b 639 47 604 32 618 47 b 664 31 650 47 660 42 l 650 24 b 638 32 647 29 643 32 b 621 13 628 32 621 24 b 633 -1 621 4 625 -1 b 647 7 639 -1 644 1 l 660 -1 b 633 -15 654 -11 644 -15 b 604 11 615 -15 604 -6 z m 688 7 b 688 4 688 6 688 4 b 693 -1 688 0 689 -1 b 700 0 696 -1 697 -1 l 701 -12 b 688 -15 699 -15 693 -15 b 671 1 678 -15 671 -10 b 671 7 671 3 671 4 l 675 31 l 667 31 l 669 44 l 678 44 l 681 60 l 697 60 l 694 44 l 708 44 l 706 31 l 692 31 z m 710 11 b 743 47 710 32 724 47 b 772 19 761 47 772 36 b 738 -15 772 -1 758 -15 b 710 11 721 -15 710 -6 z m 756 18 b 743 32 756 26 750 32 b 726 13 733 32 726 24 b 739 -1 726 4 731 -1 b 756 18 749 -1 756 7 z m 822 47 l 819 31 b 815 31 818 31 817 31 b 799 14 807 31 800 26 l 793 -15 l 776 -15 l 788 46 l 803 46 l 801 39 b 822 47 807 44 814 47 z m 889 46 l 853 -19 b 826 -37 844 -33 838 -37 b 811 -32 821 -37 815 -36 l 819 -19 b 828 -24 821 -22 825 -24 b 838 -17 832 -24 835 -21 l 839 -15 l 826 46 l 842 46 l 850 4 l 874 46 z m 879 -6 b 890 6 879 1 885 6 b 900 -4 896 6 900 1 b 889 -15 900 -11 894 -15 b 879 -6 883 -15 879 -11 z m 910 11 b 943 47 910 32 924 47 b 968 31 956 47 964 42 l 954 24 b 942 32 953 29 947 32 b 925 13 932 32 925 24 b 939 -1 925 4 931 -1 b 953 7 944 -1 949 1 l 964 -1 b 938 -15 958 -11 949 -15 b 910 11 921 -15 910 -6 z m 969 11 b 1003 47 969 32 983 47 b 1032 19 1021 47 1032 36 b 997 -15 1032 -1 1018 -15 b 969 11 981 -15 969 -6 z m 1015 18 b 1003 32 1015 26 1011 32 b 986 13 993 32 986 24 b 999 -1 986 4 990 -1 b 1015 18 1008 -1 1015 7 z m 88 -64 l 143 -64 l 143 1019 l 88 1019 z "},"":{"ha":1085,"x_min":0,"x_max":0,"o":"m 311 936 l 311 865 l 363 865 l 363 833 l 311 833 l 311 596 l 250 596 l 250 968 l 392 968 l 392 936 z m 474 844 l 461 844 l 461 596 l 400 596 l 400 968 l 494 968 b 565 907 535 968 565 951 b 521 847 565 872 549 854 l 574 596 l 503 596 z m 461 864 b 494 901 485 864 494 875 b 461 938 494 926 485 938 z m 650 936 l 650 865 l 703 865 l 703 833 l 650 833 l 650 628 l 731 628 l 731 596 l 589 596 l 589 968 l 731 968 l 731 936 z m 804 936 l 804 865 l 857 865 l 857 833 l 804 833 l 804 628 l 886 628 l 886 596 l 744 596 l 744 968 l 886 968 l 886 936 z m 390 483 l 343 483 l 343 143 l 283 143 l 283 483 l 236 483 l 236 515 l 390 515 z m 475 392 l 463 392 l 463 143 l 401 143 l 401 515 l 496 515 b 567 454 536 515 567 499 b 522 396 567 419 549 401 l 575 143 l 504 143 z m 463 411 b 496 449 486 411 496 422 b 463 485 496 474 486 485 z m 590 143 l 590 515 l 651 515 l 651 143 z m 776 288 l 750 288 l 739 143 l 668 143 l 707 515 l 818 515 l 857 143 l 786 143 z m 775 313 l 765 454 l 761 454 l 751 313 z m 1015 175 l 1015 143 l 874 143 l 874 515 l 935 515 l 935 175 z m 271 7 b 271 4 271 6 271 4 b 276 -1 271 0 274 -1 b 283 0 279 -1 282 -1 l 286 -12 b 272 -15 282 -15 276 -15 b 254 1 261 -15 254 -10 b 256 7 254 3 254 4 l 260 31 l 251 31 l 253 44 l 263 44 l 265 60 l 281 60 l 278 44 l 292 44 l 290 31 l 276 31 z m 360 46 l 322 -19 b 297 -37 314 -33 308 -37 b 282 -32 292 -37 285 -36 l 289 -19 b 299 -24 292 -22 294 -24 b 308 -17 303 -24 306 -21 l 310 -15 l 296 46 l 313 46 l 321 4 l 344 46 z m 422 19 b 392 -15 422 -1 408 -15 b 374 -7 383 -15 376 -12 l 368 -37 l 351 -37 l 367 46 l 382 46 l 381 40 b 397 47 385 44 392 47 b 422 19 411 47 422 36 z m 406 18 b 393 32 406 26 401 32 b 376 13 383 32 376 24 b 389 -1 376 4 381 -1 b 406 18 399 -1 406 7 z m 486 11 l 444 11 b 458 -1 444 3 449 -1 b 474 4 464 -1 469 0 l 481 -8 b 457 -15 474 -14 465 -15 b 428 11 439 -15 428 -6 b 461 47 428 32 442 47 b 488 19 478 47 488 36 b 486 11 488 17 488 14 z m 444 21 l 472 21 b 460 33 472 29 468 33 b 444 21 453 33 447 28 z m 521 47 l 521 44 l 535 44 l 532 31 l 519 31 l 510 -15 l 494 -15 l 503 31 l 494 31 l 496 44 l 506 44 l 506 47 b 531 69 508 61 517 69 b 543 67 535 69 540 68 l 536 54 b 531 56 535 56 532 56 b 521 47 525 56 522 53 z m 600 46 l 589 -15 l 574 -15 l 574 -10 b 557 -15 569 -14 564 -15 b 533 11 544 -15 533 -6 b 564 47 533 32 546 47 b 582 38 572 47 578 43 l 583 46 z m 578 18 b 565 32 578 26 574 32 b 549 13 556 32 549 24 b 563 -1 549 4 554 -1 b 578 18 571 -1 578 7 z m 604 11 b 639 47 604 32 618 47 b 664 31 650 47 660 42 l 650 24 b 638 32 647 29 643 32 b 621 13 628 32 621 24 b 633 -1 621 4 625 -1 b 647 7 639 -1 644 1 l 660 -1 b 633 -15 654 -11 644 -15 b 604 11 615 -15 604 -6 z m 688 7 b 688 4 688 6 688 4 b 693 -1 688 0 689 -1 b 700 0 696 -1 697 -1 l 701 -12 b 688 -15 699 -15 693 -15 b 671 1 678 -15 671 -10 b 671 7 671 3 671 4 l 675 31 l 667 31 l 669 44 l 678 44 l 681 60 l 697 60 l 694 44 l 708 44 l 706 31 l 692 31 z m 710 11 b 743 47 710 32 724 47 b 772 19 761 47 772 36 b 738 -15 772 -1 758 -15 b 710 11 721 -15 710 -6 z m 756 18 b 743 32 756 26 750 32 b 726 13 733 32 726 24 b 739 -1 726 4 731 -1 b 756 18 749 -1 756 7 z m 822 47 l 819 31 b 815 31 818 31 817 31 b 799 14 807 31 800 26 l 793 -15 l 776 -15 l 788 46 l 803 46 l 801 39 b 822 47 807 44 814 47 z m 889 46 l 853 -19 b 826 -37 844 -33 838 -37 b 811 -32 821 -37 815 -36 l 819 -19 b 828 -24 821 -22 825 -24 b 838 -17 832 -24 835 -21 l 839 -15 l 826 46 l 842 46 l 850 4 l 874 46 z m 879 -6 b 890 6 879 1 885 6 b 900 -4 896 6 900 1 b 889 -15 900 -11 894 -15 b 879 -6 883 -15 879 -11 z m 910 11 b 943 47 910 32 924 47 b 968 31 956 47 964 42 l 954 24 b 942 32 953 29 947 32 b 925 13 932 32 925 24 b 939 -1 925 4 931 -1 b 953 7 944 -1 949 1 l 964 -1 b 938 -15 958 -11 949 -15 b 910 11 921 -15 910 -6 z m 969 11 b 1003 47 969 32 983 47 b 1032 19 1021 47 1032 36 b 997 -15 1032 -1 1018 -15 b 969 11 981 -15 969 -6 z m 1015 18 b 1003 32 1015 26 1011 32 b 986 13 993 32 986 24 b 999 -1 986 4 990 -1 b 1015 18 1008 -1 1015 7 z m 88 -64 l 143 -64 l 143 1019 l 88 1019 z "},"":{"ha":1085,"x_min":0,"x_max":0,"o":"m 311 936 l 311 865 l 363 865 l 363 833 l 311 833 l 311 596 l 250 596 l 250 968 l 392 968 l 392 936 z m 474 844 l 461 844 l 461 596 l 400 596 l 400 968 l 494 968 b 565 907 535 968 565 951 b 521 847 565 872 549 854 l 574 596 l 503 596 z m 461 864 b 494 901 485 864 494 875 b 461 938 494 926 485 938 z m 650 936 l 650 865 l 703 865 l 703 833 l 650 833 l 650 628 l 731 628 l 731 596 l 589 596 l 589 968 l 731 968 l 731 936 z m 804 936 l 804 865 l 857 865 l 857 833 l 804 833 l 804 628 l 886 628 l 886 596 l 744 596 l 744 968 l 886 968 l 886 936 z m 390 483 l 343 483 l 343 143 l 283 143 l 283 483 l 236 483 l 236 515 l 390 515 z m 475 392 l 463 392 l 463 143 l 401 143 l 401 515 l 496 515 b 567 454 536 515 567 499 b 522 396 567 419 549 401 l 575 143 l 504 143 z m 463 411 b 496 449 486 411 496 422 b 463 485 496 474 486 485 z m 590 143 l 590 515 l 651 515 l 651 143 z m 776 288 l 750 288 l 739 143 l 668 143 l 707 515 l 818 515 l 857 143 l 786 143 z m 775 313 l 765 454 l 761 454 l 751 313 z m 1015 175 l 1015 143 l 874 143 l 874 515 l 935 515 l 935 175 z m 271 7 b 271 4 271 6 271 4 b 276 -1 271 0 274 -1 b 283 0 279 -1 282 -1 l 286 -12 b 272 -15 282 -15 276 -15 b 254 1 261 -15 254 -10 b 256 7 254 3 254 4 l 260 31 l 251 31 l 253 44 l 263 44 l 265 60 l 281 60 l 278 44 l 292 44 l 290 31 l 276 31 z m 360 46 l 322 -19 b 297 -37 314 -33 308 -37 b 282 -32 292 -37 285 -36 l 289 -19 b 299 -24 292 -22 294 -24 b 308 -17 303 -24 306 -21 l 310 -15 l 296 46 l 313 46 l 321 4 l 344 46 z m 422 19 b 392 -15 422 -1 408 -15 b 374 -7 383 -15 376 -12 l 368 -37 l 351 -37 l 367 46 l 382 46 l 381 40 b 397 47 385 44 392 47 b 422 19 411 47 422 36 z m 406 18 b 393 32 406 26 401 32 b 376 13 383 32 376 24 b 389 -1 376 4 381 -1 b 406 18 399 -1 406 7 z m 486 11 l 444 11 b 458 -1 444 3 449 -1 b 474 4 464 -1 469 0 l 481 -8 b 457 -15 474 -14 465 -15 b 428 11 439 -15 428 -6 b 461 47 428 32 442 47 b 488 19 478 47 488 36 b 486 11 488 17 488 14 z m 444 21 l 472 21 b 460 33 472 29 468 33 b 444 21 453 33 447 28 z m 521 47 l 521 44 l 535 44 l 532 31 l 519 31 l 510 -15 l 494 -15 l 503 31 l 494 31 l 496 44 l 506 44 l 506 47 b 531 69 508 61 517 69 b 543 67 535 69 540 68 l 536 54 b 531 56 535 56 532 56 b 521 47 525 56 522 53 z m 600 46 l 589 -15 l 574 -15 l 574 -10 b 557 -15 569 -14 564 -15 b 533 11 544 -15 533 -6 b 564 47 533 32 546 47 b 582 38 572 47 578 43 l 583 46 z m 578 18 b 565 32 578 26 574 32 b 549 13 556 32 549 24 b 563 -1 549 4 554 -1 b 578 18 571 -1 578 7 z m 604 11 b 639 47 604 32 618 47 b 664 31 650 47 660 42 l 650 24 b 638 32 647 29 643 32 b 621 13 628 32 621 24 b 633 -1 621 4 625 -1 b 647 7 639 -1 644 1 l 660 -1 b 633 -15 654 -11 644 -15 b 604 11 615 -15 604 -6 z m 688 7 b 688 4 688 6 688 4 b 693 -1 688 0 689 -1 b 700 0 696 -1 697 -1 l 701 -12 b 688 -15 699 -15 693 -15 b 671 1 678 -15 671 -10 b 671 7 671 3 671 4 l 675 31 l 667 31 l 669 44 l 678 44 l 681 60 l 697 60 l 694 44 l 708 44 l 706 31 l 692 31 z m 710 11 b 743 47 710 32 724 47 b 772 19 761 47 772 36 b 738 -15 772 -1 758 -15 b 710 11 721 -15 710 -6 z m 756 18 b 743 32 756 26 750 32 b 726 13 733 32 726 24 b 739 -1 726 4 731 -1 b 756 18 749 -1 756 7 z m 822 47 l 819 31 b 815 31 818 31 817 31 b 799 14 807 31 800 26 l 793 -15 l 776 -15 l 788 46 l 803 46 l 801 39 b 822 47 807 44 814 47 z m 889 46 l 853 -19 b 826 -37 844 -33 838 -37 b 811 -32 821 -37 815 -36 l 819 -19 b 828 -24 821 -22 825 -24 b 838 -17 832 -24 835 -21 l 839 -15 l 826 46 l 842 46 l 850 4 l 874 46 z m 879 -6 b 890 6 879 1 885 6 b 900 -4 896 6 900 1 b 889 -15 900 -11 894 -15 b 879 -6 883 -15 879 -11 z m 910 11 b 943 47 910 32 924 47 b 968 31 956 47 964 42 l 954 24 b 942 32 953 29 947 32 b 925 13 932 32 925 24 b 939 -1 925 4 931 -1 b 953 7 944 -1 949 1 l 964 -1 b 938 -15 958 -11 949 -15 b 910 11 921 -15 910 -6 z m 969 11 b 1003 47 969 32 983 47 b 1032 19 1021 47 1032 36 b 997 -15 1032 -1 1018 -15 b 969 11 981 -15 969 -6 z m 1015 18 b 1003 32 1015 26 1011 32 b 986 13 993 32 986 24 b 999 -1 986 4 990 -1 b 1015 18 1008 -1 1015 7 z m 88 -64 l 143 -64 l 143 1019 l 88 1019 z "},"":{"ha":1085,"x_min":0,"x_max":0,"o":"m 311 936 l 311 865 l 363 865 l 363 833 l 311 833 l 311 596 l 250 596 l 250 968 l 392 968 l 392 936 z m 474 844 l 461 844 l 461 596 l 400 596 l 400 968 l 494 968 b 565 907 535 968 565 951 b 521 847 565 872 549 854 l 574 596 l 503 596 z m 461 864 b 494 901 485 864 494 875 b 461 938 494 926 485 938 z m 650 936 l 650 865 l 703 865 l 703 833 l 650 833 l 650 628 l 731 628 l 731 596 l 589 596 l 589 968 l 731 968 l 731 936 z m 804 936 l 804 865 l 857 865 l 857 833 l 804 833 l 804 628 l 886 628 l 886 596 l 744 596 l 744 968 l 886 968 l 886 936 z m 390 483 l 343 483 l 343 143 l 283 143 l 283 483 l 236 483 l 236 515 l 390 515 z m 475 392 l 463 392 l 463 143 l 401 143 l 401 515 l 496 515 b 567 454 536 515 567 499 b 522 396 567 419 549 401 l 575 143 l 504 143 z m 463 411 b 496 449 486 411 496 422 b 463 485 496 474 486 485 z m 590 143 l 590 515 l 651 515 l 651 143 z m 776 288 l 750 288 l 739 143 l 668 143 l 707 515 l 818 515 l 857 143 l 786 143 z m 775 313 l 765 454 l 761 454 l 751 313 z m 1015 175 l 1015 143 l 874 143 l 874 515 l 935 515 l 935 175 z m 271 7 b 271 4 271 6 271 4 b 276 -1 271 0 274 -1 b 283 0 279 -1 282 -1 l 286 -12 b 272 -15 282 -15 276 -15 b 254 1 261 -15 254 -10 b 256 7 254 3 254 4 l 260 31 l 251 31 l 253 44 l 263 44 l 265 60 l 281 60 l 278 44 l 292 44 l 290 31 l 276 31 z m 360 46 l 322 -19 b 297 -37 314 -33 308 -37 b 282 -32 292 -37 285 -36 l 289 -19 b 299 -24 292 -22 294 -24 b 308 -17 303 -24 306 -21 l 310 -15 l 296 46 l 313 46 l 321 4 l 344 46 z m 422 19 b 392 -15 422 -1 408 -15 b 374 -7 383 -15 376 -12 l 368 -37 l 351 -37 l 367 46 l 382 46 l 381 40 b 397 47 385 44 392 47 b 422 19 411 47 422 36 z m 406 18 b 393 32 406 26 401 32 b 376 13 383 32 376 24 b 389 -1 376 4 381 -1 b 406 18 399 -1 406 7 z m 486 11 l 444 11 b 458 -1 444 3 449 -1 b 474 4 464 -1 469 0 l 481 -8 b 457 -15 474 -14 465 -15 b 428 11 439 -15 428 -6 b 461 47 428 32 442 47 b 488 19 478 47 488 36 b 486 11 488 17 488 14 z m 444 21 l 472 21 b 460 33 472 29 468 33 b 444 21 453 33 447 28 z m 521 47 l 521 44 l 535 44 l 532 31 l 519 31 l 510 -15 l 494 -15 l 503 31 l 494 31 l 496 44 l 506 44 l 506 47 b 531 69 508 61 517 69 b 543 67 535 69 540 68 l 536 54 b 531 56 535 56 532 56 b 521 47 525 56 522 53 z m 600 46 l 589 -15 l 574 -15 l 574 -10 b 557 -15 569 -14 564 -15 b 533 11 544 -15 533 -6 b 564 47 533 32 546 47 b 582 38 572 47 578 43 l 583 46 z m 578 18 b 565 32 578 26 574 32 b 549 13 556 32 549 24 b 563 -1 549 4 554 -1 b 578 18 571 -1 578 7 z m 604 11 b 639 47 604 32 618 47 b 664 31 650 47 660 42 l 650 24 b 638 32 647 29 643 32 b 621 13 628 32 621 24 b 633 -1 621 4 625 -1 b 647 7 639 -1 644 1 l 660 -1 b 633 -15 654 -11 644 -15 b 604 11 615 -15 604 -6 z m 688 7 b 688 4 688 6 688 4 b 693 -1 688 0 689 -1 b 700 0 696 -1 697 -1 l 701 -12 b 688 -15 699 -15 693 -15 b 671 1 678 -15 671 -10 b 671 7 671 3 671 4 l 675 31 l 667 31 l 669 44 l 678 44 l 681 60 l 697 60 l 694 44 l 708 44 l 706 31 l 692 31 z m 710 11 b 743 47 710 32 724 47 b 772 19 761 47 772 36 b 738 -15 772 -1 758 -15 b 710 11 721 -15 710 -6 z m 756 18 b 743 32 756 26 750 32 b 726 13 733 32 726 24 b 739 -1 726 4 731 -1 b 756 18 749 -1 756 7 z m 822 47 l 819 31 b 815 31 818 31 817 31 b 799 14 807 31 800 26 l 793 -15 l 776 -15 l 788 46 l 803 46 l 801 39 b 822 47 807 44 814 47 z m 889 46 l 853 -19 b 826 -37 844 -33 838 -37 b 811 -32 821 -37 815 -36 l 819 -19 b 828 -24 821 -22 825 -24 b 838 -17 832 -24 835 -21 l 839 -15 l 826 46 l 842 46 l 850 4 l 874 46 z m 879 -6 b 890 6 879 1 885 6 b 900 -4 896 6 900 1 b 889 -15 900 -11 894 -15 b 879 -6 883 -15 879 -11 z m 910 11 b 943 47 910 32 924 47 b 968 31 956 47 964 42 l 954 24 b 942 32 953 29 947 32 b 925 13 932 32 925 24 b 939 -1 925 4 931 -1 b 953 7 944 -1 949 1 l 964 -1 b 938 -15 958 -11 949 -15 b 910 11 921 -15 910 -6 z m 969 11 b 1003 47 969 32 983 47 b 1032 19 1021 47 1032 36 b 997 -15 1032 -1 1018 -15 b 969 11 981 -15 969 -6 z m 1015 18 b 1003 32 1015 26 1011 32 b 986 13 993 32 986 24 b 999 -1 986 4 990 -1 b 1015 18 1008 -1 1015 7 z m 88 -64 l 143 -64 l 143 1019 l 88 1019 z "},"":{"ha":1085,"x_min":0,"x_max":0,"o":"m 311 936 l 311 865 l 363 865 l 363 833 l 311 833 l 311 596 l 250 596 l 250 968 l 392 968 l 392 936 z m 474 844 l 461 844 l 461 596 l 400 596 l 400 968 l 494 968 b 565 907 535 968 565 951 b 521 847 565 872 549 854 l 574 596 l 503 596 z m 461 864 b 494 901 485 864 494 875 b 461 938 494 926 485 938 z m 650 936 l 650 865 l 703 865 l 703 833 l 650 833 l 650 628 l 731 628 l 731 596 l 589 596 l 589 968 l 731 968 l 731 936 z m 804 936 l 804 865 l 857 865 l 857 833 l 804 833 l 804 628 l 886 628 l 886 596 l 744 596 l 744 968 l 886 968 l 886 936 z m 390 483 l 343 483 l 343 143 l 283 143 l 283 483 l 236 483 l 236 515 l 390 515 z m 475 392 l 463 392 l 463 143 l 401 143 l 401 515 l 496 515 b 567 454 536 515 567 499 b 522 396 567 419 549 401 l 575 143 l 504 143 z m 463 411 b 496 449 486 411 496 422 b 463 485 496 474 486 485 z m 590 143 l 590 515 l 651 515 l 651 143 z m 776 288 l 750 288 l 739 143 l 668 143 l 707 515 l 818 515 l 857 143 l 786 143 z m 775 313 l 765 454 l 761 454 l 751 313 z m 1015 175 l 1015 143 l 874 143 l 874 515 l 935 515 l 935 175 z m 271 7 b 271 4 271 6 271 4 b 276 -1 271 0 274 -1 b 283 0 279 -1 282 -1 l 286 -12 b 272 -15 282 -15 276 -15 b 254 1 261 -15 254 -10 b 256 7 254 3 254 4 l 260 31 l 251 31 l 253 44 l 263 44 l 265 60 l 281 60 l 278 44 l 292 44 l 290 31 l 276 31 z m 360 46 l 322 -19 b 297 -37 314 -33 308 -37 b 282 -32 292 -37 285 -36 l 289 -19 b 299 -24 292 -22 294 -24 b 308 -17 303 -24 306 -21 l 310 -15 l 296 46 l 313 46 l 321 4 l 344 46 z m 422 19 b 392 -15 422 -1 408 -15 b 374 -7 383 -15 376 -12 l 368 -37 l 351 -37 l 367 46 l 382 46 l 381 40 b 397 47 385 44 392 47 b 422 19 411 47 422 36 z m 406 18 b 393 32 406 26 401 32 b 376 13 383 32 376 24 b 389 -1 376 4 381 -1 b 406 18 399 -1 406 7 z m 486 11 l 444 11 b 458 -1 444 3 449 -1 b 474 4 464 -1 469 0 l 481 -8 b 457 -15 474 -14 465 -15 b 428 11 439 -15 428 -6 b 461 47 428 32 442 47 b 488 19 478 47 488 36 b 486 11 488 17 488 14 z m 444 21 l 472 21 b 460 33 472 29 468 33 b 444 21 453 33 447 28 z m 521 47 l 521 44 l 535 44 l 532 31 l 519 31 l 510 -15 l 494 -15 l 503 31 l 494 31 l 496 44 l 506 44 l 506 47 b 531 69 508 61 517 69 b 543 67 535 69 540 68 l 536 54 b 531 56 535 56 532 56 b 521 47 525 56 522 53 z m 600 46 l 589 -15 l 574 -15 l 574 -10 b 557 -15 569 -14 564 -15 b 533 11 544 -15 533 -6 b 564 47 533 32 546 47 b 582 38 572 47 578 43 l 583 46 z m 578 18 b 565 32 578 26 574 32 b 549 13 556 32 549 24 b 563 -1 549 4 554 -1 b 578 18 571 -1 578 7 z m 604 11 b 639 47 604 32 618 47 b 664 31 650 47 660 42 l 650 24 b 638 32 647 29 643 32 b 621 13 628 32 621 24 b 633 -1 621 4 625 -1 b 647 7 639 -1 644 1 l 660 -1 b 633 -15 654 -11 644 -15 b 604 11 615 -15 604 -6 z m 688 7 b 688 4 688 6 688 4 b 693 -1 688 0 689 -1 b 700 0 696 -1 697 -1 l 701 -12 b 688 -15 699 -15 693 -15 b 671 1 678 -15 671 -10 b 671 7 671 3 671 4 l 675 31 l 667 31 l 669 44 l 678 44 l 681 60 l 697 60 l 694 44 l 708 44 l 706 31 l 692 31 z m 710 11 b 743 47 710 32 724 47 b 772 19 761 47 772 36 b 738 -15 772 -1 758 -15 b 710 11 721 -15 710 -6 z m 756 18 b 743 32 756 26 750 32 b 726 13 733 32 726 24 b 739 -1 726 4 731 -1 b 756 18 749 -1 756 7 z m 822 47 l 819 31 b 815 31 818 31 817 31 b 799 14 807 31 800 26 l 793 -15 l 776 -15 l 788 46 l 803 46 l 801 39 b 822 47 807 44 814 47 z m 889 46 l 853 -19 b 826 -37 844 -33 838 -37 b 811 -32 821 -37 815 -36 l 819 -19 b 828 -24 821 -22 825 -24 b 838 -17 832 -24 835 -21 l 839 -15 l 826 46 l 842 46 l 850 4 l 874 46 z m 879 -6 b 890 6 879 1 885 6 b 900 -4 896 6 900 1 b 889 -15 900 -11 894 -15 b 879 -6 883 -15 879 -11 z m 910 11 b 943 47 910 32 924 47 b 968 31 956 47 964 42 l 954 24 b 942 32 953 29 947 32 b 925 13 932 32 925 24 b 939 -1 925 4 931 -1 b 953 7 944 -1 949 1 l 964 -1 b 938 -15 958 -11 949 -15 b 910 11 921 -15 910 -6 z m 969 11 b 1003 47 969 32 983 47 b 1032 19 1021 47 1032 36 b 997 -15 1032 -1 1018 -15 b 969 11 981 -15 969 -6 z m 1015 18 b 1003 32 1015 26 1011 32 b 986 13 993 32 986 24 b 999 -1 986 4 990 -1 b 1015 18 1008 -1 1015 7 z m 88 -64 l 143 -64 l 143 1019 l 88 1019 z "}}}
